<mxfile host="app.diagrams.net" agent="Mozilla/5.0 (Macintosh; Intel Mac OS X 10_15_7) AppleWebKit/537.36 (KHTML, like Gecko) Chrome/137.0.0.0 Safari/537.36 Edg/137.0.0.0" version="27.1.4">
  <diagram name="PÃ¡gina-1" id="yYNUJ8veNLnhvBsJXgHq">
    <mxGraphModel dx="2567" dy="1893" grid="1" gridSize="10" guides="1" tooltips="1" connect="1" arrows="1" fold="1" page="1" pageScale="1" pageWidth="1169" pageHeight="827" math="0" shadow="0">
      <root>
        <mxCell id="0" />
        <mxCell id="1" parent="0" />
        <mxCell id="gJV9Rar0UIvyar5j-PNI-121" value="" style="rounded=1;whiteSpace=wrap;html=1;dashed=1;dashPattern=12 12;fillColor=#f5f5f5;fontColor=#333333;strokeColor=#333333;" vertex="1" parent="1">
          <mxGeometry x="360" y="110" width="1850" height="1240" as="geometry" />
        </mxCell>
        <mxCell id="gJV9Rar0UIvyar5j-PNI-1" style="edgeStyle=orthogonalEdgeStyle;rounded=0;orthogonalLoop=1;jettySize=auto;html=1;entryX=1;entryY=0.5;entryDx=0;entryDy=0;strokeWidth=3;" edge="1" parent="1">
          <mxGeometry relative="1" as="geometry">
            <mxPoint x="1350" y="1024" as="sourcePoint" />
            <mxPoint x="1180" y="1024" as="targetPoint" />
          </mxGeometry>
        </mxCell>
        <mxCell id="gJV9Rar0UIvyar5j-PNI-2" value="" style="rounded=0;whiteSpace=wrap;html=1;dashed=1;dashPattern=8 8;fillColor=#D5E8D4;" vertex="1" parent="1">
          <mxGeometry x="1350" y="900" width="730" height="330" as="geometry" />
        </mxCell>
        <mxCell id="gJV9Rar0UIvyar5j-PNI-3" value="" style="group" vertex="1" connectable="0" parent="1">
          <mxGeometry x="1380" y="950" width="670" height="240" as="geometry" />
        </mxCell>
        <mxCell id="gJV9Rar0UIvyar5j-PNI-4" value="" style="group" vertex="1" connectable="0" parent="gJV9Rar0UIvyar5j-PNI-3">
          <mxGeometry width="180" height="240" as="geometry" />
        </mxCell>
        <mxCell id="gJV9Rar0UIvyar5j-PNI-5" value="" style="rounded=1;whiteSpace=wrap;html=1;" vertex="1" parent="gJV9Rar0UIvyar5j-PNI-4">
          <mxGeometry width="180" height="240" as="geometry" />
        </mxCell>
        <mxCell id="gJV9Rar0UIvyar5j-PNI-6" value="Storage" style="swimlane;fontStyle=0;childLayout=stackLayout;horizontal=1;startSize=30;horizontalStack=0;resizeParent=1;resizeParentMax=0;resizeLast=0;collapsible=1;marginBottom=0;whiteSpace=wrap;html=1;" vertex="1" parent="gJV9Rar0UIvyar5j-PNI-4">
          <mxGeometry x="23" y="86" width="140" height="120" as="geometry">
            <mxRectangle x="660" y="870" width="50" height="40" as="alternateBounds" />
          </mxGeometry>
        </mxCell>
        <mxCell id="gJV9Rar0UIvyar5j-PNI-7" value="Topology Data" style="text;strokeColor=none;fillColor=none;align=left;verticalAlign=middle;spacingLeft=4;spacingRight=4;overflow=hidden;points=[[0,0.5],[1,0.5]];portConstraint=eastwest;rotatable=0;whiteSpace=wrap;html=1;" vertex="1" parent="gJV9Rar0UIvyar5j-PNI-6">
          <mxGeometry y="30" width="140" height="30" as="geometry" />
        </mxCell>
        <mxCell id="gJV9Rar0UIvyar5j-PNI-8" value="Configuration Data" style="text;strokeColor=none;fillColor=none;align=left;verticalAlign=middle;spacingLeft=4;spacingRight=4;overflow=hidden;points=[[0,0.5],[1,0.5]];portConstraint=eastwest;rotatable=0;whiteSpace=wrap;html=1;" vertex="1" parent="gJV9Rar0UIvyar5j-PNI-6">
          <mxGeometry y="60" width="140" height="30" as="geometry" />
        </mxCell>
        <mxCell id="gJV9Rar0UIvyar5j-PNI-9" value="Process Data" style="text;strokeColor=none;fillColor=none;align=left;verticalAlign=middle;spacingLeft=4;spacingRight=4;overflow=hidden;points=[[0,0.5],[1,0.5]];portConstraint=eastwest;rotatable=0;whiteSpace=wrap;html=1;" vertex="1" parent="gJV9Rar0UIvyar5j-PNI-6">
          <mxGeometry y="90" width="140" height="30" as="geometry" />
        </mxCell>
        <mxCell id="gJV9Rar0UIvyar5j-PNI-10" value="&lt;b&gt;Data Repository&lt;/b&gt;" style="rounded=1;whiteSpace=wrap;html=1;fillColor=light-dark(#D5E8D4,#1F2F1E);strokeColor=#82b366;" vertex="1" parent="gJV9Rar0UIvyar5j-PNI-4">
          <mxGeometry x="30" y="13" width="120" height="60" as="geometry" />
        </mxCell>
        <mxCell id="gJV9Rar0UIvyar5j-PNI-11" value="" style="group" vertex="1" connectable="0" parent="gJV9Rar0UIvyar5j-PNI-3">
          <mxGeometry x="250" width="180" height="240" as="geometry" />
        </mxCell>
        <mxCell id="gJV9Rar0UIvyar5j-PNI-12" value="" style="rounded=1;whiteSpace=wrap;html=1;" vertex="1" parent="gJV9Rar0UIvyar5j-PNI-11">
          <mxGeometry width="180" height="240" as="geometry" />
        </mxCell>
        <mxCell id="gJV9Rar0UIvyar5j-PNI-13" value="VNFs/CNFs" style="swimlane;fontStyle=0;childLayout=stackLayout;horizontal=1;startSize=30;horizontalStack=0;resizeParent=1;resizeParentMax=0;resizeLast=0;collapsible=1;marginBottom=0;whiteSpace=wrap;html=1;" vertex="1" parent="gJV9Rar0UIvyar5j-PNI-11">
          <mxGeometry x="21" y="85" width="140" height="90" as="geometry">
            <mxRectangle x="660" y="870" width="50" height="40" as="alternateBounds" />
          </mxGeometry>
        </mxCell>
        <mxCell id="gJV9Rar0UIvyar5j-PNI-14" value="Virtual Network devices" style="text;strokeColor=none;fillColor=none;align=left;verticalAlign=middle;spacingLeft=4;spacingRight=4;overflow=hidden;points=[[0,0.5],[1,0.5]];portConstraint=eastwest;rotatable=0;whiteSpace=wrap;html=1;" vertex="1" parent="gJV9Rar0UIvyar5j-PNI-13">
          <mxGeometry y="30" width="140" height="30" as="geometry" />
        </mxCell>
        <mxCell id="gJV9Rar0UIvyar5j-PNI-15" value="Virtual Services" style="text;strokeColor=none;fillColor=none;align=left;verticalAlign=middle;spacingLeft=4;spacingRight=4;overflow=hidden;points=[[0,0.5],[1,0.5]];portConstraint=eastwest;rotatable=0;whiteSpace=wrap;html=1;" vertex="1" parent="gJV9Rar0UIvyar5j-PNI-13">
          <mxGeometry y="60" width="140" height="30" as="geometry" />
        </mxCell>
        <mxCell id="gJV9Rar0UIvyar5j-PNI-17" value="&lt;b&gt;Service Mapping Models&amp;nbsp;&lt;/b&gt;" style="rounded=1;whiteSpace=wrap;html=1;fillColor=light-dark(#D5E8D4,#1F2F1E);strokeColor=#82b366;" vertex="1" parent="gJV9Rar0UIvyar5j-PNI-11">
          <mxGeometry x="30" y="13" width="120" height="60" as="geometry" />
        </mxCell>
        <mxCell id="gJV9Rar0UIvyar5j-PNI-18" value="" style="group" vertex="1" connectable="0" parent="gJV9Rar0UIvyar5j-PNI-3">
          <mxGeometry x="490" width="180" height="240" as="geometry" />
        </mxCell>
        <mxCell id="gJV9Rar0UIvyar5j-PNI-19" style="edgeStyle=orthogonalEdgeStyle;rounded=0;orthogonalLoop=1;jettySize=auto;html=1;" edge="1" parent="gJV9Rar0UIvyar5j-PNI-18">
          <mxGeometry relative="1" as="geometry">
            <mxPoint x="-60" y="100" as="targetPoint" />
            <mxPoint y="100.02564102564111" as="sourcePoint" />
          </mxGeometry>
        </mxCell>
        <mxCell id="gJV9Rar0UIvyar5j-PNI-20" value="" style="rounded=1;whiteSpace=wrap;html=1;" vertex="1" parent="gJV9Rar0UIvyar5j-PNI-18">
          <mxGeometry width="180" height="240" as="geometry" />
        </mxCell>
        <mxCell id="gJV9Rar0UIvyar5j-PNI-21" value="Orchestrator" style="swimlane;fontStyle=0;childLayout=stackLayout;horizontal=1;startSize=30;horizontalStack=0;resizeParent=1;resizeParentMax=0;resizeLast=0;collapsible=1;marginBottom=0;whiteSpace=wrap;html=1;" vertex="1" parent="gJV9Rar0UIvyar5j-PNI-18">
          <mxGeometry x="23" y="90" width="140" height="90" as="geometry">
            <mxRectangle x="660" y="870" width="50" height="40" as="alternateBounds" />
          </mxGeometry>
        </mxCell>
        <mxCell id="gJV9Rar0UIvyar5j-PNI-22" value="Infrastructure as Code (IaC)" style="text;strokeColor=none;fillColor=none;align=left;verticalAlign=middle;spacingLeft=4;spacingRight=4;overflow=hidden;points=[[0,0.5],[1,0.5]];portConstraint=eastwest;rotatable=0;whiteSpace=wrap;html=1;" vertex="1" parent="gJV9Rar0UIvyar5j-PNI-21">
          <mxGeometry y="30" width="140" height="30" as="geometry" />
        </mxCell>
        <mxCell id="gJV9Rar0UIvyar5j-PNI-23" value="Topology Generator" style="text;strokeColor=none;fillColor=none;align=left;verticalAlign=middle;spacingLeft=4;spacingRight=4;overflow=hidden;points=[[0,0.5],[1,0.5]];portConstraint=eastwest;rotatable=0;whiteSpace=wrap;html=1;" vertex="1" parent="gJV9Rar0UIvyar5j-PNI-21">
          <mxGeometry y="60" width="140" height="30" as="geometry" />
        </mxCell>
        <mxCell id="gJV9Rar0UIvyar5j-PNI-24" value="&lt;b&gt;Digital Twin Network Management&lt;/b&gt;" style="rounded=1;whiteSpace=wrap;html=1;fillColor=light-dark(#D5E8D4,#DFF2DE);strokeColor=#97D077;" vertex="1" parent="gJV9Rar0UIvyar5j-PNI-18">
          <mxGeometry x="30" y="15" width="120" height="60" as="geometry" />
        </mxCell>
        <mxCell id="gJV9Rar0UIvyar5j-PNI-25" style="edgeStyle=orthogonalEdgeStyle;rounded=0;orthogonalLoop=1;jettySize=auto;html=1;entryX=0;entryY=0.5;entryDx=0;entryDy=0;" edge="1" parent="gJV9Rar0UIvyar5j-PNI-3" source="gJV9Rar0UIvyar5j-PNI-5" target="gJV9Rar0UIvyar5j-PNI-12">
          <mxGeometry relative="1" as="geometry" />
        </mxCell>
        <mxCell id="gJV9Rar0UIvyar5j-PNI-26" style="edgeStyle=orthogonalEdgeStyle;rounded=0;orthogonalLoop=1;jettySize=auto;html=1;entryX=0.992;entryY=0.442;entryDx=0;entryDy=0;entryPerimeter=0;exitX=0.001;exitY=0.44;exitDx=0;exitDy=0;exitPerimeter=0;" edge="1" parent="gJV9Rar0UIvyar5j-PNI-3">
          <mxGeometry relative="1" as="geometry">
            <mxPoint x="250.18000000000006" y="98.59999999999991" as="sourcePoint" />
            <mxPoint x="178.56000000000017" y="99.08000000000015" as="targetPoint" />
          </mxGeometry>
        </mxCell>
        <mxCell id="gJV9Rar0UIvyar5j-PNI-27" style="edgeStyle=orthogonalEdgeStyle;rounded=0;orthogonalLoop=1;jettySize=auto;html=1;" edge="1" parent="gJV9Rar0UIvyar5j-PNI-3" source="gJV9Rar0UIvyar5j-PNI-12" target="gJV9Rar0UIvyar5j-PNI-20">
          <mxGeometry relative="1" as="geometry" />
        </mxCell>
        <mxCell id="gJV9Rar0UIvyar5j-PNI-28" value="&lt;b&gt;&lt;font style=&quot;font-size: 24px;&quot;&gt;Network Digital Twin (NDT)&lt;/font&gt;&lt;/b&gt;" style="text;html=1;align=center;verticalAlign=middle;whiteSpace=wrap;rounded=0;" vertex="1" parent="1">
          <mxGeometry x="1590" y="910" width="310" height="30" as="geometry" />
        </mxCell>
        <mxCell id="gJV9Rar0UIvyar5j-PNI-29" style="edgeStyle=orthogonalEdgeStyle;rounded=0;orthogonalLoop=1;jettySize=auto;html=1;strokeWidth=3;" edge="1" parent="1" source="gJV9Rar0UIvyar5j-PNI-31">
          <mxGeometry relative="1" as="geometry">
            <mxPoint x="1725" y="900" as="targetPoint" />
          </mxGeometry>
        </mxCell>
        <mxCell id="gJV9Rar0UIvyar5j-PNI-30" value="&lt;span style=&quot;color: rgb(0, 51, 102); font-size: 24px;&quot;&gt;Knowledge Graph&lt;/span&gt;" style="edgeLabel;html=1;align=center;verticalAlign=middle;resizable=0;points=[];" vertex="1" connectable="0" parent="gJV9Rar0UIvyar5j-PNI-29">
          <mxGeometry x="-0.5429" y="2" relative="1" as="geometry">
            <mxPoint y="-1" as="offset" />
          </mxGeometry>
        </mxCell>
        <mxCell id="gJV9Rar0UIvyar5j-PNI-31" value="" style="shape=image;verticalLabelPosition=bottom;labelBackgroundColor=default;verticalAlign=top;aspect=fixed;imageAspect=0;image=data:image/png,iVBORw0KGgoAAAANSUhEUgAAAgAAAAIACAYAAAD0eNT6AAAAAXNSR0IArs4c6QAAAERlWElmTU0AKgAAAAgAAYdpAAQAAAABAAAAGgAAAAAAA6ABAAMAAAABAAEAAKACAAQAAAABAAACAKADAAQAAAABAAACAAAAAAAL+LWFAABAAElEQVR4AeydB3wUxffA395deoBAIIUWCEgLSYDQSUKko4INsKKIiA3Ergj8jAIWlL9dFCuKBbECCgIqhiYdQu8QWggdUkhyd/t/7zAYIGVnb+9u9+4Nn/vkbnfKm+8cN29n3rwnAScmwAR0TSAuLt3fUrW4lt1sijJJUk2QbGEAUpjdDmEmE1Snv5IEeA1C8BWIryr4suCLrtHfqvgqnUrul75WiB/yS18AkE8BmKz49xxeP4+vAgkgV5Yxn0k+DbLpNN47LQPge/m0ZJJOyCAds5vMxzYvghyAdPul9fEnJsAE9EQA/z9zYgJMwFME4tLSo6Ti4ro4edaVZLk+SKZ6OKnWRXlq46sWviLxVQNfRkt2kOEYCn0MJMjGv0fwb5YkSwclsB2wSeYss8l8YP2idFQiODEBJuAJAqwAeII6t+kzBNLS0i04Czaw2OyN7JK9MU6AjXGCbwz0V5IbIogAn4FRdkfPoWKwG5WFXbIs7cKVjN0mWd5lt1h2ZS5KP1h2Eb7KBJiAFgRYAdCCItfh8wRooj9hhfoSFMfhMngLnMjiEEoLfDXHV7DPA1IHoBBZ7jZJsFkGeYtslzebZNOWDUvNW3l7QR1QLsUEShNgBaA0DX7PBBQQcOzJh9mukiVIAhO+ZDkJi7XBV5CC4pzFeQJkk5ApSTIqBtIWyS6vOWPxW71vUTrZKXBiAkxAIQFWABSC4my+SYCe7E8XFbVEA7xOSKADTjjtJJCb4nuzbxLRba8LcStho2SHFbjFgi/7ig1LXt6hW2lZMCagAwKsAOhgEFgE/RCI65Rew+xnTcY96WSUqgO+6OmerOs5GY/ACRR5BSpsK9D2IiPIlrdi+fI3CozXDZaYCbiGACsAruHKtRqEQELn9AgwFXdAK/wueLytB4rdGl8mg4jPYooRwCONsAHtMxaiPcFSk8VvMZ9CEAPIub2LACsA3jWe3JtKCCT0ejJEPh/YFZ8Ie+JSMb4cxnqVlOLbXkrAij+AK9GWY4FJlhaEmc0rFi1KJyWBExPwCQKsAPjEMPt0J6X45HFtcBm4D/7Q98AvfGek4e/TRLjzZRJAh0ZnJZD+kiV5gWyFeZuWTdhdZka+yAS8hAArAF4ykNyN/wh06vRYUK45pAsu6/dDC/2b8A451uHEBAQJyHvQMdMc3C6Y7V+Q8/eaNVOLBSvg7ExA1wRYAdD18LBwSgm07PBcpDnAdAPu4/fHMt3wRS5xOTEBrQicRMPQeahU/mI1mX/bvCg9V6uKuR4m4CkCrAB4ijy36zSBlqlj6kl2U188D94PK+uDL/J7z4kJuJoA+RtYiJ4LZ1sk60/rFr9MLo85MQHDEWAFwHBD5tsCJ6Sl1wV78a3oSncgkmiHL/4O+/ZXwtO9L0IB/kT/EDP8A4p+WrPw1TOeFojbZwJKCfCPp1JSnM9jBFqlpYfZrbb+6DufJn1+0vfYSHDDlRCgiIoLUDmd6Vdg/n7NmvTLoitWUppvMwE3E2AFwM3AuTllBMjdrrlGMS7tmwbjcb2+WIot95Wh41z6IHAaTxP8iCGTv9i4eHwGioSHDDgxAX0RYAVAX+Ph89K0Thndwi6Z70JjvnsQRoTPA2EA3kDgADof+ho1gA8zMybs9YYOcR+8gwArAN4xjobuRXzys9UlMA8GSRqCHSFPfJyYgDcSsEuy/AcqAp/lVzn7466579CWAScm4DECrAB4DD03jA56kkwm+3C0pr4DabC/ff5K+BKB06jwfiHbzW9tXJK+x5c6zn3VDwFWAPQzFj4hSYO09MAq1uJ+Jkl6FJ+EyCsfJybgywTs2Pk/ZVmeGm7x+4ldEfvyV8H9fWcFwP3MfbJFtORvYLdaR+ChvXsRQJhPQuBOM4GKCezHLYK3A4v9Pl6xIv1sxVn5LhNwngArAM4z5BoqIEDL/OioZxRmuQ1f7KinAlZ8iwn8S+Acbg98ZrObJ29ekp7FVJiAqwiwAuAqsj5cb1LScD9rUK1bZUl6DDGwUZ8Pfxe4604RKMZtshlmm33y+mUvrXeqJi7MBMogwApAGVD4kjoCFGoXzgcOwxPPj2MN9dXVwqWYABMog8BSDGz1auaSiXPwHuoFnJiA8wRYAXCeoc/XkJSWXrPYjvv7MoxAGOE+D4QBMAHXEdiJdjTvhRTnTV2+/I0C1zXDNfsCAVYAfGGUXdTHuLT0KIvN+jQ+jgzHJvgYn4s4c7VMoAwC2Wgw+JqlwO8DdjlcBh2+pIgAKwCKMHGm0gQSOqdHSBbr4+itbyReDy59j98zASbgVgLHaUUgqNDyf3xywK3cvaIxVgC8Yhjd04lSE/8j2GKQe1rlVpgAE1BAwKEI+PkXv8ERCRXQ4iwOAqwA8BehUgJxndJrWPxwqV8GnvgrpcUZmIBHCZzA/6evnbNY3tq3KP28RyXhxnVPgBUA3Q+R5wQkq345P3AEBjJ5FqVg5z2eGwpumQmIEjiALrYnhFvMn7J3QVF0vpOfFQDfGWvFPW3cd2RAcF61B9Cq/zksxBH5FJPjjExAdwS2ogI/dkPGhJ9QMj4+qLvh8axArAB4lr/uWk9IHtMPvZC9gYI10p1wLBATYAJqCazEUwNPbFgycYnaCric9xFgBcD7xlRVj+LTRjeT7Kb/A1nqq6oCLsQEmIARCMyRZcsojkBohKFyvYysALiesa5bcDjxsVlfRCHpLL9Z18KycEyACWhBoBAredsvoHginxjQAqdx62AFwLhj55Tk5K+/KCjyHgzUMxErqulUZVyYCTABIxI4gT4ExmdmWN4BSKewxJx8jAArAD424NTd+OSxPXDg38D//C19sPvcZSbABC4lsEY2SSM3/j1++aWX+ZO3E2AFwNtHuFT/EpNHN5El82S8dF2py/yWCTABJkAnBKaDzfJk5rL0HMbhGwRYAfCBcW6Qlh5Y1W4di4eAnsbu+vlAl7mLTIAJqCNwCh0JPbFxyYTPsTgfG1TH0DClWAEwzFCpE7RVyrgudpA/wtLN1dXApZgAE/BBAhlgh+GZSyds98G++0yXWQHw0qHu0CG9akGAbTzGEKcQvSYv7SZ3iwkwAdcRKEA7oUl+eTkT16yZWuy6ZrhmTxFgBcBT5F3YbquU5661g2kKNlHPhc1w1UyACfgAAZwkNtjs8rBNSyeu9oHu+lQXWQHwouFu2eG5SJO/6TXs0mAv6hZ3hQkwAc8TsKKH0PchsOC5zPmv53leHJZACwKsAGhBUQd1xCePGShJEj31h+tAHBaBCTABryQg78EgQ/ejkeBCr+yej3WKFQCDD3h8cnqsJFnJyK+bwbvC4jMBJmAMAjKeD/jUL7D4CfYkaIwBK09KVgDKI2OA6/8+9U9FUTlUrwHGi0VkAl5GIEuW5MEbMyZmeFm/fKY7rAAYcKiTejxTzVro9x4e0r3DgOKzyEyACXgPARuGG37dkpczjk8KGG9QWQEw2JjFdx3XSbLbpwNIsQYTncVlAkzASwngw8gqswR3rM+YsNNLu+iV3WIFwCDDmpaWbjl5wZvfWBSZo/YZZNxYTCbgQwTOoYHgkxuXjKdtSU4GIMAKgAEGKSF1bENJhumoZXc2gLgsIhNgAr5MQIYfiwJsw7f98fIJX8ZghL6zAqDzUUpIHncXSPJ7KGaozkVl8ZgAE2ACJQSy8aTAPZlLJswrucB/9UeAFQD9jYlDombdR4cHFJk/xqf+G3QqIovFBJgAE6iIgB0NBF9jA8GKEHn2HisAnuVfZuuJqeNay7L8A95sWGYGvsgEmAATMA6BpWa7ZdC6pemHjSOyb0jKQWJ0Ns6JyWMG4+S/FMXiyV9nY8PiMAEmoIpAF5vJuh5tmdhZmSp8rivEKwCuYytUc+O+IwOC88ImYfS+R4QKcmYmwASYgDEIWGUZxqIb4VeNIa73S8kKgA7GOLHTmDqyn/Q9Gs101IE4LAITYAJMwJUEvoGg8/dxUCFXIlZWNysAyji5LFd86phUSZZmYANRLmuEK2YCTIAJ6ItApt0GN21aNmG3vsTyLWnYBsCD4x2fPG44Tv4UVYsnfw+OAzfNBJiA2wkkSGZYizZPN7q9ZW7wIgFeAbiIwn1v4tLSQ01W6yd4RGaQ+1rllpgAE2ACuiMg4+/gpA0ZlucA0u26k87LBWIFwM0DTF79cK9/NjYb5+amuTkmwASYgF4JzCm0F92+femkc3oV0BvlYgXAjaOamDKmPfrKngUSRLqxWW6KCTABJmAEAhvtknztpoyJB4wgrDfIyDYAbhrF+JSxN8gg/cWTv5uAczNMgAkYjUC8SZb+IUdoRhPcqPKyAuCGkcNl/1G41EKe/YLd0Bw3wQSYABMwKoHa6Agto1XKc9catQNGkpvDyrpwtAYOHGg2h9/0Fk7+z2MzvN3iQtZcNRNgAl5DwB9XS2+JjEk9djQrY7XX9EqHHeFJyUWDktDryRAoCPwaq+/voia4WibABJiAdxOQpLczM8yP8QkB1wwzKwAu4IrH/KLMdutstPZv64LquUomwASYgA8RkH4IseYOXr78jQIf6rRbusoKgMaYE7uMi5NN8q9YbYzGVXN1TIAJMAHfJCDBP2bZ1n/d4peP+SYA1/SaFQANucanjOsqgfwLVllNw2q5KibABJgAEwBph8ls7r1+Ufo+hqENAVYAtOEI8V2e6yuZTGTpH6RRlVwNE2ACTIAJlCIgAxwx2aWeG5aO31zqMr9VSYCPAaoEV7pYQvKYfjj5/4jXePIvDYbfMwEmwAQ0JIBPrNG4xfpnXPK4RA2r9dmqWAFwcuhx8r8NJIkm/0Anq+LiTIAJMAEmUDmBCLMkL0roMobDp1fOqsIcrABUiKfim+jd7z6c/KdjLkvFOfkuE2ACTIAJaEggDEzSAnSy1k3DOn2uKlYAVA55fOrYh3E56kMszgxVMuRiTIAJMAEnCIRSYLXElP/1dqIOny7Kk5eK4Y9PHvuMJMO7WJSNKFXw4yJMgAkwAY0IBMtgn5WYOvYmjerzqWrYFbDgcONRvxcwfvV4wWKcnQkwASbABFxDgOaxAZENUvYf3b94g2ua8M5aWQFQPq4ShvN9B7M/pbwI52QCTIAJMAE3EMDVbKlfZIPUQ0f3Z6xzQ3te0QQrAAqHMSF57Oto8PeowuycjQkwASbABNxLgLa0+0XEpB7OycpY696mjdkaKwAKxi0hZexLuNv/tIKsnIUJMAEmwAQ8RwB3aOGayPopO49mLd7kOTGM0TIrAJWMU2LK2HGY5X+VZOPbTIAJMAEmoA8CJlyt7Y9KwHpUAnboQyR9SsFW7BWMCzr5eQS/SG9VkIVvMQEmwASYgD4JFMl2+w0bl740V5/ieV4qVgDKGQM86ncPriV9greZUTmM+DITYAJMQOcE8mVJ7rsxY2KGzuX0iHg8uZWBHff8B+Dlb/HFWyRl8OFLTIAJMAGjEMAAQmfNJqnH+r/HrzKKzO6SkxWAy0ije98bEMpMvMzufS9jwx+ZABNgAgYlcFqSpG4bMsbzEcFSA8gKQCkYLbv+r6fJbp+NlwJKXea3TIAJMAEmYHwCObLZ1nXjope3Gb8r2vSAFYB/ObZKHptml+A3/MghfbX5bnEtTIAJMAG9EThgtskp65ZN3K83wTwhDysASL11yugWNjAvxbdhnhgEbpMJMAEmwATcRmCrLFu7bFzyyim3tajThnw+GFBcWnoUTv705M+Tv06/pCwWE2ACTEBDAs0lyfJz474jfX6r16cVgE6dHgsy26w/4xcrRsMvF1fFBJgAE2AC+iaQGpxb7XMU0adXwX34mFu6Kbyh5Tv8AvTQ9/eUpWMCTIAJMAEXEGiJwYMAgwctckHdhqjSZxWA+JRk8vB3tyFGiYVkAkyACTABVxDoimGE9/lqGGGfXP5ITB7zuCxJk13xbeI6mQATYAJMwFAEimUZrtm4ZMJCQ0mtgbA+pwAkJo+9TpaA9v19dvVDg+8NV8EEmAAT8BoC5C0Q474kb8wYv9FrOqWgIz6lALTsMqatySQtQi4hCthwFibABJgAE/AZAvI+m9mv0+ZF6dm+0mWfUQBapaU3sFut/6DNZ6SvDC730/sI1K9TA1o2rwsNY2pBg/o1IaxaMISGBEJwkD8UnC/CVzHk5p6H/QeOwz58bd+VDVu2Hwabze59MLhHTEB7Amsg6HzXzPmv52lftf5q9Al/93jWP9Rus87hyV9/X0CWqGICuGIF7Vo3hGt6JELHdo0gKqJaxQUu3m168V1efiGsWb8PFizaDAv/3gz5BUUX7/EbJsAELiGQJJ0P+gyv3IIv3Bnw7uQLKwAShvb9FkP7DvLuoeTeeRMBeqq/9aYOMPD6dgKTfuUEaJXg9z82wadfL3asElRegnMwAZ8k8HTm4gmveXvPvV4BSEgd8yTIktcPpLd/UX2lfwEBfnDP7clw58DOUCU00GXdtttlmP/XJnjzw/lwJPu0y9rhipmAQQnY8KHxmg0ZE+YbVH5FYnu1ApDY9X9Xy3Y7DaBPbHUoGnHOpFsCKR2bwLOPXgd1a1d3m4zn0WZg6heLYNq3S8FqtbmtXW6ICRiAwAmT2dJ2/aL0fQaQVZWIXqsAtEwdU88kS6uRSoQqMlyICbiJgL+fBR57sBfcdnNHPInkmf+Sm7cdgqfTZ8DBwz4fH8VNo87NGITAyvzQM6m75r5TaBB5hcT0yrPwSUnD/WS/0NlIorkQDc7MBNxMoGZ4Ffjw/4ZA99QWHpv8qcsRNavCdb1awdYdh1kJcPN3gJvTNYE6/sUBEegpcI6upVQpnFcqABFX9ZmCMR5uVMmEizEBtxCoE10dPn5rKFwVq4+TqYFof9CnWzxkHToBu/bmuIUBN8IE9E9ASsKYAQcxZsA6/csqJqHXKQDo5newDNIEMQycmwm4l0A9PM8/7f3hEB2p9Fife+Qzm02O1YiDh0/Czt1H3dMot8IE9E+gV3TDrvOz92cc1r+oyiX0KgWgVefnWskmE7n59VOOgHMyAfcSqFE9BD564x6oHRXm3oYVtkZ2CF07N0UHQocg6+BJhaU4GxPwagIWjBfQu3ZMl6+ys5bke0tPTd7SkWbdR4fbzY7JP8hb+sT98D4Cfn5meOeVOyGmXk1dd85iMcNrL9wKDevX0rWcLBwTcCOB+jYwfw2Q7jXzptesANSpd/U0/CJ0duOXgZtiAsIEnni4D/ToGidcrqwChUVW2LMvB3buOepw93v46Gk4cyYfAgP9gfbznU2krCS1agC/zF3HroSdhcnlvYVAbGSMvfBoVsYSb+iQZ84caUwuMXXs/bg884HG1XJ1TEBTAp3aNoIpk+92yto/O+cMzJ63HjKWbwc6uleej3+KGdAB27u2ZyK0Tohxqh9ff78cXn37N6fq4MJMwIsIWNG5XHLmkvErjN4nwysA6Oe/sdlmJevMUKMPBsvvvQToaXrmZw+rXlI/jU/2075dAtO/Ww5FxVYhUAlx9WDU8J7QFmMKqEl2ux1uu+8D2LbziJriXIYJeCOB3YX2otbbl046Z+TOGXoLIC0t3VJIQX4AYo08CCy79xMYclsK9OkeL9xRGZe2pn+3DB597mtYuXYv2HAyFk1Hj52FWfPWOaz6O7VrDORuWCSRUSAdVfz5t7UixTgvE/BmAjUskrkmbgWQvxnDJkMrAFXqpkzE36ZbDUufBfcJAkG4J//6i7fg3rzYxFtYWAxPPT8Dvvr+HyjWwE3v3v3H4I+MLdAxKRaqh4UIsY/C44obNmaxkyAhapzZywkkRTXouhX9A2w2aj8Na82Y0HVciiTJTxkVPMvtOwQG9G8LYdWChTpMk/9DT38Jfy7eKlSussxZB0/AnQ9MhY1bDlaW9Yr7w+5Ku+IaX2ACvkwAV+g+ILfzRmVgSAWgVVp6GNjlLxG6oVcwjPqlYbmVE6Dl80E3tFdeAHPSsv/o8d/D6nV7hcopzZyXX4hbCl/BkaNnlBZx5GuLJwJiG3BoDSFonNnbCVTHmDM4FxnzaKAhFQC7zYqufsE502Zv/1py/3RBIKFFXahfN1xIlm9++MexVC9USDDz8ZO5MGr0dKCVBpHUr3eiSHbOywR8gUDXxFTrY0bsqOEUgITUMXcjaN73N+K3zQdl7tsjQajXZO3/3id/CpVRm3n7rmz46Mu/hYr37S7WH6HKOTMTMCgBXLSbSJ5ojSa+oRSA+OT0WFmW3jYaZJbXdwl0bNdIqPNTpy2C3LzzQmWcyfzFt0shB08JKE3R6L5YdEVDad2cjwkYmECAzWz+qlOnxwzlidZICgBup1o/RMcFVQ38JWHRfYgAhfptIODyl5blZ/6yyq2EyJvgV+joRyS1bxMrkp3zMgGfICCB3CLfL+R5I3XWYhRhE1LHDgUZehhFXpaTCbRsVkfI69/cBRuEnfxoQXnO7+th1P09wWRS9jzQsnkd+H6WexUVLfrpi3XUrBEKDWJqORTRBvXC8TRKCAQF+UFoSCBQvIciVABpxYkMQ4+fyIW9WcdgX9Zx2HfgOOTlFfoiMqf6jFsBT8Qnj5u5ccn4NU5V5KbChlAA0NtfFNisr7mJCTfDBDQh0BB/eEVSxvIdItk1y0srD5u3HYZ4NFhUkkRWNZTUx3m0I0D+HTq3bwztW8dCuzYNoU50dVWVk/fHbTuzYdW6PeiACl9r9npEOVUlvGcLWUyS/ElS0vB2a9ZMFbOw9YDchlAA0NXvO8hG3TfZA1C5SSZABET2yukHN3PLAY+BW71+r3IFoL6+Ixl6DKKHGvb3s0AnnPSv65UI3VKaO57snRWFVoNaNK3teN19a7JjlWDRkm0wG1eLVqzZ4ziq6mwb3lpeBkgsDo54FPun+4dW3SsArVKeuxadnw7w1i8L98t7CVQPU+78h87knz/vuQcG8hKoNJFTI5NJArsdf+o4eYxASHAA3HBNGxh6RwqQvYkrE20ZXNe7leNF0ScpLsWv8zPxOyDumtqVcuqo7hdw5fqnzYvSd+lIpitE0bUC0KFDetUCsHKUvyuGjS8YgQD9QCtNx054NqaISPvk3IjcG9O+MSf3EyCX0kNuS4Y7B3aGKqGBbheA4kJMeO5mVDxS4b2P/4CFfxvWE64r2QWZbNaPsIFu+NKtpqzM6seVmCqoO9/POglvK9uYrKAevsUEPEEgUCDojief/olNfn6REKI2zU6Dv8UmVIYzO08gtXNT+HHaSHjwnm4emfxL9yAWbVwmj78VPnrzHtVRLkvX523v8cRaWnzy2CF67pduVwDiu47rJNnl+/QMj2VjAhURKCpWPkEG+Hv2v6JooKJ3H/4WiovyYMfBmrBxbxRs2hcJm/ZEwb6j1XF/uCIqfE8NgapVguD5p6+HHl3j1BR3aRk6Fjrj04fgnakLYPrM5WwfUIo2Lpa90bpL+u/rlqYfLnVZN289+6tTDobGfUcGSLnyJ3hb1ysU5YjPl5mAg0C+wBJ5mIC9gCvw1osW/Cmw54EfrgDENTjqeJXIdC4/ADbtv6AMbNqLf/F1/GxIyW3+q4JAHB4nnZR+C9StrV87aFJgnxzRF9q1bgjjXv4RzpwtUNFTryxSzWay/h/2TJfeawX/17tngILzqo3Dlpq7pzVuhQm4hoDIj2Dd6BpgNpvAZvOMUVW3DgK6tp08B5a9ulEluBA6Nc9yvEqoHj8TAlv2R8AWXCXYkhUBa3fWBlIUOFVOgCJJjn70Ok0s+ytvzfkcXbs0g28+ehBGYCTLPQKGpc63rOsabolPGfPNxsUTf9GblLhNoa8Unza6mWQzZ6JUYsHT9dUNloYJwPC70+Dhe7srJnH78A/wPP4hxfm1zPjnjOsgPLqDsirPrwPY31VZ3jJy2e0S7DocjqsDUbh9QKsEUY7PdJ3TfwTIun/U/b3+u2Cgd2fPFcDIZ6bD+k1ZBpLapaIegKDzzTPnv57n0lYEK9fdCoBkN9FyCU/+ggPJ2fVHgDyqiSRy4OIJBSA4yB+qRwjEMSnaKdKtK/KaTDI0qXvc8bopZZPjfkGRxbFC4LAlIMUA7QmOnHTt0bYrBNPJBTpl8fTIvnD7gE46kUhcDLJZmDL5bkfYafIbwAnqwfnA0chhrJ5Y6ErlvnDm3zRHT4BYFiaglgA5Apr9NfkDUZZoyfSmu95xuxFV/z6tYfxzNykTknIdGwNwknxzuTaR7cDmvREXVgpQISDbAl/YOhh5Xw8YNlj9CktFo0LbUidO5UJBQZHjFYxHVUPxKGFkzSoQIHBqpaI2St/Lx3aGjfrUI4ptaTl08r5Ikm3xG5a87BmXn2VA0M0KALpO9CsG0+QyZORLTMCQBLIOnoCjGGkvspay+FV0rOpq9OT2Z8YWt/WXnjZvu7mjWHv5GWL5VeauWTUPuibudbyoCjpdsB9PGVwwLsRVgn1RsP1ATSi2mlW2oL9id+BTv1aTPznpWbcxy+HKd/X6fbB7bw6cOl32CjQ5doqKqAZNGkVB+6RY6NS2EcQ2iHAaEK0uvTdpMNz10EdA/x98PPnLkultZNBHLxx0swIQnzL2MRSGlv85MQGvIUAOU/r1Ub68TqsAN9/9rts8rPXuFo8W5oOU87adAtjVEPN7xljxckGLcPLfnlXLcQzRcRwRtw+ycsIMeRQxpVNTePvlOxxeFi/vp8jnQ0dOwXc/r4RfMbjUsePqHUw1bRyF393WcNO1SRAS4pzRJk3+tw6bws6jcCBNYL9u/eKXfhUZU1fl1YUCkJSWXrPYZqVlEf2ec3HVCHC9Xk2ArKLpR10kTfy/2Y4fcJEyavJWqxoE3382AiIUrlA42jgzDSB7pJrm3FbmLB1FREXgopEhnj44eVa5W2a3CVqqIXr6prP0YVXVy3ng0EmY8tmfMO+PjZqeJiFvg7RKRN4HRbxbluqe4+1vCzNh9IszL7/sc58xbPAu60m/uM2b08W8b7mAlC7WzmrV64JL/1KKC/rHVTIBjxI4ePgkDOjfDmgpVGnqkNQI/lm9G3Jw+8BViY4cvvXynUBPeUIpB+2YrJ4LWqRE1gA/G9SLOANJTQ7BNR22w5Dea+H6LlshMTYbosJzwYxGiKdzg8BqEzj6qKRhlXloLN555U7V3vSK0eHUJ9Mz4FmcXLfuOKy5DQmFDF6zYZ8jEFB0ZBg0Urk1QC6Ej+acxSiDR1SS8pZiUg1zoO300azFyz3dI4+vALROGd3CBuYNCEI39gieHhRu37sIPP5Qb6CIaiKJJv/b8FjgcRfFCBj92HVw640Kj/39K3hh3l6APW0hwL9YpCu6zEtHDvdlV7/gnwCNC8k/AdkWeMKeYPAtXeDJh9VtCx/JPg1Pv/AdZG52n1JGW1pjHu/niAchOrgUP+KGwW+7VLkVlclD+U8X+dsab/vjZY8aRnh8BaBWTNp01EKu8tAgcLNMwOUEdu4+Crfe1BEs+KSnNNGeK4V2pZWAU2fylRarNB89bdIRM2HDP6z5xcl/wTPv1IHfVzdxuAAmi3yL2Q5hoQWAtoSGSiRv9SoF0KTecejScj/c0GULDO61FlLi90PTesegBoYhs+EKwalz6pfklQCh7ZfJL94KFNJXNK1atxeGPvIp0NK/O9OOXdmwaMl2SEtuBqGCtgHUz1oYuXDh31vcKbIe2wo0W00BR7My5nlSOI/+t01MHnOjLEk/ehIAt80E3EGAnpgG3dBeuClyqPLk/751xGAXLnxZAdpffh2Dt5C7VtFEhmX973gLrNYrPQCGBBU5zvS3bnwY6BXfMNsxuYq2ocf8l3sx3LArGk7naReBjwwwyRBTNNFJkWdemAlFxVbRoprlj46sBh9MHgIN6tcUrpOOBpIC4+OpGI8FtvTksUCPKQDk7z8kt+omGaTGPv4l4O77AIEa1UPgl+mjgBykiCY6zjXj51Uw5dM/VPlYpyNe1/ZKhEcf6A01a4SKNu/I//jYb+APgeOJtcJyURk4gq9D0CLmGDSPyYEAP89NVqo6XU4hUgrInfH6XbUdWwdb9kVAYbH4EzzZX8z45CFcPRH7GSbHOuRq15OTfwkaWsH44r37IDoqrOSSor+0ZTH4wamK8npzJnwA/mljxngBJxza0hD75mnYdkLKGPSQIr2hYZVcFRPQNQHac6e9d7WJ9k9n/rIKfvltrSI/66Rs9Oke71juJx8DatPSFTvhoae+UFvcUY62CmIiTzlWCGiVoAUqBA2jTxpu66AsCGRMmHU0DNbuqgPrd0ejR8MI2HMkvNKjiK+9cAv0urplWVWWe40M6IY8/DEUnPe4AflFGclfwPQPhgufELj3kU+A/BP4erJLcpdNGROXeYKDRxSAuLT0ULPVugskiPREp7lNJuAJAvQk/uH/DQEKn+psonPV9ONJfgOO5pyB3LzzeNIgAOhoHy3JJsTVg/jmdR0BhpxpizzH3XLve3Dk6BlnqimzbChuHbTE7YLWjY5AC4wqmIBW+mRP4A0pr8Afdh6qeWGlYHdtR8yD0kcRG9avBT9+MVLozH9eXiGepX8fsty8569kPEjRfPX5QUqyXsyzfNUueOCJaRc/++wbGRZnLpmQ6on+e0QBSEge+zxO/ume6DC3yQQ8SSC8eih8h+e9a6IhlN6TjK73aOn/z8Vb3Sbq5VsHpBj4Y9hhb0il7QmuSnoSuncTC/Qz7qUfYdY8DMSk0yTq9Iq+X/1vf1OXCo27EeMuUO8NGRPmu71ddzdITn+KbNbdqHlUdXfb3B4T0AOBNgkx8AGuBFAMdT2nqdMWwXuf/OFREQP8rdC8fg4aFh51GBfG4ypB7XDX+UdwS2clHPfYbXjwOUJxc2sz98PQkZ9ofsZfsQAKMpKR6S9fjxJyZkSOiz747C8FtXt9ljWZiye0w16iw2v3JbcfA6xZL2U8Tv5p7usit8QE9EWAltN34NFA2v+lbQE9ph/nrIHX3p3rcdHoKF42RgXM3BMNC9ZcBV8tbA0zFyXAmp114eCxao5z+7Rt4I/OfwyTQvHJP2yIYnHpSXnU6K/gxMlcxWU8kfF8YTFYi+3QpYPyU92R6AHx2x9XeEJcvbVZOzImdRMeC3Tr+Ui3/vokdhpTR7ZIu5C8dudo9DaMLA8TUEjgmh4Jjih8Fovb9fAKJfxl7jp4YdLPmrqTrbBBJ29SeOEGUacgvkE2xMeiLUHDI9C47gn0+KePeAVXdC/6Q1z/vO2Ky+VdWLR0m0MBKO++nq4HBvrB3BlPAJ16UZoG3fs+bPd574BIS5a2NY3e1nLmzJlu02bd+ssT0bDrRNQ4uij9YnA+JuDNBHbuOeoIk9ottTn46UQJ+PybJfDKm79iMCK3rkQ6NcyyLKHDniCMDFgLMjIbwsyMeJg2PwmWbY6B3YfCIbcgAIIDi6EKGh3qIkVOwogwyndA01EZy3aBEaYrWFitdgwrbBEydN2PBq3u9GToin5rUqcENU+cC9+GLoI3aVKfgkrctgKAlv9RZpt1D8okfhBaQUc4CxMwKgGyCH99/C3QuGGkx7pQiMu3L+PE/9Ovazwmg6sbrlkt74ItAdoR0ImDFjHZEIKKgVuTfyOAhsoN+cjinwzlaBvAKIl8Avz27eOKt7cylm2Hkc9ON0r3XC3n1szFFjwbmu6W5Su3WSHhsb9n0fKfJ39Xf324fsMR2Jt1DAY/MBWeGnkN3HhtG2HHMM52ePO2QzB24g+KfAs425Yny5MV/l/rYx0vkoO2DmKjTkJLVAZKjAyvqnPccd1lcgaJxYT4df56Q03+xI3iE6zbuB+SEhsowkj5yBbGSKtOijqmLlPzhBTboMzF8K264mKl3LIC8O/T/24UzbWOtcX6zrmZgO4ItMYTAuQ2mCKnuTqRm+F3PloI389axT++/8IOwlMHcWhL0BJPHSQ0wr94DDGy+jnthiLiVQxC8KDi+oaOmAJrMg8rzq+XjPfd1RVGDOuhWJw+A193ia8JxQLoK6PbVgHcsgJgstmeQr48+evrS8bS6JDAOjzuNWjoe5DSqSk8MORqaNG0tuZSnj6bD9/+sAK++n45kBLA6T8CBUUWWL2jruNVcjWieu4FhQCNC8nIsEXMUQgOULl14N+4pNrK/9pzYf3m7Mrz6TDHSnRXDMOUC9agXk1WAP7D1TwxtXjghgyY8d8l17xzuQLQrPvocKlIHu4a8blWJuB9BGgp9G+0/Ka90aRWDaB/n9bQo2sLYVerpclQnSvX7nHEdP8DI7HpyZVsaTn1+D7nVCj8Sa+1uH+PibYOGtc+4fBiSLYEtFrQKPqEsq0D/yaKu3j21C7DnMS4vFPbMGIgfeeUHnONQQVgOUa+5HSBABq2jsF33+HLpcYfLlcA/Iosj2Af1EUg4W8DE/BhAmT4tRojptFrwuuzILFlPWifFAsJLeo53P1G4Rnq8tK53POwL+s4bN1x2BF1jSb/0xqGFS6vXV+4brdLjnDIOw7WhB8XX/DlT8aEzXFlgBQCioZINgXk1fCKZFG+orN+S94VxY1ygYxKs9FFdW2FQYLIHwCnSwjEx6eO7bsxY8Jvl1zV+INLFYCEXk+GQIH8kMYyc3VMwOcIUOQ3Cp9aOoRqcJC/47x1SEggBOH566IiK8YEKHTEBTh5yriThxEHN++8H6zejlsH+CpJUTXOOWwIEjDWAdkStGh4GoIkv5Lblf7dtLOw0jx6zkAhpJUqACHBAXruikdkk2R4Bhs2rgIABQH3YQfEg0V7BDc3ygSMRSC/oAjoxUmfBMiDIb0Wrm3sEDC8eiD8+YtyWSn4j5ETBahSmkKC/ZVm9aV8qS1Tx3R2ZaRAk6toJiUNR1VXwpC/nJgAE2ACTCAgQMwBan6BsRWA/HzlyimtZnG6koBJNj195VXtrrhMAbAG1boVxYzRTlSuiQkwASZgXAJWm5hvFz8/tzpq1RysiPzFVrd5v9W8n66tUO7XMnVsc1e14TIFQDZJaPzHiQkwASbABIhAXr7YE31wkLH3xUX29fMEVgt87NtkkuwwylV9dokCEJ8yriseXmjrKqG5XibABJiA0QgUoL2GiEtfkYA6emQhIr/RtztcyV+S4C46Tu+KNlyiAKDLX5dpLK6AwHUyASbABFxNgM7F0/FMpYmc4xg1SThr0dl+penMGXZIVQGrIP8is0t86WiuALTuPCZGkuX+FXSGbzEBJsAEfJLA/gMnFPe7YUwtxXn1ljEqoiqIGPZRREBOFRIYccGwvsI8wjc1VwCsZhPt/RvbekUYIxdgAkyACVROYP+B45Vn+jdHvTo1IKJWVcX59ZSxTWIDIXH2CXARqth7MtcuDqo1QOvuaKoAkOMfCeShWgvJ9TEBJsAEvIHAXvTOKJLatW4okl03edu3jlUsC9lFZAmsjCiu2NsyusCwXlMFQC4IvB2Zh3kbd+4PE2ACTEALAhu3HBCqpkdqC6H8eshssZghLbmZYlF27jnKsSmU0JKhY0LKc22UZFWaR1MFAGML36+0Yc7HBJgAE/A1Aus3ZkEhumxWmigqZFg1YwVSTe5wlZDMFKeCkzICsmzS1BhQMwUgIXlcB+xCkrJucC4mwASYgO8RoMl/42blqwDkTOfGa431s3rLjTQVKE+r1u5VntnHc+Lhijs6dEjXzDBEMwUAJPlBHx8b7j4TYAJMoFICi//ZUWme0hkGD+oMAQHKgwiVLuvu93HN6kDn9hdiHyhpm6IGrlrPCoASVv/mCS3wt94hkL/CrJooAK3S0mnff2CFLfFNJsAEmAATgN8WZoLdrtwtcHiNULhjQEdDkBs5vKeQnH8v2w5GD3ok1GFtMj+gTTUAmigAss06GAUy1kaVVgS5HibABJiAAIGcY2dhheCy9/13X604tK6AKJpm7XV1S+jUtpFQnbN/Xy+UnzM7CCQkdBmjiUaojQIgwVAeGCbABJgAE1BG4Odf1yjL+G+uwEA/+N9T14PJhKbWOkzh1UPhmUeuEZLs+IlzsGzlLqEynPkCAVmShmjBwmkFID51XDz6/W+lhTBcBxNgAkzAFwjM/2szZAl6v+vUrjE8MkzMwM4dLEkpmTj2ZqgZXkWouS9mLAMrRwEUYlaSGY0Bb01KSnd61d1pBQD10WElQvFfJsAEmAATqJwA2QB8/s2SyjNeluOeO/rA0IF1L7vq2Y+PP9QHSDkRSWfOFsD3s1aJFOG8lxKoVhRSfOOll8Q/OaUAxMWl+2N4q9vEm+USTIAJMAHfJjBr3jo4nH1aDIJkhkceHgK9u0aJlXNR7vvu6gp0SkE0Tf9umXB4ZNE2vD2/JMM9zvbRKZ/90c263AAgOS2Es53g8sYlQAFDqlYJgvAaIVC3dg38Gwq032k2m1G3BLDZlFtLG5cCS+6LBCg64OEjp6FP93ih7kuSBbp3bQ179h+HPfuOCZXVKjNF+3vwnm7w0L3dhas8gkrP6Anf4/I//98WhndJAalBdGy3L7L3LRLUIv+rxPLfWzXvTGj9j7/SnJiAAgKxDSKgPfo2b9I4yhEqNBajnVUWM/zI0TNAAVQoWMjmrYeAvIZl55xR0BpnYQL6J/DXkq2wbMUW6NyhhZCwJrMfTEofBG9MmQ9f4tM0+dN3VwoJDnAYJIoqLiXyvfTmHDh/vrjkI/9VT8Bktzp8AkxUW4Vqk9L45GeroyZ6BBsOUNs4l/NuAmazCZ2CXAV98QmnAx4PqolP91okMp5aitbDv85fDxu3HNSiSq6DCXiEQK2wXPj42TXQoOOveChbzIiuROAMPEv/wqSf4fjJ3JJLLvtLjn5eGjsAGtSvqaqNhX9vhifGfauqLBcqk8DWzMUTxLTHUtU4oQCMGy5J8oel6uK3TMBBoG7t6nDrTR3hmh4JjiV9V2LZm3UMZs1dBzN/WQXncs+7simumwloSiC29kmYMupniKpxDqDKTQC1P1ddf27eeXj34z8c/w9cYVlfrWoQPHxvDxh4fVs8iqjOdIyW/gfd+z6cPVegup9c8EoCNllqtXnJ+A1X3qn8imoFICFl7CKsvmvlTXAOXyFA8cuH3JaCvsvb4B6+uh8Jtazy8gvhl9/WwifTM9zyJKRWTi7HBIhAq8aH4Z2Rs6BqcOF/QCInYyzV+/77rOIdGRV++lUGzJq3HsjNrrOJVu3uGNgJyL8/Lf2rTaSU3DPyE8gUiIOgti1fK4fmGK9uyJjwrJp+q1IAWndJr20zWSmihXt/5dX0kMu4nEBY1WAY9UAvuOGaNh53VEKKwAef/QVffb+cDQhdPvLcgBoCXRP3wqThv0Gg/2VRASWcYOv9DBDURU21l5ShFYEFizbD/L82wdrM/UJ77uTUpyNu2fXtEe/YwtNCmR//+iw+9nfJCGn64UDmYksDgHRhq0pVCkBC6pgnQZZe07QLXJnhCJAlME36j+Lkr7eQpRRjfMLkWUDhVzkxAb0QuL7LFnj+rj/AbCrnt9qEgd7q/4aWVQmaiVxcbIPN2w7B7n05sC/rOJAHvgI0wis4XwS1apihZWwuxNQNgWrVY6Bq9cZQp05toP/bWqUPP/8L3v/0T62q43rKICBLcteNGRMzyrhV4SVVoxyfMnYlFmxXYc1806sJhIYEQvozN0DPtDjd9pMsoz/7egm889FCoeAruu0QC2ZoAnd0Xw9P3fI3Tq6VdMMSiSsB8wD8xfzqV1KrR26TbQ4p4pxcS0AC+d0NiyeOFG2lsq/iFfUlpKXXBZuVHquEy15RGV8wJIHEuHrwavotEB1ZzRDyr1izB0a/OBNOnHK9lbQhgLCQbiVAE/6jNy+BIb3XKG/XEgFQ5weAwETlZXSW82vchnvt3bmofLvviKLOELhPHAkOZWZY6otuA4jv4duKB2CvePJ339DqqqWrk5vDR28NNczkT/A6JMXC9A/vd/ge0BVMFsbrCdBSf/pdC8Umf6JizQE40Acgb6HhGNHK25sfzIdX3/6NJ393jZ4MdeK72oQDRYgrALKE51U4+SKB6/u2hsnjb4UAfyf9R3kAXu2oMPhiyn2QgKsXnJiAOwgEoZHf2yNmwQ3Jm9U1Z8+D/D13wJw5PxtmIj19Nh9GPvsVbr0tVtdnLqWagGSTbxYtbBYp0LLDc5GSRXoTy4grDiINcV7dEbh9QCcY92R/j1v5OwMmMMAPemPM8uWrd8ExNITixARcRaBayHl479GfoX0z9Y6qTpwNhvsn3wgzfjsDGzZlOQLukOtsvSYyNHzg8Wmwaav6Puu1b4aQS5JrH81a/LaIrEJL+YmpY+/H1Z0PRBrgvMYnQA59JqL3Ly1jkZPTnk34g0FufvcfOOEIDFJQUOSAReeNq4QGXnAX3KAWxDWtDQE4eWuVTp7Kg7sfmgpZh05qVSXXwwQuEogOPwcfPPoTNIg6dfGa6JtDx6vCg2/eCPuPhl0sSmfyH3uwN1zbK1FTK/2LDah8k5dXCFM++xO+/uEfPnqrkqFWxWRZartxyXjFxiZCCgAe//sNj//11UpYrkf/BCjM57uv3gkWi9BiUZkdowl3zu/rYck/O2DrjiOKLfP9/SyQ0LIedE9pDtf0TNTkyOHBw6fgrgensmFgmSPFF9USaFT7BEx59BeIrK5+hWnX4XCc/G+AnFNlu85OSmwAzz56LTRpFKVWTE3K0V7/vD82wuT358Gx4+r7q4kwXImDgAzSixsXj39eKQ7FCkBCrydDoCDwOFYcqLRyzmdsAlER1WDGpw8BOfpxJi1dsdPhnWz1+n3OVOMoS4oIHT0cNjgVGjfE41JOpH9W74YHn5xmmP1VJ7rKRd1AID42G9595BcIw+V/tWn19row6r1+kFtQ8VI/ndNP7dwUht2Z6na7FrLqJyWezvZv3XFYbVe5nGsIrMXYAElKq1asAMSnjLleAgndVHHyBQLk/evTd+6FVi3xZInKRHuCL70xxyV7gvQDSEGGnhjR16kgQ++h//SpXyxS2UMuxgQuECDvfq+hd7+Ay737CQD6c10jePbjPlBYJGZk275NLJCBbveuLSAosGLFQUCcK7JSFM7fFmTCT3NW8/bZFXR0c0EGs6V+5qJ0RYYYihWAhJQxH+Hpv2G66SYL4lICDw/rDsPvSlPVRlGxFd7EMKXf/LhC8TK/qoawEDkkempkX4dHQjV12O12uGfEJ7Aejaw4MQE1BPp13gov3L2wfO9+Cir9eWkLePGL7mCzq7evpsm/W2pzSOnYBNqhUqBJ9M2ibfDbX0fhp7l7YPX6vbxapmAsPZ0F7QDuRzuAqUrkUKoASAmpYw8AnjVUUinnMTaB2Jha8N2nD4Ofn/i+/wHc53/q+RluXxrs16cVjHuivypjwR27s+HWYVPYgMnYX1uPSK/Yu18F0n06ty289aPz/v8vbyK2QQSQ0y4K3Uuv+nXDgfz8hwRb0KanlFGtPR/Ajk6yrBjdvXgnQBG+CrcBFCzDa0fhobdugKWbYi6vnj/rl8As3Aa4Xol4ihSA+ORxSRj6d7WSCjmP8Ql89OY9QMuKomnL9sPw8NNfAFnZeyLFt6gL704arMpm4XX0WPbld/iDx4kJKCBA3v0eG7AY7u61VkHusrPY7RK8/E0afLdIO7//Zbd06dUOzbNg6hNz8DB3CIDt9KU3y/j04pfd4YeMlmXc4Us6JZB31mypuW9ReqXGKIrWm9DPMLqk4uQLBMjATs3kv3HLQRj26Kcem/xpbEiG4Y9+pire+INDu2lyusAXviO+3kc/iw1eHjbXqcm/2GqGZz7q4/bJn8buyImqAHKxosmf8kdVZxfaxMFAKaSK1ZqsRF5FCgA6/u2ppDLOY2wCZFh3L1oVi6asgyfgkdHTgc4Dezpt35WNqxBfOiKdichCvgco7jknJlARAfLu99bDs6Fv+x0VZavwXn6hH4x8pz/MX92kwnyuupl9sgrgCT7FKSr8rOK8nFEfBEySpGjOrlQBcBz/A+ioj26xFK4kQMeKmjepLdREXn4hjHhmukef/C8XOHPzAXgZTx+Ipttv7uhwQCRajvP7BgHy7vfhEz9Cl5b7VXeYvPvdM2kALN+i/nSN6sb/LViEqw8nzyk/2htdg1cAnGXu7vIYHriXkjYrVQBMBf5pWFGAkso4j7EJDL09RbgD6a/+7PDmJ1zQxQV+mbsOZs9bL9QKnSgY0J+jXAtB85HMtfEp+Itnv4PEWDSUU5nIu9+QVwfCtiyM9OfhRKsASlNkDXbyo5SVbvLJaP+Zlh5VmTyVKgB22aRoKaGyhvi+vgmQhXAietsTSfP/2gT00mt6+a05cFzQ5/+N17bRa3dYLg8RIO9+nz/zvVOufXceqgl34+SflfOfa18PdcfR7GGyA1CYotCrIRk9cjIUAclkt3WrTOJKFQDc/+9RWSV83/gE+vdpLeRfPB/99pPlvJ4T2SS8+eF8IRFj6tWEuGZ1hMpwZu8lkIDe/T59+nunXPuSdz968j92umzXvp6gl31CuSz+aPRYIxSPCnIyFAGTbK/04b1CBSChczqtVbUwVK9ZWGECZPx3HQYYEUnfopOfo8f0bxz06/wNsGcfxlYXSKIsBKrmrAYikJa4Bz5+4genXPuSd7+H3rq+Ute+7saSfUr5CgDJFoUBjjgZiwDGBehemcQVKgCyqbgrVsCLP5VRNPj9WIy4Fx2lfGmysLAYphvkzDz5Lf/4ywyhEUru1FQoP2f2PgLXd94C//fQr0659p3xVyI88cG1UFhs0R2gwwI2ACQ8bQNwMhyBeq07j6nQg1OFCoAJ400YrssssDAB0XP/CxZtNlQUvd/RTuHUaeXOierXqSGkEAkD5wK6JjC072p4YcgCp1z7kne/l75OQ9e5+nx+yj6h3AiQBis6nE8C6PpLW45w6Fm6wjm8QgUAlxAqLFxOm3zZYATat24oJPFsDOlrpGS12mDen2LGiqJMjMSDZS2bABm6PTFoMYy6aalqozea8CdMv9olrn3Lllrd1SPCKwD63+5TR8K7S8mVPMSXqwDEdUqvgWjY/6N3fz8cvUtAf+FK05mzBbBy7R6l2XWTb+EiMQVAhIluOsmCqCZA3v1eGTYP7uq5VnUddL7+mY/6wsy/E1TX4a6Cp84FwXmBqINRvALgrqHRuB2JtvHLTeUqACZLMR0KL/d+uTXyDUMRCAkJgJrhypcDjRoRbAM6Byo4X6R4bBrgaQBOvkEgOKAY3h4xG/q03666w+Td75G3ybvfVarrcHdBEV8AbAPg7tHRrL2rWndJL9e7W7kTvARSF81E4Ip0S0B0olu7Yb9u+1KRYMXFNti09VBFWS65R9HTOHk/gTDy7vf4j9A5Tv33+vjZkAve/bbWNxQwkW2AaD4FYKixLS2sVSoudy4vVwHA0L/s/rc0RS99H4MOgETSbsEjdSJ1uzqviOy0KkLxATh5LwGHd7/RM4DO+qtNB49Vg3teGaAL736ifXAEBVJYKLxqHpA/AE7GI4AP8x3Kk7pMBSAtLd2Ch//YJVp51LzoerVqyn2CU7f3Hzhu2N7vyxKTvVrVIMP2lQWvmEBj9O437ZmZEBN5uuKMFdzdsj8CBr8yCLKOKT9CW0F1br+VfUq5MyAykIzgqIBuHyNNGpTKf5gvUwE4aSsiKxYMFs3J2wmIPuWeOKX8OJ3e2J0UlD04iFcA9DaGWsjTtslBmIZ+/Z2Z0FZtrwfDJt8MJzG4j1HTEYxNIJKiOCaACC495U2Ki0v3L0ugMhUAtP0rd8mgrEr4mnEJhASX+b0os0N2ux3ICZBRUz5GLhRJoWggycm7CFzdag+8P+oXCA1SbhB6OYE/1zaCh9/qD3kFyv/vXF6HHj4fOal8BYDkjeKogHoYNjUyBPrVtJXp6rUcBQBYAVCD2YBl/CxmxVKTIZ2RU1GxVUh8Pz/lbIQq5sweIUDe/SY/6Jx3v2/Ju9+H+vTuJwpV1B1wdA32BSDKWC/5Zbtcpk1feT4q2+tFcJbDtQQKzit/ovf3t4DJZELvZnbXCuWi2kWX9CngESfvIEDe/cjBjzOJvPu99WO5BtXOVO2Rp7k9/gAAQABJREFUstm4AkCOi0wmWVH7vAKgCJMuM+Evdplz+hUKQEKvJ0OgAJroshcslOYE8gSWxSloEG0ZnMs9r7kc7qiQfB6IpPx8VgBEeOkxr8O738AMGNxznWrxaJKc+NXV8H1GvOo69FiwGB0XnTwXDDWrKbPriarOKwB6HEclMqENZ+uy8l2xBWA/H0B7Bbz2WRYtL7wmogBQ92sLBA3SGy5R2XPzjano6I27p+Qh736v3jfXqcmfvPs9PbWv103+JWNyWCAmAHsDLKFmyL/NkpLSr7BYvUIBwDODZWoKhuwyC10pAdGQvjEG9pAn4tyH7B1ETw1UCpszuI0Aefd7Z+Qs6N1uh+o2z+UHwANv3AgL1hjHu59oZ7NPKj8JwDYAonR1ld9sDS5ueblEV2wBSHZcKsD1Ak6+QUD0bHzzJtEwH6PrGTE1vypasdgHDp8Em82Ytg5lddKCxp51a1eHqIhqEBzkD0GB+Aryg6pVghzvyU0ybXk4/qLtA23znD1XgH4fToDoKlFZ7bvzWniVfHjv0Z+hef1jqpsl734PvXU9bM+qpboOIxQUOQkQEljsOD2Ra/DTD0YYF5fIKDke7leWrvsKBQAnf14BKE3Iy98fOnIK6GlXqcV7u9axhiQSXj0UGsYo/zEXVYz0BCUat2natWoIjRpGAK16NMRXnejqQEqAmpRz7CzsQwdQxGQvvjZsyoKtO47o0hi0Ts2z8MFjP0H9CPUOfsi734Nv3GBYBz8iYyziDZDqpVWAnYfYTbYIY73kRdvtK+b2SxSApKThfmgTHqcXgVkO1xOgp9y9WcegSaMoRY21aFobwqoGw+mz+Yry6yVT5w6NMcSr8qWt3Xtz9CJ6pXLUqB4CbXHC75DUCNok1IfYBhGVlhHJEFGrKtCrfZv/lD86IZGJAZZWrNkN/6zeDdt2kkKgzJpcpG2RvOTdbwo++Tvj4GfzvggY8c71hnbwI8JMJCAQ1Ut2AKwAiBDWT178+Wt1uTSXKAD24HDa7BIzlb68Rv5sOAJr1u9TrACYzSbo3b0lzPjpkpUk3ff52p5l+sEoV26KeqjnFBDgB107N4V+vVtBcserHMcz3SkvbSN0bNvI8Rp1P0B2zhn4bUEm/PTrGsg6eMKdojjaatv0ILz18GynHPys3FYPHn3/OsM7+BGBL7IFQPXySQARurrLSw/39BR0UVO/RAGwgbmF7kRmgVxOYOW6vXDbzWX6iSiz7ev7tjGUAkBPrx2S/nt6LbNTpS6Sw6B1G7NKXdHHW1rB6Ij96NenNXRPbQGBgX76EAylINuCoXekwD23JwOFXp7z+3qYu3Aj5Oa5/iRFt9a74ZX75kGAn5ijp9Lw/ljXGEZ/1BsKiy/5SSydxSvfi24BsC8AQ38NQuOS0+ttXpJ+8cftkm+7BHILmS0ADT3CaoRfg0+75NyHnPwoSXHN6uCScwNYjSsHRkh3DeqsuG/Unw2bDujK5bHJJEFKp6bwwJCrgbZg9JxISWnVsr7j9diDveGX39bCJ18thuMnzrlE7BuSN8P/Bv8JZpN6g81v0LvfpG+7OpziuERIHVd6Ji8Q8s77ARn4KUnRHA9ACSbd5jGDlR7yLyoAl/zi4+TPKwC6HTrXCXbmbAGsWCu25H3fXWmuE0jDmquHhcCA69sJ1bhgkT5OOZDRXr8+reDHL0bC2y/fofvJ/3LIFGjq9gGdYM43j8Izj1wDkbgSo2Ui734v3L1Q9eQv40LoB7M6witfp/nk5F8yFkdPVil5W+lfDghUKSJdZ5BMl9r4XaIAoOSsAOh6+Fwn3Ox5Yp7SaP83rUsz1wmkUc2j7u/pOOamtDo6EfH7n55XAOiJ/+cvH4EJz92MVvzKTy8o7ac789GRQ4ci8O1jIDoeZclJrmvH3vmXU659ybvfhOndYMpsDntyhBWAsr5mXnlNtkPz0h27qACkpaXTdgC7AC5Nx4fe/5mxVfi89zOjrnWcKdcrJlqKJnsFkbR4+XY4fcZzJxzIXmHimJvh3VfvhHp1aoiIrvu8/n4WtBNIhVlfjXKsbKgR2N/h3W8eDOyaqaa4o4y3e/cTBXNEwBlQZPVcxbEDROXg/G4gUN4KALrMaIDN8wkAN4yBHpsgBzCz5oqtApBr3ece66fH7kCV0ECYOHYA/lgpP/pHHZnx80qP9IeW+8mIjibH69Cy35sTKTm0skFKDjknUprIu9/bj8yCXm2d8+53//95t3c/pTxL8lFQIKXJYrZDeNU8pdk5n94IyNC0tEgXVwDMVmvj0jf4ve8R+PybJQ6nQCI9pz3qm/u1FSni8rw06b/47I1CkwsJtXHLQceZdpcLeFkDZEH/ydtDcXm8l9B2xWXVGO4jbXPM/GwEKDmiWRMnnc+engmdmmep7ufxMyFw7+s3w9qddVTX4Y0FRVYAqP/RNXK9EYOv9Kl6XKf0i0uLFxUAWZJYAfCVr0A5/aSz3LMEbQGoqrFP9INueCxNL+mJh/uokmfqF4vc3oWuaEfx3acPO6zm3d64DhokfwIvjRvg2PYo71gjeff77JnvoZkTrn0P5FSDIZMGwvYDxrancMWQZZ9QvgJA7bMhoCtGwX11WizFF+d6S0mzuFDaqOQ9//VdAh/hJHhNzwShJ1E6PvgyLrc/NvZrWLZyl0fhjRjWA+4c2FlYhvV47n/xcvVLy6INkutleuK/c2AnIQ+Fou3Q1s6efcf+deN7zOHbn9w/X+73/0J8AD+HTUcobp+Qd0EyPqTgT+ROuBF6F6Rrrkq07dEUYzU89b8ZDs+UJe1cVec4evf7BWqFqX/qJO9+D799A5w6F1RSLf8tReDwCbHTGVHVXXOks5RI/NaFBOySiRQAx17nRQUAnQPRRU4+TuDI0TMwddoix+QkgoKe3t555U7438s/wa8LNogU1SQveSgke4QB/cW3I8gd8oTJs0Cmc2FuSKEhgfAWHusjXwpaJ3JilLn5IKxatwdWrtkDG7ceVLStQwF/Lg/6s+SfnZeIF4uxFNq1aQgUD6Jd64YQVi34kvvOfrgqNhK+mno/PDH2G1iO7oXbNT2A3v3mQEhQkeqqV2ytD4+Rdz88686pbAI5p0MdxyDpdIWSFBXOCoASTnrNY5LtF+f6/xQAGbcAJGVfAL12jOXShsC0b5dC3x4Jit0Dl7RKhmy0nNsmsQG8+tavQJOROxIF+qF26WiimvTV98th556jaooKlyFZ33/9LmgmEJlQSSNbth92eN8j5ctVpxj27D8G9CI30GRnkYinLK7r1cqxYkQrCFok8h3wzquD4dtvpsCgNu855d3vt5VNYdynvcBqu7jTqYWIXlcH8Tl2JhQiFT7ZRyvM53WgvKRDuN1/8YeyJDyYFBmT+hr27z+FwEs6y90QJ0BPwjSh9EeXs/RkLZrIWx3tbW/flQ1HMZKcqxJ5nSMjxDdfuh3o6VFNognt2RdmgtVqU1NcqAwd6/vk7XsxWI82+9AUsvfLGUth3Ms/wmdfL3YYMZ4vVObRTUjwMjLTYkk2rhZlLNsO3/64Avaj///6dcI12Sag71xiYlv8MToJcH51Ga1XfumbPxNh/JfdwWYX//5WXrv35eiRtBP39pVts+QX+sEPi+O9D4Lv9Cj3aFbGp9RdhwIQl5YehcsCz/pO/7mnlRE4dvwc5OKycHIHig8lnmrWCIUbr20D7RMkyD58AA7lqHfVWlbrbRJiHE/9d6CnOXI0oyadP18M9z/xOeQcd52SUiIXRVv8+K2hDp/5JdfU/j11Og8++uJvePbFmUDL9GfPud7ffkWykvOk7RgNcOasVQ6lr17tGhBRU2xf+cr60SoppCeGLsGfqPyMK2+Xc4UUkw9nd4Q3f0jGLR2xI6DlVOkTlzs1PwCN6ygL4mTBrYJp85N8gouXdlJCBeAN6ptDAagTk9Ic/+Pc56Wd5W6pJEDH4ho3jHQYgKmpgp7Qa9duCP2uSYabuhc7lID9h3Lxh1lNbeikwt8CPbrGwXOPXgcP3dsdoiPD1FX0b6kXJv3ilmN/dNb9Y3zyJ6XImUQKy5TP/oKnX/gOVqHrZpp49ZRoXPfiisoPs1fD5m2HoWXzOlANQ0c7lYK7oHkSKjgF/1RajcO731fd4YsFbSrNyxkuJRDX4Ci0vurwpRfL+RToXwyf/d4WbLy1Ug4h3V8ObR7b7aV9+xbZHUv+uORbT/cis4AeITD2pR+gVngVaBVfX337kgUiY/rCGy8D5Bw7DYv/2QUr16KBGioYR46eRgOksjUCsimoj8vm1DbFuu+CqxHk4EeLREf+1Bx5FG2bYhG8N+kupyd/Wmp/Be0qyILfCIk8Ki5ftQtuuaE9jBzeQ/UqjaOvtdIBbPh0euaLcrt+vsgCT314DWRkNiw3D98on8DRU8qVU9TrIRJPZWTlOKeAly8N33ExAfNxe3E0tnHgggIAwAqAi4kbtXp66hz57HT47N17HasBzvYjolaYw3FQifOgwiIrHDh0Ai3QiyC/oMgRi5IMwWiipydnUgK0TvSE+v4nf2pd7RX1hYQEwBQ0+KNjdGrTyVN58MKkn2HR0m1qq/BYObKrIAPLv5dtgxeevcmJUw8047yJSgD6K82de0V/KKLdI+/2g/W7al9xjy8oIyDsDCj8LCsAytDqNRfN+QcuWMjYWQHQ6yjpQa6z5wrggSemwe69OZqLQ8v6tM2QGFcPOqEVP1nyx7eo65g0XTH5U5z6CZNnu/zIHxmyvTHhdmjeRP2ktHrdXhg49D1DTv6lvygHD5+C+x79zHG8tLzVntL5y3yPq0gQ/TlA4KXHPI+eqgL3TBrAk3+Z0JRfPHKiivLMmDMKYwJwMi4Bk2xyLOleUAAkYN+Yxh1Lt0hORoF3P/wRrM3c75b2XNHI1/g0Shbzdru2BollyUoOiTokxZZ1q9JrdArj068Ww32PfQ7HT3jHmWti/t4nf8Dwxz5T3ycTOvKp8yVaLoU7GO7Nrg53vzIQdh++8LlSsJyhXAIiEQGpEvYFUC5KY9yQ7HVJ0AsKAID6xxRjdJel1IAAHTujlYD5f23SoDb3VUGOfia9/Ru8ii/VT6AC4pKtwpDbkgVK/JeVfCc8nf4dvPXhfLcoKv+17J53q3BV49b7pqj3u2DBZ5XoD2HjnmgY8sogEJ243NNL47VyLj8A8gqUn6bhFQDjjXFpiWXZRDYAFxUAdYeoS9fI732CQCGeM3/q+RlAxoFkH6D3RH4I7h31qWMv2h2ykqOfF0ffJByFkGQjG4hHnpluOAVLlCutJt37yCewflOWaNEL+UN6waIDb8Bp3PvnpB2BI7idojRFow0AJ+MSMIHsmPNLVgBYATDuWHpE8tnz1sOQER9BYe4Oj7SvpNE/MrbAoHveg3Vu2ragmAiTXrhFlcX/8ZO5MAS3WMgFri+kM2fRruTxaeiueLuq7j44tDckoN0IJ+0IiNgBRLINgHbgPVGTLEdQs6bGfUcG4N9qnpCB2zQ2gep+/0DA4Y54tu8ZALt+9qrJ6GwEPkk/jj7lT5/NdxvkW25sr8rSPTfvPDz01BcOJzpuE1YHDVGgohHPfAs5h8VjR5CB6ITnbgJ/P8dBJh30xvgiHBEIClSbVwAMPeDoDvjCCkBgXlXSBPCcDScmIEbg7l5r0UkL+vs/NQU9wLQDOP0Zfi4Uq0TD3OQh7+2pC+Cmu9/ByH7qnizVikNL/w+jcyLRRFsqI1FZIU96vpjoGOgtD/wE+WfEjzlSpMI7B3X2RWwu6XP2SeW+AAL9rVAtBB00cTImARkuKABgu/DGmL1gqT1FoEnd49Cheak9XCt6ETs6CmBPAioE7+KKgPuOCdE+/+vvzoW+g/4PPpmeATSpujs98XAfYSdFZJz4JNpTGPlkhRacT562wU33/gJnz4gHZBp+d1eIjmKHNFqMQ/ZJMffNfBJAC+oeqkOCmgMHDjSb8B+fofHQGBi52SF9VmMc+zJ6YMUn2ZznAHbFAhy6BeDcT7gqoP2ETJM8nUZ4ZPRXOPFPhi+/Wwa0pOyJRHEJrumJio9geuejhY5gOoLFvDL7kZxcGDpqprDyRnEgnh7R1yuZuLtTh08qNwIk2TgqoLtHSNP2zHuOxVW3yLKtRtm/5Jo2xpV5EQEKG9q77c6Ke0T+28lrG73M1WHNwUGw48TN0L5NLDSMqYlW8iX2pxVXU3KX/N5vw2VyciFMr3Ubs4Qni5K6tPxLYXHHPNEP/wuVpQ2V3xJtUXz+zZLyM/jgHQrJ/Pp782DM4/2Eet8ttQV0atfY4XpYqCBnvoRAtqgzoBr6sfu5pCP8QREB/IUOs+AvF6+fKcLFmUoIDO6xDixmAWc6tlPw2sfnYGvWr44q/PzMUA9Dx5KL3LrR1YFc/wYF+eHfC8e6yCiOjsTl5RXC/gPHHa+DRyhmgECbJcK6+G+3lBbCLpJpy2LsSz+63Buhi7vukuq/+3kltKYVlR5iKyoPDu3GCoCTI3L0dKgjfLLZpOz/GZ8EcBK4h4tLxcWoAKAW4GE5uHkDEQgJKoIbUzYLSfzPlvo4+de6WIae5vfsy3G8Ll406Jthg1OFJCcvf89N+B5On3Hf6QQhAXWQeSK6am7XqiHUqql8SZpcSbdt1QBWr9+ngx4YUwSKpphzOgSiFT7Zsy8AY45zidS4ahlmwpVLPgJYQoT/VkpgUNeNEIpKgEjy1vCsyR2vEvb1PxtjEZCPf07lE6AVoNffw60jwTRscFfBEpz9cgIi2wDRNdxn6Hu5nPxZCwJydROuqvIKgBYsfaAOWva/9WqxM9u70E/7ss0xXkln2J1iEw4FVXpjyu9eyULrTs37YyMsXVGJnclljZIdQFyzOpdd5Y8iBEQMASMVrhSItM953UiAVwDcCNsLmrqm/XaIEvxPP21eEu51e0HnL+tCy+Z1HXvVl12u8CP5KKDwvpyUEZj0zm9A20Ui6a5buohk57yXERA5ChgZlgtK7QUua4Y/6oAAmi2HkSm2cu8POhCaRfAcgTvR+E8k5ZwKhbmrmogUMUzefn1aCclK3gl/nLNGqIyvZ96XdRx+mbtWCMPVKc2F/TEINeDlmY+cUD4dmEwy1ApjhdawXwkJQkgBCDZsB1hwtxHo0nI/NK1/TKi9r/9sBcVWs1AZI2SmUwx9usULifrJ9L+BHP9wEiNAYZFFuAX4W6BnWpxYI5z7IgGRFQAqJLoieLEhfuNxApIsBZECgEG2OTGBigk43P5WnOWSu3nn/eD7jJaXXPOWDymdmkJYNeV6Mx37I+M/TuIEDh05Bb8tyBQqeF1vsdUZocq9PLNIQCBCwQqAcb8QdpCD0I0JrwAYdwjdIzm5/W3fLEuosR8WxwPFGPfG1K9XolC3pqHDH9G9bKEGvDwzuXem45NKE3lmrIP+JTiJEzgi6A6YTwKIM9ZLCUmGYNzFYQVALwOiVznu6VuO299yBLbaTPD1Qu98CgsO8gdaAVCaKNgNP/0rpVV2vr1Zx4TiJZBXxl5Xe+fqU9mEtLtKK3ciijufBNCOvdtrklABwEZ5C8Dt5I3TILn97ZUkdhzrdzT8OyLoV9woRNokxgDZAChNfy/dBnT8j5NzBOYIbqF0SIp1rkEfLn1YICywUqdBPoxTt13H1X+HDYB3rtPqFruxBBvcU9DtL3bviwWtjdVJAWnbtRabWGbN471/AbzlZv0dAz+JRHlsHR8D/n7k6JSTKAGRsMBR+IDAyZgEZLIBQNH9jCk+S+1qAg63v8libn+Xb60P27IiXC2ax+pv17qh4rbpzP+ylWKrJ4or97GMFBfi72XbFfc6MNAP4lvUVZyfM/5HQMQOgEMC/8fNeO8kMykAytczjddDltgJArekZYq7/f29jRMt6rtoldBAdP0brVjI5at2CR1hU1yxj2ZcIugZkCJPchInkC2wfRcWch6CA4rFG+ESnicgy6wAeH4U9CnBBbe/Ysevdh6qCcu3xOizQxpI1SaxgVAY45Xr9mjQKldRQoDCQIuktgKrNSL1enveIyeVOwMiFhwV0KjfCMnCKwBGHTsXy31th234H1tsf2/a/DZe6fa3BPVVsZElbxX9XblGbMJSVKkPZzqSfRrIo6LSJDpeSuv19nzZAkaAxIJ9ARjzG4GHZcxkJcNbAMYcP5dKfUcPMeM1cvs7b6V3uv0tAd2gXs2St5X+JQc2h3HC4qQtAVoFqFs7SVGl1aoGORw2cehlRbguZipzBcBSG8D/KgALKsGmEAAJTcfs6AbYdgLimlSBVTvMYLWKxW242CC/8QgBdAFgYQXAI+j13Why/D5oWk/M7e9Xf3in29/SI9WgvnIFYPO2Q6WL8nuNCGzZfghuuk6ZAkBN0pit35ilUeu+Uc2xM6FgtQeDpVpfjBRzDXqKScGpIqrczo98HOC+h4ph3cb9sHTlLpi7MBOOnxBbPSy3cr7hSgIOBcCVDXDdBiSgxu3vD4u93/GKiAJAgWw4aU9AlCsrAGJjULNGKAzGiIqmq57GSb+q4sJ06oLCMdPr8Qd7waIl2+Bj9ODIirBihJ7IKNMKAK3b8IFZT+DXYZv05N+u6QEhyb7P8F63vyUgwquHCkWZE52oStrhvxUT2HdATLES2bapuGXvvks+E+65IwXuxVdAgHMnw00mE3RLbeF4Lfx7M7z2zlzIzjnj3QCN2TsrGQHyxo0xB88lUt/TR9zt7ze4/O/tKTJC+dMQsRCdqLydn1b9O34iF/LyCxVXFxVRTXFeX81IxpIzPn0IHhrazenJ/3KGPbrGwU9fPgKi4bMvr4c/a08APQGi03YAq/ZVc41GJEBW/z2TdgmJToZ/3ur2tzSI4GAxh5mHBKzVS7fD7ysmQEGBRIwrQwTHreLWve9ubwxr/dWH90NsTC2XdY7iZ0x47mYY92R/oWO0LhOIK3YQQCNAKwUD4hUA/kI4CNzVay3Q+X+R9OVC73X7W5qD6ESSV6D8KbV0O/y+cgLkFVBpElXclNbrDfkGXt8OXvnfQM2f+stjM6B/O5g8/lahWBrl1cXXNSAgyzYKB8wKgAYsjV6Fw+1vly1C3Vi+xbvd/paGEYJPMUpTUbGVw/8qhaUin8gWQEiw8nFTIYphi1zbMxGee6wfPpHjDODG1C2lOUwcc7Pb23VjFw3TFI68wwaA/TgaZshcJyi5/SUlQCRNm6f8OJZIvXrMK/IkmZ8vxlGP/dWzTGIKgNjWjZ77rZVsrRNi4MXRN3psEqZth4eGdteqO1yPSgKy6YICcF5leS7mJQTUuv39Z1t9LyFQeTeCBFYA8gtYAaicqPocIgqWiOKmXiLjlAyrGgyvPj8IPcB41v/bvXemOo4MGoecF0pqlwrICJCDlXvh2Ip06dqO4m5/P/89yavd/l7Oz2ZTbhthcYTYuLwG/qwVAYvDg7my2oqLeYezNKnHHuwNkbXETrSULq/Ve9p6eP7pGyAokLdotGIqWg+6AnYoAPmiBTm/9xDALwHc2WOdUIfI7e/vq9AtqA8lXnbWz2CHhChf1s8XODKonx66RhIKj3z9Nfox2o2OrAa0EsDJMwTwAEA+OQBiBcAz/HXRanLLfdCkrphzlelo+V9s9ewSorvhiUwktF0goWZFR9Y4aU9A5ESGiOKmvaT6qvH+IVc7vpdqpNq19ygsXLQZNm/ZAQeO5ENegc2xktC0cTRcndwMOre/SpVNwe0DOsKX3y2FM2d5IVrNuDhVRr6gADB5pygau/DdvdcKdSCvwB98we3v5VBEJhJa3gxEb2oF59kW4HKOWnwWUgDYHsOBvFHDCEjuIL5qRxEYJ78/Dxb+veUKhTbn2FnYuOUgfD9rFZAzoSdH9IWObRsJDTGN5cDr28PHX/4tVI4zO09Ahgs2ALwC4DxLQ9bQIiZH2O3vTHT7m4tKgK8lEcMzYlM9LNjXELmtv2HVlLMVWblxWwc80FD/Pq2Fn/5Xr98Ht943BRbgk39lq1k79xyFB5+cBh99IT6R9+/j/Z5EPTDklTZpkuwFdAqUwzZViso7M4gG/bGi48hv/0z0ThiV9Ep0iTJGIHRwJU3z7VIEAvwtQHvHSpPouCmt12j56OidSNqy/TCMePpLEAmlbLfL8O7HC+GzrxeLNAX0f6XpVdFCZTiz8wTsIJ0zgQwctNx5loarIToc3f623Skk99wVTX3C7W9ZUA4eOQkiJwFEIgeW1R5fK5tAvTrhuNdMh5eUpf2CwYOU1WqsXPXrhgspTefPF8PjY79WvYX19tQFsC5zvxCkDm1ihfJzZg0I4NxvQWcAp1EJ4OQlBEJDAqFenRpQrWoQ0BloOpJWWGSFAtwLPX4yFw4cOuHwUje451owm5QfbSM8X/6hHwtidw8XHScjH/TEVkliBUAJJfE8olw5KiNAq5Zi/jq+mLEUjhxVH72PVgJee3euI8YAGcMqSa3j6wO1y8mNBCQ4ZcHJX/1Iu1FWbupKAvSfq0XT2tAhKRaSEhtAsya1geJ5V5Tsdjv+5z4FkUG4lH9+EZ4BwVdxVkVFHPeWbY6B7VmuCxhSqQA6yLAv65hiBaBxgwgdSOx9IogGreGojAANBQL90F7/D7NXO/3F2bztENA2QlyzOorqaiAgo6IKOVOlBMy0AgAgnQJeAqgUlp4y0FNo/76toV+vVhAdFSYkGi2f1okOxzID/n3h8k/BSoCz3+DrOwB7bpn1TZvfpszrvnSRniZTOjVV1OWWzesCxVinuACctCPQJjFGcWVWqw0OclRGqFu7umJmW3ccgewcbZ4JFy3dplgBEJFRcWc4Y8UE7HZSAGS2AagYk27uNm0c5XCc0TMtTmgftOIO4BJdUIcLr5rpAKc/ADg1BUNEoV74b9pxsCas2Cq2jFhS1pv+7kUFQGkKDPSDhLi6QJbUnLQh4Odnhla4VKw0HTh8EkgJ8PUkcmwy6+AJzXAdOHRScV2kLLPCrBiXJhklfPhHaxrTf7/0mlTLlWhNoGqVIHjmkWvg248fArLmFTGCEpLFjKsJ4c8CxGbiObYHsegFZz++5va3PGaZmw+Ud6vM6+1as2FTmWBUXkxoUU/IdeyGTWLjpVIs3RcLQJ8USpOWpyZOnc5T2qwjX1CQcjmFKubMZRKQ/f3OoBmY9ViZd/miLgj0urolzPnmMbh9QCdVnrZUdcJUDSDiVYCYBXAsvyW6/W2iqhpvK7Rrbw6cPKX8R41sMzhpR6Bdm4ZCla1at1cov7dmLixUHvA1rFqQZhhqhIUI1VVQoFxOoYo5c1kECtcvSj9jgiI4WtZdvuZZAqS1j3vyenjthVscFv0ekSawLVRrsRC6pSZ4pHm9NUoGUqvW7VEsViJaX0dFoDLFSRMCPbrGCdWzcq3ysRKq2GCZRbxY1q2t7JSLEgQiddFJJbaXUUJVszw5WJNsal5/J21s8kaZZlydr4iW/D+YfDcM6N/W+cqcrME/INihhIy6v5eTNXlH8ZVrlT9Vkkvga3qy8qTFyDfHEy7kblZp2osnNshVLScQMoQkzjXDq2iCLbWzMoNZauzQEd6J1gS60kqkCw/+ppkzZ9Lkr53lh1IBOF+ZBGrVrAKfvzsM2iQot3YusyKNLw69IwWeRjsEped6NW5eN9WJPlX2691KN7IbWZDreicKib9iDT/9lwCj46tKEymt5DbY2USxB5QeAaS22F+Ds8TFysuy5Fj5RyNAR+JtADF+LslNTnzem3QX0H8ePaY70A5hxLDuehTNbTKRlTQ9XSpNsegPQOSHUGm9vpTPYjFD3+5iKykZy7b7EqIK+7pB0HiVlH2ReAtlNf74g72FbJY2bMoqqxq+5jICMm0BACsALgMsVjH5OH//9buAjvrpOQ0b3BVuvRGPDfpwmvP7BqHeDx7UWSg/Z76UwLW4jRJeiYOr0iVOoMfLf1bvLn3Jp9/T07XIdkiV0EB45X8DwYxeRNWkOwd2huSOYobDoitrauTiMqUIXLYCcKTULX7rAQK0vJ4YV88DLYs3+dTIvsLuRcVb0W+JWfPWAXlUVJp6d2vpCHiiND/n+48ALUkPvSP1vwsK3v26YINQ3AYFVRo+y/xFm4T60KldY5gw5magBxORdP01beCJh3uLFHHYKJADIk7uIyCZ5Gxq7d/RlfDArOy+1rmlSwj07ZGABn/tLrkm+oH8b69evxf+v73rgI+iauKzd0kgjd5r6CC91wREFBBQafaKgvAhIKKCFI0ERFQQQelKUUSp0qWHJHQCJKHXEGpCCyUhkNztN7MaJCFl395en8fvyO3ue/Pm/ffu3uy8ef/ZsecU5ug+r6yp3UhMViYqItgoVtQfKUGLIWVweejWoRzkL6Q9xoBcsvSE0LPXT3Dnboqoqk5fn56miOCnicoEJsTb0OvVQPhi/HKnH7utB/B0m1ogyv+/ev1BW6vp8P2t+vsg0JO5SHkWf5fKIetoyHcr4djJnCdoWjIY0Ludpt8xul+5pRsW0Zvr5o4AbmhSsjUZqWqJ8q3JX9M592ZcQ28E6Ivz07dvQF4Bso5HdUjGJD+/L90Jw75cDAuX7oKDMXFK0ho6n/6lMuHT6u07KUDr1+QanfPHfrh7dQdUCwDwyVcOxalL2PFov+Qm9PXJC+G7Tjx62m3eI4sWtA2soXq8lSsWg7X4ZEr3gYs6BOjpf9yoHkLu/xOnr8C0OVvVdeBGtSgRWKN6FZAGXD0tMMFTrGg+6N6lEVRXliYluHUrGei3hYqPtxfURWbG13o2h5DPuiFLo/hDBXEUDA9ZojnzoKII/yeOgCx9lxAXdlnxAJglOU5iB4A4iDq0GNy3PRTI56NJ0pawIzDuhzVC63vpHf22+j78tnojPsWehs8/eV51kpv09vS35/ONYMW6/UCJP9ytbAw9jK7ODqqDpchr8umAZ2HgZwvcDSrN4yWvWNVKYjExi1fs1dyfqzecMXcrNK4vRqZEmJAh1jboCeVFx5QZM81kEmJlpHZZlcUr98L1m1nnH8mqPp/TBwHJbFRoMv+N8qAlAC62RoAixCmpj2ihJ/vp+JTz0ag/NE3+j/ZHwTev9pkOWoJwyLXtrvwA91IewIIlOx+FMtf3rVtWhzb44pI7AmQU9xfccUJPuSvWHchduJvWIGbETdsOWzx6ysngndfLYjnEqjljbqjFcliAMAIp0TuCla1MigFgNPxjDQiL4QYWIfD+W22EtspQZ+QyGzxiIbo5tzx08VukBDa+fece9Pt4Pvy1Zr+wKKK7dZbgReHB5dLg9yW7hGMghn3YWZcfz1xUc/rLQz5A74qgZ2zu7+HK98PpB2/FAXwzeS3oyfdviapfo/eSfnu42BwBeuBXfP6KAYCcwIl4xLRZNrwPtBb3zJM1hXqkJ/8vxv8FWyOOCrVTU5mypn357QqI0LCm/zYGuLljuZuUAn8u3y009JLF88OAPu2E2rhbZYpAFyVQosQzS1Zansfe1bGOxwDWz8ct0+3hQSteS1ftg/VbYrQ253aWIfDQ4/9wo6ckAVNnWQaqUGti2xLN6jfr122wbhNm6rNSoa1tnwYvgjOxCkeE6l6CmleFgoKJP1QLd/CKv/6542FQlFpVX+3eDJ7CNVUujyNQuKCfsv1MlHHyt8U7OZDscTizPBO6/RhMnrkpy2u2OLkPlyK+nrTGFl1xH1kgIEnyqfTTDw0AdAg8PJl+kf9aBwH6cessSBFL0f3TftliHYUekUqJQz7DqFyRfe4U4NbhqdqPSHGft4m3k2HuwgihAdP9/3JYV+GIbKFOnLCyEvWP20uLCJD+0DCvJNyC3wXjMZwQHl1V/mVBGPyyIFxXmWqExRy5AIOG/86Jf9SAZaU6uGP8IUvWQwMAuYHZALAS4JnFUlKTMqXUb8ch1/9X36/CSdk2WzVoz++y1WLxABTg5q5lDv6Q0hZLkULbKCnTo0iudhH5zli3/7tPgZYUyuNxXTt9a5ozjtteOv8wYwNMmr7BZr8rtLzY+8M5QEtnXOyHgEH6b65/aADgQ8lDq8B+qrlHz2oJZNLR2BpxDI6fUoib0k9Z/S89IZhMZtX91MfUt0Q45I6F0ph+NXGV8NApR8DEkBc1U64Kd+jADSjzJdFMixYivqLtsFy0ITAHAyff/2gu0A4KaxV6gCFvw4BhC3iZxlogC8g1yeaHD/sPDQCD/N+6gIAsrqoBgUb1A4RaLfprj1B9PSpTes4dex9+TnIVmTevJzxRvVSu9Vy1wk4kWNqwVYxulbBo1aw6zPv+SbfOskhbI4cP7iL80aAdMWMnrhRuxw0yIkBbgLu9OVkJoqTJWs9CDy5v/W8WkLdBZFlRTx1YVkYEZKPXw3i/hwaA2cND/a99Rnl8JIhApQrFVbeg6ObdkfZxzmzYIjahVRYYl2oAnKjitz+u07StqXa9NjDnG/eMoXjh6YLw/ZgemrwgM+aFCuW6d6KPks1Vpa2BId+tgNfenwEUJGipIXD6bILC8Pfye9NANBuhzQfvRh2ieXf5cGjwQ3fPQwMgOjSY6NzuuBEWdhkqucnLlCygum8i77DV2n9mpUTJgUQ52zP35+zHlCNgxNilmn486zftCVPGttc0ETorbu+9WBi+HNEPDMY8wkOg78Wc38WCL4U7ccMGxOo5CNkqn31pIvw0e7PC8qn2yf3SlUQgJsa3+s+C7m//CJSUSW1bN4TaLkOWZPnYox0/umhLvh/aYN7k0Qr8Xl8ESuA+cJHtf/bMkkXR1RTlrpaQpXQJ9YaNvqg6jjTKQ08MgaKJV2gEQYGt4LvRhWHY6MUuT2jTs0stGNC/G6ah8BS+eZTulzDiyUUYOtUNaDKfOT9UeeXz94bqVUpiRsvCULxofswB4gW08+du0n24gR7K8xgAe/JMPNCyIRfHRgBj/TJQQT5qAGB6E/mIDBIbAFa8h74+Yk87Fy7dsKI2uYu+cPGGagPA1zdv7gLdoAZFVjepVxqqVikvPFpKMDT1mzdgyOd/QCImXnG1Qlv9+rzVBvq98yQOTTwJFU36Q79cBNeus7PSVp8NYusjb6CoR9BW+nE/6hGQZUMGFrmHSwAkAid/DqdVj6WmmmQ9i5Q7dqbKvINWvtoiOja1cp2tXsmC16HQ3ZcBTImaVG+ECVsW/9IfGtQRNyA0dWijRkQW9eP4N3Dyb4s9ik/+pOa0X7YCuf+5MAKMgDgCciYPQAYDwABmNgDEMRVqIcpwZtY5KldIWaxsFtgKKLK0IaqHs9SvWPIGzPl0CRTxQU/bBXRxm7U9xVMa1p8n91ImS3pqdvbSsG4ALPr5f9CyaRXNQ7kbvxyWrlinuT03ZATcHQEPSMswx2cwAMySIcNFdwfLGuMXJSyxt1vd11f9kkUysgi6c6lS+hr8/PFSKJI/6R8YUpCb/nIvdK2laYKFDKq+6Cr/ZfK7wmlxNXVohUZ+uCz06cBnYfYP7yi55TV3cfdv8Lv1Lkz/cBnk92UiGc04ckN3RuDagfBxShbAdBAyGADRYWNiMRLwdvpF/qs/AsnJD4SE2juwrnQJ9YyFRCPsrqV6uQSY/fEyKJQv0xP/3bXIVdsPYcFvlsZSH5cC/pjdD4biRCpikGnsTrdmxA65dN4H8FqP5kKBr48poBhSbyuGVNUy12Dah3+Bn7fY9+gxmXyCEXA3BGT5sexLGQwAxEOWZIhyN1xsOd74q7eEtolVqVTClupl6Iui/4sU9stwLqeDKwnuaTvWDIiHWUOWQQG/e1nDc/tPgKtfZH1N5Vmj0QCv4kS64tdB8Eq3pg5NIUx0vnN+fA8mj3sNShTLr3KE2VS7T0sp3TMspRDePw1cAd5e2jwr2fTEpxkBF0dAeozfPbMBAGCQDrg4CnYdHi0BJFxTH8HcBAPC7FUaN6ggxFAXe/6avVS1W7/1Kl2GWR8tg3w+uXg/bkwCiB+CeqqnV85qUEWL+MOwDzvD+sVDlPgAcrE7SmnWqBLMn9YHZn7/jj4BjPTkf74zBlM+vr2sXuVLMHnASsjDRoCj3H7Ww8ERwPizg5lVfMwAwJgzNgAyo6TzsUi63ZK4t75WjTI6a6BOnGjK2rOCaYTVaeG4tRpUuQhTP1wOvmrd0YmzAC71Qj9bLsaCiiFTRD3FB6xb9BGM+KgL1K1ZVkUr/asUx2DFXq8FwvL5A2DGxLf104OWTuI64eSffZKlJtXPww/9V4GXh0n/gbFERsDVEDA/Prdn4AGg8WLCuQNG5w86duhbtz/qHDRvXFm1jj2fawyHjl5QXV+PijTB0J50tSUtzQTRmOrTXUqjqhdgysCV4JMnVWzId5bhpHYD5FK/g2RUv7ySXSdE0vLiC02UF2UkXL0hCrbvPglHjl+yGlFO6ZIFlax9HZ6qA43RQ6X7LoVb8zBu4kMccu4Te/Mn4mB8n3XwyYxnIc302PNMdrDxeUbA3RC4V9DTeDzzoB+b6tu0Cfa4YUojH7Xj+BYza+3kx/Uwc968qb1VjyI11QTPvTYJiJ3LVmVgn6fh3deDVHdHfN9v9pupur4zV2xZ6xx832+1ZvfzzTveMG7ZQPigfz8oV7qQVaCglKuRB2ORvOUsHDt1GWLPXdWU8Y2Iq4gBrlKFYtCobgVoguv7pazF+Ei7Ja6FANByiWDQ5MbIKjB0ZgcwmdkIsMoHioU6OwJ7osPHNM08iMcMAKpQJ2jkXvz+NcpcmY/1QYBoNDct+wToKVtt2RpxFD4c/rva6hbVK1OqICybPxAnuMccRNnK/ennzTATk7O4egmsHQsT+q2BPJ7aAtBu3PaBPhO7wsmLRZSI/uBPX4BnnqxlE9jIKIiNuwaX428pOdkpHoV2btzDv154r328vZDmNS/4++VRPpsBZYtYtnVPYFREOz3756kwpPO3moP7Vu6sAV/MfRo9H1n+rAlow1UZAddCAJf2Z8REjOmbeVRZ/sJLZtiNjEFsAGRGS6djcpf/vTkGXuneTLXEJ1vVgJe7NoU/lu9W3UZLRZr0x43qKTT5U+awtZj4w9VL67pn4bu+azSvOV+77Qt9JnSF05cKK1AlIcviJ1/8CWE7j8PIj54DSqlszUIBgxRPYq+YkuzGtgtTKQ8PWQLXbybDhdgu8MOAVZoMrOeaHwUTLgN8Ob8d7rTJrjc+zwi4IQKStCurURuzOlmiXGBhDP/umtU1PqcPAtdvJkEPXNsXKS2aVFbW2a2ZH2D0sK4Q2LyaiFpwICYOfv1zh1AbZ6v8TKMT8O3768DTQ1sU/5Ub/vDut90h9srjLv8TmDM9fNcJnJhLQ9HC/s4GjWZ9yfswadoGGDdpDaQTZF24lh9OoXekXcNTGFsgPovXKHcV/HFHxvZDAZr14oaMgMshYDR9lhAbcS3zuLI0AEoGtL6HX70BmSvzsX4IUDKTRvUqAAVUqS0UbEXkKjThXkE3rp6FKIoHvf80vIReBtHyzeS1cBZdy65aOjY5AePeWw8eRm2T/2Wc/HtP6A7nEwpkCxFluFu2OhLz29+ABkibmzePdb0B2SpiowuUNXHA0F9hx95Tj/UYe6UgnEEvSbuGp3FXsrgRUKfiFUDaBNh73D67Zx4bEJ9gBOyLQGJMmNdQgNDHvkxZGgBXzoXdLF4+qD/q7GNfvV2798vxifBcx/pCgyQXfZf29YCS9MToFHXvndcLvv6iJ3TvIuaRIMVPn02Ab6asdVmXa7fAQzD67Y04oTz23VF13y5dzwfvfdcDLlzNnRCH3NbkDVj990EoXNAPqlQqLsTDoEohO1eKw+ySn4UshhkYL0LpZLMrZy4XgsuIXZu6ZxCD7Gplf75h1Yu4K8AI+0+Wzr4SX2EE3AOB0Pi40b9lNdQsDQCqiAZAG/yjPXMHCeGSIwIU1U87AsoKRoKTJ6AVJlUpU7KQ4g1ISRHcivaIVnVw//jkr19TvBGPnFb9Nvibv5TAMtUNnKhij6AYGPn6Vk2uaBrmufgCitv/8o18QqMmd/iW8KOwK/K0kn9d9PMh1JmNKlPg4U+zN0HwePWfl+MXisKtpLzQqlasJiOgaY3zkPLAEw6eLmWjUXI3jIADIiDBgvhzYaFZaZatAVCifFAlbPBkVo34nH4I0N757l0aoXtZfPtStcollLbeGL199ty1h+uoarR7olopJUnLkP91gMKFtO1H37b9GEyfs1VNd05X56Uno2DEazT5a1P9LLqx30O3f0Ki9jV9ioxfg/v6t6IxQF6ayhWdzyNw8fJN5TPy+bhlcPDQedymJ7aMcii2BNy9lxdo66WW0qxGHNy44wOHY4trac5tGAGnR0A2m79JOB/++Fobjix7A6BCGyP6dd9y+tE7+ABu3b6nuM+JP11LoSUBSrX6xovNoX6dAMV1bEQPAXEHpNxPVWR7eXpAieL5FW9D104NlIm/z5ttlL3doumJ03WkLWWDPlsAd+66Xma2t9tHwqcvhWl66iR8yH1Na/7XbmkzrNIxTv9L8QHkESBDIA/GBpBHgO6poxbaFUJxKj/M2Agh362EaOSIMAmklc48rugzJUDCf42qXch8KddjWj6grZsJiX5wNK5YrvW5AiPgYgiYjB6eA6/Ehmb5Q53t6lrz5oO9kzx8iYRbfT5YF0POVsMhl/5P37wJFOXvLOWz0Yth7aZoZ1FXtZ69Ou6DQd22q66fueLxuKLQ5/uukHjXO/Ml3Y7J6KNgUIoFaYlLQZQoyBHKZVzSWofbW5ev3ge01q93oftC90dLIW6A4T93gHV7qmppzm0YAWdFIBIJgLLd0p+tB+DChV1pGAfQAUddzllH7ix6U/DXjj2noD0Swvj7OT4B48Klu2DOwghngVe1nv267IYPXtipun7mikdx8n9/YjdITLLe5E990tP0acy7sA4NsOVr9yvEPsQtQZkbidDHVoX0IIrqVesPwvfTN8CEqX/DboxbuHXnnlVU2H20HOZdSIW6mIBJtJAnoG3903AWt2Gm8zCIyuD6jICzIYAf+z/j48LWZ6d3th4AalAncNRYpOQcnl1jPq8vAkQLO/en3prX5PXVJmtpobju/9HIhRa5dLOWbN+zNPH37rRHsxKHY4tBv0ldlaA1zUIsbGjAgAWK7WjSoCIGdQYoSzwWp+N9RCda7jmLlMJRh+Jgz4GzCtUw7eW3ZaGJfOTrW4ACNLWU1DQjDJ7WGcKjA7Q05zaMgFMhgM+WXWPCx/yVndI5GgB1Az9vL4P57+wa83n9EaAf8OkT3ob8+az7FKlF853I2DZo2G9w/0GaluYO2YYmlI9f3AavtzuoWb8DJ0tB/ynPQ9I9L80yrNWQ6H3LI6VvQLkiUAFfhQv5Qz7/vArtrw/y/NN1Ygi8l/JACSIlWuDb+ARPOxFu3U6Gc+evK7s8zsZdhRtIXuUIhQiCxvRaD52aPpbbRJV69x94QP/JzyFPgH0yKKpSkisxApYjIHsaPYpFhgZnS9KSowFQs02wn9GURnEAtvMrWj5op5dQsXxRmPrdW1ASA/ccpWwJOwLDcN3f1Sb/oa+EwisY8a+1RJ4oDR9Mfh6S77s2cY9WfKzVjoyA8b3/BmJo1FJS0AjoN+kF5gnQAh63cQ4EZDgUHTGmdk7KZhsDQI2uxoY+wDiAjviWTeWcUNT52s1bybAh9BDURt72ksWzZ4/TudssxZkxP/TsX8Ng7MRVkJYmtoUrS4EOcpImkOA3N0PP1tpcyTSMnUfKwQf45E97zbnYFgEZk5WERlWEGuUSoHzxROHOidWxXYNTsPtoebiaqD4pl3BH3IARsBcCkvR7Tuv/pFaOBgBVKB4QRJN/G3rPxXYI0NoqBVdRhHe92uXswghH28+GjPoDKWr3uRTTH03+XyK73/Mtj2i+oREx5WHw1C5wP5WdY5pBtLChGVP/bj5YGepVvgKli9wWlublaUIPwknYgYbctVtsBAgDyA0cGgG0kUMSzoWdzEnJXA2AkuVap2IgQa+chPA16yBA+6n37D8DoduPQ1Uk/dEzoCsnjalfIqAZNHwBnDoTn1NVp7umrB+/swG6ND+mWXcKIBsyvTNP/poR1K8hZf/bsK8KNKhyCUoVviMsOA8aAe0anIawmApw847jxd0ID4gbMAL/IPDAbPToT178nADJ1QCoXrHt5XuyeRAKcfz9aTmN1Imv0ZP4inX7Ie7CdSWQq2AB6zyt0MRPUf601r/orz0KkZATw/aY6p4eJiWjX/vG2taNSeDGyCrw8YxOQNHkXBwDgTQ0AjYdqAzE+lesgHigoneeNGhbDw3tqEpwG6mHuTACzo4APrSHHwobPSu3ceT6KxYbG2rGOIDmKKhabsL4uvUQIK6Ak6fjYfGKvXD85GUlepsyCdLWL0sLsRGuwgQ0X3y9HH5fsguuocHhauWfyX+tshdc69jW760Kw2Z1QDpbyzHXqgO3yxoBMsg2RFaFFjXPQZH8yVlXyuGsr/cD5bOx5UAluHOPuc9ygIovOQECEsiz4uPCw3NTNcddAOmNaweN7I9ZOX9MP+a/joFAoYK+8GSrGtC4fgVojHu/i4hw+t8/CqdOHYYpv91XSIgepLrO1r7MdyePVxr80H8VNH8iLvMl1cfEIDfi5/Y8+atGzD4VC+VLhp8/XgoVS2pjIoy7WgB6fdMdAwP1oXG2Dwrcq7sjgAZA06jwsbkSm6gzAFoFV5SktNPuDqqjj59SyE4ecgxqVcW1TGMRAAMuFUi4N92MT0RmfKo3JQA8wJiQB5gXAo//3lMNhuITrSuXvP9O/s0smPyXR9SE0b8+BUQny8XxEShW8C7M+WQJlCl6S5OysZjIqdc3PeA6JhHiwgg4IQJXo8M9SgAE57ptK9clABp8QlzoTVwGeAnfFnVCMNxGZSJzaVppB1QushXg3i6AZPQAJYfie+S2T9kLcB+j3tOuILnjP3Eh8Tf9YM3u6i6LjzdO/j8OXAmUFlZrWRJWG8b81pYnf60A2qFdUooXbEVX/lO4zc/fJ8cYqCy1K+CXAs1rxmFwYVUO9MwSIT7pyAjg0//i+LiQv9ToqHoxE7NxrVIjkOvYFwGR9Ut/H9vSuNoSGT9c050xZBk0rqZ98l8UWocnf1veNB37unzDH/pgXgat2/uqlrkGMz9ahgaE635HdISbRTkQAjJIa9Sqo9oAMEtm1ULVds719EfgTrJ6OlpX/XGjcc0YvAzqVhRPGpN+R+ZtaABjFzzpUvwH6WNzl79xCQWg7/cvYHKmvJqGXL3cVfQgrQCfPKma2nMjRsAOCKR65kndqLZf1QZA9eIn0I8M19UK5nr2QeCuAB+9FveofUalvteC/veUILBaFbTzF/yyrhFMXByovlOu6bAInLxYRPEE3E7WFtlfDzMPTuq/GvJ4um6QrMPePFZMCwLbIjeNVx38otoAWLx4sQlkWK9FI25jOwSElgDyupZ7s7B/MsxCt3+1slc1A06T/w/LWmpuzw0dD4HjmKa5/w8vQFKKNsrmpsgvQEaAF/JIcGEEHBsBWchTr9oAoEFLBmmFYw+etbuTrN7dSdvjXOVHrUi+JJj18TKoUjrbxFe5fjh+WtGMJ/9cUXLOCtFnSmAGwBfgHiYB0lKIX2B873VgNOQaWK1FPLdhBHRBQJY9V4oIEjIAPJKMq1G4OMuGiEZc1yIE7ggsAVBH/t7O7wUoUegOzBm2BCqV0r5CNWV5C5i5uqlF2HNjx0aA0jYP/qkLPNDI4tgWKYO/xgyERCfNhRFwQAT2x0QEnxHRS8gAiIwMxslfUh1gIKII19UHgTtJYmud/r7ObQCURP732UOWQrmi4hnhCHFiWPzmj9Ywe21jfW4AS3FoBCiD49CZHTUTOlHyoOC3NrER4NB32V2Vk5eKjlzIACDhkmwW7kRUKa6vHQGRGADqxZl3AlAGuJ8/XgJli6mOeckALE3+4xe2gQWb62U4zweujQDR/Q6d2UEzt8PzLY7Apy9vc22QeHROh4BsNC8TVVrcAPDwJD4AcXYNUc24viYERJcA/PI6560MKLWH5AgAADw5SURBVHET5n66WFMaWAKWWP2C57eDhVvrasKZGzk3ApTUKXheO81GwCtPRsEnL7ER4NyfAhfSXoZDMaHjhFOcChsAB0ODyde6xYWgc6mhiAQB0sD9fVKcbvzE805870T5qqXQ5P/F3KfhL6T45eK+CKzY8YSy/KMVgdfbHYR+XXZrbc7tGAH9EDCAJs+8sAFAGqPrdJF+mrMkPRFIwShnkSCnfE7GdFYNyVnmfLoEM74laYKNJv+Rc56BlTtraGrPjVwLAfIAfftna82D6vvcLni3I9Jsc2EE7IiAZJIWa+lekwHgk+pB1sY9LR1yG+sjcFeA9MSZyIBq4ORP9KwF/LR99Chv/MfTn4U1u1w3/4H1P12u18Nvm+rBjFXad4AM7LYD3npmv+sBwyNyFgQORG0POaxFWU0GwO7dwbcxHHCtlg65jfURuIvJUNQWPyfZBlgzIAFm0OTvq23JgvLFfzLjWdh8oLJaaLieGyEwdWUzIBIorWVwj3Do2Tpaa3NuxwhYgsBCrY01GQD/dGbW3KlWZbmdOgTuiHgAMGmOo5f6VS4hw98SyK9x8qclEXryp+hvLoxAdghMXt4S/tQYFCphpujhr4ZCp2bCcVjZqcPnGQE1CMhGk6x5SV6zAXDb6LkGtdO2+VrNsLiOZgRu31PPBeDn4EGADatehKmD/gLfvNoSslBMxMDJz0FoVEXNeHJD90CAtoWOw22hS8NqaRowEQSNeWcDdGhyXFN7bsQIaEAg7MCOsec0tFOaaDYAYkODU2RJFt53qFVRbqceAREyoHwOvARA9KvTcPLXmo2NaF8HTHkOdh4tpx48runWCJARMGZBW1i7p5omHMgIGNtrA7Sue1ZTe27ECIggIIH0h0j9zHU1GwCKINkwP7NAPrY/AkJLAD6OuQQQWDv2nyxsmK9AS6HJ/4PJz8OeY2W1NOc2bowA7RQZ8XN72LCviiYUPIxmmNB3DbTCzzAXRsCKCDy475WmKfo/XSdtmTH+bR0THhJWJ3DkaTzkxdV0RB3gr0gQoCMyAQbVOQsT+q3RnKiIUiL3m9QVKAEMF3UIFCroC43qVYBqlUtA+bJFoGABX/Dx/ieYNDn5PtxITIJz56/DidNXYN/Bs3DjprZtmOq0sX8tMgKGoxHg7ZUKgXVihRXyxMyBZAT0RyN03/Eywu25ASOgAoFlxzaPu66iXrZVLDIAUKqMsS/z0Gs2Otse+ILNERDaBuhgSwDPNDoB495bD/QUpaWQ96MvTv6HzhbX0tyt2uTz94ZOz9SFLu3rwRPVSoFEkWwqiox+8qMnLsPq9QdhzcYoSLzlmvnBaOfIkBmd4KeBK6FxtfMqkMlYJS96r34cuEIxRikRERdGQE8E8Os6x1J5RksFFK/Y9gzI5kEox7LlBEsV4fYPEaha5ppq96OEa5Y/O0ginI5NLJv8b9Pk/303OBzLk//DD0MWbwrk84F+vdrCuFE9oG1gDShWJJ/qyZ/EkaFQtIg/tGxaBV7u1lTxFhw/eQXupTjmclIWEKg+ZULuCFoKaFj1ElDiKdHiiYZsuwanYNeR8nD1lq9oc67PCGSNgAQXqxU/PvDIkSP4/K29WGwAxMeG3i5RLrAV/irwMoD2+6Bry/IlEuEpTF2qpnh6mDETXhMwky/HjqVrq8Mw+u2NmG9d2+f5xm0feO+77nDsfFE7jsLxu37+2QYwedxr0KxRJfDytNQBCODpYYQ6NctCty6NIDn5ARw+fsnxQRDUkAikNu+vDM1qxEGxAuJLH16eJjQCTkNETADcuOMj2DtXZwSyQECCKVvXTd+cxRWhU7o8teNPtsWuCCGtuXKOCIgEAZIge5MB9QiKgc/f2Kw5xep1mvwndIOTF4vkiIs7X/TzzQvfjX4ZRg/rCgXy6z8J+fvlhc8Gd4Yfx7+ueARcDWuKK/nfDy/AqUuFNQ2N2CtnDVkGlMeCCyNgIQKyyeAx10IZSnNdDADTTU+iBk7QQyGWYTkCoimB7bkV8MU20TDy9S2aJ/8rN/zh7fE94bTGH2bL0XZ8CUUK+cEvU96Fp9vUtLqyrZpVhd9n9oWAcq5njCXe9YbeaGieuVxIE46F8iXD9MF/QZmi2tJXa+qUG7kiApsPhwaf0mNguhgAhw8HP8D9iHP1UIhlWI7A3WT1VMDUm5+dtgISf/qI17bi6pG2MV/Gyf+9Cd0hLqGANgFu0Kp40Xwwf1ofJbrfVsMtVaIAzJnyHlQs73rLMbTU1Pf7F+DitXya4Cxe8A7MxkyWWuIJNHXIjVwRgRl6DUoXA4CUMctGUkpb6LZeo2E5CgKiHgB7pATu1XEffNQzXPMdu3Q9H7z7bQ84n5BfswxXb5g/nzdMn/AWlC5Z0OZDpW2F07BvMkBcrcTf9Fc+e5ev+2saWslCd5SkVlozWmrqlBu5CgJXPJMTVug1GN0MgJiI4DO4K3CjXoqxHO0I3EnOK9TY38b5ACiH+qBu24V0fLTyufgC6Pbvofkp7FFZrvqeIvW/xPX+igHF7DbEEsXyw8Qxr4Cnp8WxxnYbQ3Ydk/epz8RucO22tsj+csUSleUArZkts9OLz7s2AhhvNysycqY2XvQsoLE8DPgRoajcNPTmtn/kFL+1AwLJ9z3BZDZgRL06h4wtyYD6v7AT+nTaoxmVs1cKKuuwVxP9NMtwh4Yvd20CT7aqYfeh1qpRBv6HWw5/mOF6zwa09NR34gsw+5OlmrJUVil9DT0By5XP860k9UY7ETRVwOWV8mUKQ+lSBZGwKQ9QECYZfXfu3sPtmKkQf/UWxMZdg7PnrsKt29rSZ9v9w8MKZEbA7GGSf8580pJjXQ2A6iVOrD5+pdo5VKi8JUpxW8sQID5zilpWmz3P3wZkQLTO//GL2+D1dgc1D46CrygI6xrvp84RQwr6+6B3uxzr2PLiWy+3gr83x8DxU1ds2a1N+qKdJ+QJmD1kKeTzuS/cZ7WyVxWyIOKvSErxzLI9Tex1a5WF1i2qQ5MGFRTSJoNBvfP2TGwC7DlwFrbvPgk79pyCtDRTlv3wSYdHYLUliX+yGp2uvjkiJUBOAAOaouwFyAptG57rEXQI8vmq+0E6dLYk7LUiXSlN/kNfDoXXnorSjMDxuKJKwB/vo84dwk8GPIsTRrncK2ZTw2Qy49PjVTh5Jh4uXUmE+w/SgFgDDQa8kRoKtStVoqDCGqihucM3uY4G6f4TpaE9ElkRr4ZoKV7wLhINXYT1e6sBcQ6kFyJsevPllvDl0K5ARlT9OuWhGMZUkEEgUojWmTwxz7arAy8+31iJy4i7cB1u32HPgAiO9q6Lyff6JJwLP6enHmKfJBU9V2v5qX8eg1ccVuXQbBV4WavKH6N+hxrlrqoS//vmujD+jzaq6opWouxoX+Ae/xeQ6EdrOYqTf198ykoUcJNq7cvZ21HQ3Zo/PtK07n7u/DX4eUE4bIs4Bom3M9L7UkBhYPNq8M6rraByBW1Mi6/2mQ6Hj110doiz1b9J9fP4NL8S8nhqS2C160g5GPhjF/DxzQ/vvhYI3Z9r/DAfQ7adarxgNpvh7y2HYMbcrcpSgUYx3MxWCEiwLzpsTGO9u9PVA0DKXT+//UHx8kHEltFSb2VZnnoE2jc+CaWL3FbVIPZKIdhysJKquiKVaPL/Etn9nm95RKRZhrqHY4sp9L4ia6QZBLjZwduvtEI3cUWhUZvNMvw4ezN8FrIEjiKTX8r9x2OM7t9PUxIBLVm5V+H+JyZBETc0KUTBgFvDjwrp5kyVL17LjzkoSsAz+N3TwmhZpuhtaBPUFN5972No2rCSJiNOLV7kRahSsTj0RCOjIBJDHYyJg9RUXhpQi5+t6+H9Ghx/Lkz7U1Q2Cv/nb8qmgpbTUpr8A7ZzPWJwLWDYqY3IVkB/lUsFIkOhyX/MOxvguebaf/ApgUrvid2BJ391yNOPemdM7CNS6Enwky/+hNm/blO1NkzGwsKlu+D9IfPgfhaGQk59t2tdE7zzinFU5CTPEa/txKf4obM6KkG4Qvp5YObKsqugSqOxyNSobWeBUH//VvZAKudXezSHRb/0h5rVS2sRwW2sjoAcW9BgXGaNbqxiAETtHHsR49AWWUNhlqkOgTtJedRVxFp6BwFSKtTv+q6FTs2OqdYhc8VIXFPtP/kFSMJgRi7qEKAnOiLhESnfT9sAm7aJP1jsw6Cyz79eLtKV4s5uVL+CUBtnrLxlfyUYNqsDUEphVcUnCCAAt8XSXzuVMribYN5PveE1NAa4OBgCkjQpNDRY27pSLkOxigFAfcpg/lb5k4sCfNk6CNwRmDj13AZIk/83fdbBU/W1M1VS/vQPMI96dlHR1kHM+aU2Fpxcj6C7/9dFOzQPnCL7Q7eLGXlNG4otT2hWzs4NKYNg8Lx2QDtycix+XQDKLAEwFs2xmi0u0hLNpwOfhWGDOmkO+LSFnm7Wx03k/dd169+j+FnNADgU/lU0mgFbHu2M39sOgbsp6p+c9TIAvHDyn9B3DbStf1rzQLcfKg//w8mfuAy4iCFQvWpJoQbT5mzBCSq3GSpnkVN/3pxzhUxXa1QR0zFTc6c6XLHjCfjmzzbZ65z/TYDSv2J+ZfUcANkL0+/KK92bwZjh3dkI0A9SSyRNR97/u5YIyKmt1QwA6lQ2yxNy6pyvWQ+BOwIR83osAeT1SoMpA1ZC67pnNQ8qPDoABk/tjNvOdKWn0KyPszUMKKs+Ac/dpBTYuVe7lyYdG9rbT4Qzakvt6v4KCySlf25Q5SIU9s+420CtHGepRztsvluUhWvf71mA4pNwGFb9CdYMU6dn6sLwweid4GJPBFLB6DHVmgpY9Zc2ZvtX6+oEjkRPANSx5iBY9uMIPJYSWEKPgAc+fRmQv9zgg9YZRvzKuA/YfAd84TJa+7hoo3bNMlN33jT54/anxtXOZ7qi/nBjZBVl3fTRfdDqW3NNQqBoYby3Kkv04Qu6RX1HRsWqzv6Xx7sw9Oq4H7U0P9SUSKuI3pmY9c7hjhR6fw7f0/Fjn+OHrZznza8b6yMnR8p/DJjeuJur1Fx88rfqz6/FAPVEzgDigfhlQZjFsliAOALom/stJjT4gnhL9S2s/gmUZOkHJDCw2hqG+qG6T03anlWwKNLAFnoCwBuDevJUxz1Y5RCArHd9SvID+Gt+Ipw4cxXox3zP/jNwJvaqKvewH+YRmPrhX1C34mXNAG/YVxUn//bikdOae3TNhj4+6gM/iSpWr3LtuogsDIwjA9T8n1eTPkM1AxKUV2adKPseGQKxZBTEF4S4dEMBzzmTp+inv5qDt2cqvNExFqDkXN3c/uTJuXg5UdmaScs5RAlMyZ8K4NY+PcqA3k9B9JHzQEGfXGyLgBnnTmv3aHUDIMk/cYH33fxj8GvvPot/1r5r2civVrkEdOlQHzoi4xfRwaou6B0oX66Y8krPGX/h0k1Yvf4grN5wEM5fvJGlKIodmDboL6hdUTvF67o9VWHEzzz5Zwmw4EkRpj6TCZ8vdCrliyUISsraEM1KSKF8yUCvepUvZbhMoQtXMCtfHBkFaAyQxyAW80SQgUCpeh3RkzRhSRA82Xk0lPEsm2EsIgc0yUdGnYN1m6Jgd+SZbL+b9P1vjHwQ9H0OQgInrQmZ6GFi/Oc9odtbUzingMiNsrzu34cjQqIsF5OzBJX7VHIWktvVukEjh+Dn9rvc6vF1bQgQRWivVwMhqEU1bQJyaEX7viN2nYDpyBj2KIsb8Z5PH7wsy6e2HMRluLQ8oiaM/vUpzUsPGYTxAWxY+onq9LsUvT/oswW6oLZ0Wj2oXLO7elknCuHyk1V2NSk6UCIsMgJoKUExCtA4UIwENBauYBY/Mh7sUVq3rA6Tx72mueuNoYdh+pytcOpsvJCMokX8gQiiXnqhqWZDYOmqfTD62xVC/XJl7Qig17x1TNhYq6+92MQAaNgw2CfVJ418SMW0Q8ItMyMQUK4IfPZhZyBWNmsXevJYh9u+Jvz0N5hT45UsZpTNTGtZElYbxi54kid/rQBm0W7Rz/+Daiqj7C/H34IOPfWxybcu6Q6FiqkkIDIlApyi5Sj7lPupHooxoBgEV/6NNSBDAY0DWm6wVsmTxxOWzx+guOdF+7hxMxGGj1lhcdBmhXJF4atRPZRkQqI60IPA2/1nQdRh7XE+on26b315c3T42Ha2GL/VlwBoEJGRwckYDEi/Nt/YYlCu3ge55Xq/2Rp6v9Fas0UvihGxzFEykdbNq0LyhdFQFLRP/ou31VEmf3s9iYmO3Vnqn8MEL2oNgJLF8yt1j5/UHrtBuFCimYJFBWJ8Uy3feWDJ/SCefjJcszJeswtGpNgDumZJ6fpsA02T//X4GOjRZw3cuJlkSfdK27OY4OmdAbMh5LNu8MyTtYTk0fJS//faQZ/Bc4TacWVxBGQJRou30tbCJgaAopp3ylS4l/djfM9eAG33SmlVqKAvWvE9obkNnvqzUtPXNy/4VvsK4E4zXITtj8FcIgFgAPM3NoAJiwKzEs3nLETg1NkE/GFXL+TNF1vAiLFL1TfIoubrPZtjdjqBrWz3j2QhxTFO5RaMqOxOQGNA2aEgEIxIdLvkghctNxMOQNd3VsCtu7hjR6eSkpIKnwYvgsvxiUqGQRGxROJUD7NMHjwUJ9KM64ohsMUWrv90lWxmAERv+C6pdquRE/FB8uv0zvmvGAIVA4rB9AlvqV7nFZMuWNv/OdxdUBXgfDeAtAuqGs/5uyFMWir+Q6hKOFcSjtR+9um6sHDZbjh0VN39ywxx2dKF4PWeLTKfzvk4OTzn6w56NT0YsX6V7IMR07cy0nLCOVxeuHT9n2DEtoE1oKQgRfONG9eg23vrdZ3806Gl5TyigKbdApSfQaS8jkYjGwAiiInVlUGy2dM/aWaTGIB0CGq2CfYzmtJO4zF7AdJBUfmXLO8p419X8rKrbGKbaqm4JnjheUz9lLNr95d1jeCHZZwg0po3xcvTA7auHAp+6KVRW+Kv3oZXe0+Dazf+25anpq2vbx74dWofqFRB5KuMT7KncUtqmlgQmxp9HLEO7UQgI8Cv8m9QqGQWZEDZKE1P6W/ierulyzPZiH94mhIzzfvpPdXLRtTwQWoatOv6De8IeIiijm9keWt0xNi2OkrMVZSA7y5XWblWUCgNJUD/MRcRBCjJi0NO/jQI2tJUdvU/f7MZ1ORlLXjyzwYbPU/Tj/OmUDEXe/Gi+WAeTuTkXVJbqM3sSb0EJ3+UnhTmNpM/YelhNEO5kp5QqISYl2T+ou1Wn/xJv3spD2DkV8vAZPqPlInO51TIyBSNH8hJHl/7DwHZaBjx35Ft3tnUAKAhma57TMM/tCOAiwoEyE03feLbjvfk/6juHqWQ03wJ8gw9nomO1vt/XofMZ1xsgsCy1fuE+6FMcAtmvA/vv/2kkrEvOwEUyf4ObjddOm+ApkjyE0fWKNvztDJOZqeXQ5/3bS3E+Jd4KxnmLcTMgDYqJ05fgeVr9gv11qoZLv1x0RkBaUXMtpCdOgvNVZxNlwDStcFYgHcwFuCX9GP+mzUCZG3Pm9pb049t1hKtfPbu3wAXX8JOZGWv9fg/2sDCLXWt3CmLz4zAz5PfhUb1AjKfVnVMT4U79pyCgzFxcJ2WBfAXokghf6hTswy0aFIlRwMhpw7icIfC869Pxm2fZqCkUWWK3YKA4jehfPFEKFcMX/iXjovktzzaPSc9bH6txGSA/G+r7vb7aeth7sII1fX1qEgPGasXDlad/IfYB4M6jxPyHOihpwvLMJtkqYEtiH8yY2izIMBHO65e8vj8Y1eqfyyB/MSj5/l9RgQ+6t9Bl8n/6rU7sPfgWbgafw7uJ12A67dNkHAzP3jn9YbS+PRXHfeON6wbYDl9qF8H3BfWF+Qb02D8Qpz8t/Lkn/GO2ubox9mbYM6UdzE6X9y+p3Xhp4KeUF56avvj7M3K5E8yH6QZ4cylQsorcx++eVP/NQjQOEDDIKDETeW4PP4l8imnK964W0ZlSUszwYp1B1TW1q/axcs3YTfSf6vdWUQxJpVxWdLaMQr6jdDhJS2wx+RPqNjFAFi8eLGpTuCIz/HxAv3GXLJCgNj9Xu7aJKtLqs4Rcce6TdGw6K892UTtZgzEon2+TZA69OVuTeHJVphHQGspGgw/zLuNk38RrRK4nYUIHIg+hzTOUUgLrZKcx8L+cmtOlLXrt8TkVk25npTiCUfjiiqvzA0K+N37zyj413NARgIZB5SN0uEKJfvxrKharZOnTsHNRPt4QDZvO6zaAKABVSxflA0A1Xc2x4oPZNkjOMcaVrxoFwOAxoNMR0uRHCgC3/K+sEw32Gg0KAx/Wp7gSNSufadxm896OCZA8kIGA7WjV+0nysCg95+BxvUrZNJMxaHkDY2DPoI5q+arqMxVrIXA+MlroCEuA5QS3H6mtz6379yD4PHLdRGbeNcb6BV15vG0IsUL3vnHU4CGQfkS+Cr2z/JC6SK3wROXHOxSPMvjM46X6q4vn1dnJKkWKFBx34FYgdoAFZCFlIseCEhTYyKCz+ghSYsMuxkAirKy9DFIMgU+iPsqtYzWSdq8gKxhlNhHtCTfewBjJqyENRuiRJtmqB9z5AK8N+gXhShkcL+nxYheUFLLplUUbwJlFeRiHwTu3E2BYV8uglk/9II8Xvb5mtN6PxENUUpZa5d4TAxEr73HcVfKI8VoMEOpIncw1uCfJQWKNSCPAXkOSqDRQGmwrVYoOFagXLh4UaC2vlWJRfL+gzTVn5WiRfLpq4B7Srv5wCttjD2Hbp9fhn9HHB0Rshu9AIvwkCLHuCAC9PRPkdaihVyH/T/9NUPCHlEZmevP+yMCribEIvPgKyAZxb7wRFXMBkBmRG17TLztn37xJ0wc84ryubJt78j7PWUdhO04butuM/RHiYHOJ+RXXhEZroASjFhWWUIgj8E/wYiKoYAehCL5dHDFG3wz9Zjz4a5oY84VrHiVjLUE5IQgcic1xQ95ILhYhgCaniHHNo+7bpkUy1rb1QAg1Q1Gj2FmU9rz+FY9e4llY3bo1sTMpfZLmD4Qisp9f8g8q6zJrd1yAd0zs2Hs5x+AZFDvzqR4gprVS+tqkKSPl/+qR4Cy/g0fswTGDO9us7wRtJw0/oc18Mfy3eoVtUNNCkY8famw8srcva/3g3+MAvQc0C4FCkZUjAT0IKgORpT8MovN8TjerlMBAP2OqC0+3up/C9TKdK968pl7fren2nvMdjcADoYGx6IXYAoC8Ym9wXCE/rt2aiCkBtF6Dhu9xCqTf7oia7bcBM+8K+DLYT3TT6n627VTQzYAVCFl3Up/YxZH2l8+/osXLd/pkYuqSUn3YeS4ZbAlTIyQKBexNr+chMl/jpwrprwyd07BiAG0lEDLCugtULYxkicBjzMGI4rFHhiN9l0JpZwFaosIeZBame5UD+O7Pjm1bordt7XY3QCgm+6ZJ3Vs6n3Pt/CtejoyF/y0UN5uSrghUpauioTwndZ3s/61Nhq3JJaHlwR2JhBj2DeT1yr0oSJj4rr6I0DBnS/2+gnGjuyhLbhThUrRuOQwAr0NcRdvqKjtvFUoEPEgvU5nDEakXZfpwYhkFLRoUgyeek79OP39vdVXtkLNfAL9J2G8ERfNCIRFhY1Zprm1jg1tzgSYle6Rm8bfkmTps6yuudO5Ni2rY1CS+ltCQX/TftlsM4gmz9wolJY0fz5v5BfASGguDoEA8f73/nCOEphH7/Uq167fgdHfroC3kL/e1Sf/nDCj9NZXbvjDnmNlYUlYbZj/txhjXtlS6tbfc9JB67W8eT2haGF/1c3vYpApF00ImJD0Z6CmllZopH62sULnj4qMijDOxcXmXY+ec7f3tG4uUub/sV04iYuI/Mx1aY1w/p9iNKWNBceUuU8+1hcBWjJavf4gdHp5ojJpHz1xSXMHx09dgbETV8GzL02Epav2IdEPzoBcHiJw4ZKYJ6RGVbFdAw870uEN9U1cIGrLeRf38qjFQbQefkOm2ov0JytdHWIJ4B/Fgs2yedQHkiTvwWOHMUyyAs1a5xrVq6BadGqqCVO52t5eWrJyL/R750kgXng1RROXgBrBXMciBOjzQ5M2vSijXyDyu9O9qla5JNBSVFaFosSJO37vgbMQsesknDqbkUwqqzbufI4yLJLRrDY7Y5OG6r//euOqlgUwvd/Y89fS3/Jf9QhcT/Uyfam+uvVrOpABABATERJZp9XIOegJeNf6Q3esHgoX9INCBdVvG9q175QS2GXrUdD+8vBdJ1TnESfKUCI0oidPLo6JwOmzCUCvdA56SvVbML8P+Pt5K/eNJrEbN5OAlpy4iCFw6kwC1KtdTlWjCuWKKql57UGx2+Gp2qp0TK908gwbf+lYqP8rDbP3tr/Mujrck7ZRMlEsgJjvLPOonPA4QJBZa9c++5Hs7Nx7SjXCtF0ouydK1UK4ok0RoEj+C5duAi0PEJskvefJX9stIG+JSHmtR3OR6rrUpaf/8mXVM/vR5+GyDciddBmcgwjBx5+90eHGXxxEnYdqOJwBcCB83FUMCHS7LYGUklWkWLJ2K9JPVnUPHRVjLLNncFNW+vM5RsBWCOw9IGaod2lfV1mSsZV+5J3r26utUHdM8CUEF1VOM0jS+wDBZuGWVm7gcAYAjTcqImSOJMsbrTx2hxLvixm2RErcRfuxhlBqV5Hi5yc2NhHZXJcRcGQE9mNipsTbyapVpF1Ag/o8rbq+pRW7tK8H9WqVExLj7BwPQoPVpbL0TVRYiO3TPKrQ3SENANRbljw8++BfHfg4VaDgAFV8fbyEtLh9x37bcMgdTEFkaosvs4aphYrruRgC9D3ZsOWQ0Kha43bgl7s2FWqjpXLFgGIwdNCzQk2vY2DjDoElQCHhrln5pG/a3TGOOjRHNQCAGAJlkEc7KnB660U5AESKvZm40kzqDQARhjERDLguI+AMCPy1dr+wmp8M6AiNtGTjVNlTAQzy/HH866p3KKSLXfn3AbD3b0+6Lk7wF5f+Df127vz+nqPqKjbr2HgUhY2eE7HLSBt3a5fukpPFIqztycVNbsq8KrcBEpgcQGaXjxR36iAIHD52UTgxFhnNE0Jehvp1yus+CgrKnfrtm1C6pFjcEWUL/G0xJW/logYB3NI+Kzp8tO2Y2tQolamOQxsAoaHBaWYw90KdUzPp7XKH91LEDIASxfLbDYNSJfIrW/vUKpAkkGRErUyuxwg4EwKz5m8TVrdAPh+Y+f3b0KVDPeG22TWgBF2/z+irJOrKrk5255etjgRifeSiCoErZrNpmKqadqzk0AYA4XIo/KtoDFQlT4BLl6vXxL5YRN5ir1KpQnGhrq9evytUnyszAq6GAEXOa8nZ4eXpoWRy/OLTF4CotbUWT08j9HotCOZMeReKFc0nLObW7XswY+5W4Xbu2gDnrP4xEV/fdPTxO7wBQAAm+d76AsMCjzk6mJboJ8qs1cAKrkG1+ouw+xE97Hk77lhQOyauxwhYG4GvMUXy/fvanJndOjeE1QsHQ19k4SwiwNnv65MHejzXGFb8NggGvf+0agbPzFhMnrkBbia6TUx25uGLHq92lGQ/uSku5VbBUa7XDhzVGvnkyAR1Gp1FsKM1v13rR6nO2U7JXDr0/M7m/Ou0b5h+iNTyFhBneOdXvheBgusyAi6LwBsvtoCPP+ho0fjMZjPGFJyF3ZGn4ejxS3Dh8k2gJ3QqtJuI1varIAMn5RZp0aQKUKIfSwplkuz38Tyb/9ZYorO92mLU323J6FEzOjT4gr10EOnXoaiAc1I8JjxkG9IE/+KqNMFpaSagYCG1tKHF0Y3XEr/cRMtry9KoXoDqyZ/0ijoUZ0v1uC9GwKERoCC6BnUDoG1gDc16UhBuM2Tvo5e1C237oxTPnOhJHdKYT+nTKCeZ/GlETrEEkA69Z97UIUgREJt+7Gp/9wiyhvV/7ymhYDw98Or9ZhshMcwaJgQXV3ZxBCgnRvD45XA27qrDj5SWKz4audCmGUcdHpQcFMSn/w3o+p+ZQxWHu+RUBkDkpvG3DGB4HVFUvwnd4SDPXqEde9Rz7JMUSuHZvm2t7AXqfCWoRTVo2rCiaqn01EDuQy6MACPwHwLkrn9/8Fy4HH/rv5MO9o6WGYaFLIGD7MFTe2eueYH5bayMdoDzFKcyAAjWg+Eh2xHhr5wHYvWaHoyJg0uCSTYG92svlEVQvTYZa1K2wpFDnst4MpejyKhYoFgFLowAI5ARAfpe/A/X1a8kOJ4R8CA1DYZ+uRiY8jfjPcvxCDPYRoZ/dTnHOg540ekMAMKwsNFjNP5xOUYKcg+u3nBQ6GNCfAATQl4Ba7Lt0VakiWNfAYo7ECmr1ouNRUQ212UEnB2BM+euwut9Z4AjpdYl0q5Bny2ADVvF6Iud/V5YqP+06LAxKy2UYZfmTmkAEEGQLHu8ThGXdkHNip0uWbFXiGefVKEtgaPw6ZyCg/QuRFEcPOwF4YQhlD9+/ZYYvdVheYyASyFA/B9v9Z/lEN+VM7EJ8EbfmSC6FOlSN0R8MEc9kz0+Fm/mGC2MjqGGuBYJcaE3i5cLisddac+Lt3bcFknJ96FkiQLK+r6IltWrloTaNcrAth3HgVx4ehQiHpn01WuaIpZnzg8F0VzoeujMMhgBZ0OAEgZtDD0MiYnJ0BB32RBpjy0Lxer8sXwPfPz5n3D1mss9U1kTylSDQepyYOfoc9bsxJqybftJ03kkCXFhB4uXD6qOYm0XCafzGLISd/psvELe4SGYIKhcmcIQ2LwqREads5i0gyhDp373libK0Gu4dWjk2KXCnoyssOBzjIC7IHAItwFTsp1CBXyhauUSNhn20ROXYMioP2Dpqn2c5EcUcUkehlH/S0SbOVJ9pzYACMiSFdtulmXzq/jWfuT4Ot9RSvXricRAjepVEJZcuJAf9OjSCPL55YXjp66AaI6BUuh9+Oh/HWD44C5AGcO0lLETVymcBlrachtGwJ0RoKRgW8KPwtaIYwr1b8WAolbZ6ku/DZOmr4evJ611yEBEJ/gMbIsO9+wLEOpUUf+ZcXUJVr06rUcFgllhCXR6gyb9BuXBbHtL5n4A5UoXSj8l/Jeyd4VGHMWAnsPojj/zkC0ss6AiaDQ0RVKR9k/WglbNqoJoauJH5e07cBbe+3AOUEAjF0aAEbAMgYoBxeA5TAbU6em6mjj8H+39zt0UJbhvNQbn7o92Wq/1o0Oy1/ubJtmj3uGI4Dh7KaBXvy5hABAYdYNGfo1zzlC9gHEEOeSGn/dTb13WBGlCvoL7ji8ibegdzM5nwOAJP/QSlMdlAxFu8ZxwSbydDC/1mspPFDmBxNcYAQ0I4FqzEhdEeTiIjZMSctEOIDqfXaHMfbTT4ABO9nvQMI8+dF63+KDs+nSH80iH/lJUWMgiVxhr9p8eJxtdw4Z9PFN9im1CtYOcTPUc1X21R3MYOvDZHOs4wkUKJBo0fAGEYRAiF0aAEbA+AuQlLFW8APgg/78/GvNUKIiYtvLFJ9yGu5yGW/+bIEmTo8NCBukv2D4SXcYAIPhqNR1e3JDHEIlcTKXtA6d1ev1kQEd4vWcL6wjXSep3P66DXxft0Ekai2EEGAFGwOEQ2Gm64dHm8OHgBw6nmUaFXGbNnMafcDE8qVhA652SDG/gocuMjeh0K5QrApXR7eeI5ZcF4UDb/rgwAowAI+CSCMgQL5nkdjH7QxJdaXwuM0mm35SEc2EXSpQPIn5Ny3Jupgt0gL8UT7c57CgUxTzgT1Qr5QAa/acCTf4/zNjw3wl+xwgwAoyAayGQKhvkLtHbx7ocPaLLGQD0uYuPC9tTonxgAIBUz1U+hxTEF7bzhBL006BueatsDRLBisiGxkxYCXMXRog047qMACPACDgVArhOPjg6fOxip1JapbIuaQDQ2CuWbrQh1eBFXoCSKrFwimrErncg5hy0aFIFfLy97KIzZTEbMPQ3CN1+zC79c6eMACPACNgIgYXR4WNcanfZo7i5rAFw4cKuNCQJ2oAkQRQPoI3R5lGkHOg9beVbuyla2QZUqUIxm2lGKUL/oQz9A85fvGGzfrkjRoARYATsgEAMeKc8H396R6od+rZJly61CyArxGq1/vxpg9m8Dq+5pLHTokllGPT+M1C9inUdHXv2n4Hvp62HI8cvZQUzn2MEGAFGwJUQSDQZPRofDg0+5UqDyjwWlzcAaMB1Wo38AiQIzjx4VzlGYgolB8BbL7VUkonQsR7FZDJD+K4TMOf3cDgY4/SkV3pAwjIYAUbA9RGQJVnuHhUxdrmrD1WfmcLhUQo21AlMW4FqdnZ4VS1UsHTJgtC5fT0IRErfmtVLCacIpuA+Ygyj9f21G6Ph+s27FmrEzRkBRoARcCIEJPgyOmxMsBNprFlVNzEAAKq1/NQ/j9ErDEmCXGZnQG533c83L9SrXRYqBRSH8mULAyX68fHJA77IHEbMfZR4hJjDKKbgbNw1OHUmHqKPnIeUFJdd8soNMr7OCDACbowAbrZaFBMx5mWEwC2SmbiNAUCf6fotg0uZDGk78W05OubCCDACjAAjwAgoCMgQnux/6+lT66bcdxdE3MoAoJtat+WomkjqQJvXC7jLTeZxMgKMACPACOSIwGkjmJofCB93NcdaLnbR4GLjyXU4UdtDDktgIBdPWq6VuQIjwAgwAoyAqyNwDZMqdnS3yZ9uqktujcvt0xoft+108YAg2s/2XG51+TojwAgwAoyAyyKQYpbkjtFhY6NcdoQ5DMwtDQDCI/5c2IHi5YPy4NvAHPDhS4wAI8AIMAKuiYAMsvxWTPhY4olxy+K2BgDdbcwZsKVY+aBKGAhRxy3vPg+aEWAEGAE3RQDpUj5Bjv+Zbjp8ZdhuFwOQ6WbL5hse76IVuDXTeT5kBBgBRoARcF0EZkWFjZngusNTNzJ3NwDg8OHgBw/ymHti5sAT6iDjWowAI8AIMALOioAM0ppqJY73c1b99dTb7bYBZgderaARZQ2yFI7Xy2dXh88zAowAI8AIODUCO5Hj/xnk+GeKU7yNbAA88lmuFzSyikmGbQiKdTPrPNInv2UEGAFGgBGwAQISHJTNaW1jIr6+aYPenKILt18CePQuHQwbcxIkqT2eu/7oeX7PCDACjAAj4MQIyHDogaepHU/+Ge8hewAy4qEc1WsxvJ7ZaKDAQGYLzAIfPsUIMAKMgLMgIIF8ygPkoMjwry47i8620pM9AFkgfXDHVweRHKITXuJ1oizw4VOMACPACDgJAuclo+fTPPlnfbfYA5A1LsrZ2q1GtsO9oqvwIG8O1fgSI8AIMAKMgOMhkCAbTa1jQscdczzVHEMj9gDkcB8wLeQmpIqivAGcHzcHnPgSI8AIMAIOhsA1ySy15ck/57vi1kyAOUPzz9WEuPDjxcsHHsENE93xDBtMakDjOowAI8AI2AkBGeC2bJafidk+xi35/UVgZwNABVrxceFHMXnQRazaBV+8bKICM67CCDACjIAdEEgygtQxOmLMbjv07XRdsgGg8pZR8qBiAYGnJJAogyB7AlTixtUYAUaAEbARArcMOPkfDA/ZbqP+nL4bNgAEbmHCufCYEgGtj2OTF/DF2Algx1UZAUaAEbAiAjdxu1/7qPAxu6zYh8uJZne2hltaL3B4JzMYlmBT3h2gAT9uwggwAoyAbgjIEC8bpKdjwkJidJPpJoLYANB4o+u1GtnGLMFKbO6vUQQ3YwQYAUaAEbAMgTiDBO0UFlfL5LhlazYALLjtdVuNaCVL0moUkd8CMdyUEWAEGAFGQByBsxiS/VR02Jiz4k25BSHABoCFn4M6gcMbYEzgehRTxEJR3JwRYAQYAUZAHQJHjWaPdge2B19SV51rZYUAR7NnhYrAuejwr/bjUkAQNuEPogBuXJURYAQYAY0I7Pc0egTx5K8RvUeasQHwCBha3x4KG3MUfSmtsD27orSCyO0YAUaAEcgdgQjPPKltI0ODr+VelWvkhgAbALkhpPI6rUMZTfKTWP2oyiZcjRFgBBgBRkAlAjJIa8A7pUPkpvG3VDbharkgwAZALgCJXD6wY+w5g9GjBcgypRLmwggwAowAI6ALAvLswkbjC9EbvkvSRRwLURDgIEArfBBq1gz2MhZOmwUyvGkF8SySEWAEGAF3QQAf/GE0eliD3WXAthwnGwDWQ1uqEzTyCzQCPscuGGfr4cySGQFGwDURuI8/nW9Hh4f84ZrDs/+omM7WivcA8weEFi/XmvaqdsJuGGsrYs2iGQFGwKUQuC7J8rOY1GetS43KwQbDT6Y2uCHoCWiLnoCl2FUBG3THXTACjAAj4LQIIKf/KZDNnaIixp1w2kE4ieJsANjoRtUP/OwJExjWoEsrwEZdcjeMACPACDgbAjuNYHr+QPi4q86muDPqy7sAbHTX8AN9xGT0bC4D7LVRl9wNI8AIMAJOg4AkSYt905Ke4snfdreMPQC2w1rpqc4zH/tKKd5zZFnuaeOuuTtGgBFgBBwRATPGSYVgpP+XqBw+I3GxFQJsANgK6Uz91G41qo8kyT/iac9Ml/iQEWAEGAG3QABn+9sGWX47KmLscrcYsIMNkg0AO96Q2kEjgiRZ+hNVKGFHNbhrRoARYATsgUC02QTdDu0Yc9oenXOfmMaOQbAfAjFhY8OkNLkRur922U8L7pkRYAQYAZsjsBBpfVvw5G9z3DN0yB6ADHDY56ByxwF5fJIKfIMUwgPtowH3yggwAoyATRBIk2UYGRMxZrxNeuNOckSADYAc4bHtxbqtRrwhS9J07NXHtj1zb4wAI8AIWB2Bq5LB8FLUttGcK8XqUKvrgA0AdTjZrFbdoFH1cYcAkQZVsFmn3BEjwAgwAtZFYLsnmHtGhn912brdsHQRBDgGQAQtG9SNCgs54Gn0aIJdbbJBd9wFI8AIMAJWRQAj/ad4Jic8yZO/VWHWJJw9AJpgs0kjSiY0EHfFfoO9edmkR+6EEWAEGAH9EEhE5tN+nMxHP0D1lsQGgN6I6iyvVssRjQwGwwLkx6iqs2gWxwgwAoyAtRDYgjuc3ozaOfaitTpguZYjwBnqLMfQqhISzodfqli64c+pxjz+2FFTq3bGwhkBRoARsAyBVNzWPCY63OO9+Ashty0Txa2tjQB7AKyNsI7ycZdAV9wlMAtFFtZRLItiBBgBRsByBGTpGEim16LDv9pvuTCWYAsEOAjQFijr1AfRZZofmGuCJK/TSSSLYQQYAUZADwR+BZ97jXjy1wNK28lgD4DtsNazp/QAQSLTyKOnYJbFCDACjIAAAlfR5f8eJvJZKdCGqzoIAmwAOMiN0KJG3ZajasoG+XdsW0dLe27DCDACjIAFCGwymj3eOrA9+JIFMripHRFgA8CO4OvRdfPmg72TPfyCZZA/QnkeeshkGYwAI8AI5IDALUmCoVFhY2ZiHU7fmwNQjn6JDQBHv0Mq9asVOLyOBIbZeEMbq2zC1RgBRoAREEVgtVmS/3cobOx50YZc3/EQYAPA8e6JZo3atAn2uGFO6482+RgU4qdZEDdkBBgBRiAjAldAloZGR4TMz3iaj5wZATYAnPnuZaM7MghWkMzyDNwy+HQ2Vfg0I8AIMAJqECAX/28PvEyDj20ed11NA67jPAiwAeA890pY09qtRvSUJGkqNiwi3JgbMAKMgLsjcBpT9/bF1L2cl8RFPwnMBOiiN5aGlRAXfqRoyVbzJaNUHA/ruvBQeWiMACOgHwJpIEk/gndKz5itXx/XTyxLcjQE2APgaHfESvrUaTWiC36pf0LxZa3UBYtlBBgBJ0cA/f17zbLU+3BESJSTD4XVV4EAewBUgOQKVeLjwk+UKdp2htnLnIbjaYYv3jLoCjeWx8AI6IPADST0+ax6iePvh/497bI+IlmKoyPAHgBHv0NW0K9Wi5GVDEaYhKI7W0E8i2QEGAHnQcCMqi7wNHp8FBkafM151GZN9UCADQA9UHRSGXVbjeyMeQW+l0Gq7KRDYLUZAUZAOwJhZjAPOBT+VbR2EdzSmRFgA8CZ754Oujds2MfzgXfxdyRJJu6AojqIZBGMACPg2AjE4Z7+Ubin/1dUk5n8HPteWVU7NgCsCq/zCK/dalhBg8FjKG77+RC15gRDznPrWFNGQC0CN/H7Pf6e/61Jp9ZNua+2EddzXQTYAHDde6tpZPWCRlYxgTRekuWumgRwI0aAEXA0BB7gc/40k8lj9OGdwTccTTnWx34IsAFgP+wduuc6rUY1xfiAr1DJtg6tKCvHCDAC2SFgRiKwpWkG4/DDocGnsqvE590XATYA3Pfeqxp57VYj20kGGIdPEI1UNeBKjAAj4AgIbDKYzJ8c3PHVQUdQhnVwTATYAHDM++JoWkl1Akd2x8ChEPQKVHc05VgfRoAR+BcBWd6Kxvrw6O1jdzEmjEBuCLABkBtCfP0RBIINtVuldke34pd4ssYjF/gtI8AI2BeB7QCGL6LDR2+2rxrcuzMhwAaAM90th9E12FCnVWonMEij8WmjnsOoxYowAu6HAE/87nfPdRsxGwC6QemOgtAQCDS9iFuJP8PR13FHBHjMjIAdEMC9+/IGMBjGRm8LCbdD/9yliyDABoCL3Eh7D6NuqxGtZEkainowvbC9bwb376oIPMCB/Ynfs29jwkJiXHWQPC7bIcAGgO2wdoue6gQOb4BrkUQm9Cq+ONmUW9x1HqQ1EcDH/dsYdzMXDMZvo0ODL1izL5btXgiwAeBe99tmo60VNLKGZIZBkgRvYKc+NuuYO2IEXAYBORZTeE8yGTx+xn38d11mWDwQh0GADQCHuRWuqUjDdkPzpz7wfBuDBT/CEZZzzVHyqBgBXRE4gFtuJxXyMP4eGhpM6bu5MAJWQYANAKvAykIzI0BJh1K9i/bAnQMD0Rholvk6HzMCbo6ACUBaje7+72PCQ7a5ORY8fBshwAaAjYDmbv5DgJYHDCD1BVnuhWf9/rvC7xgBt0PgCi6TzZMMHtMPhgbHut3oecB2RYANALvC796dV2v5qb+XlOcVySD3Yz4B9/4suOHot8uy/IPXvat/RUbOTHXD8fOQHQABNgAc4CawCkgi0HJEM8kI78iy9BLikZ8xYQRcEIELgE/7GNQ3l5PzuODddcIhsQHghDfNlVUOaBOc1z8ttQtue3oTx9kRX7yV0JVvuOuP7T4OcSM+7c8v7OG5nIP6XP+GO9MI2QBwprvlZrrWaxMcYE5Lew2JT16VQH7CzYbPw3VeBMy4pLUdjdjfzXLqnzERX9903qGw5q6MABsArnx3XWhsdVuOqikb5Z74w/o6DquSCw2Nh+IiCMggHZEkebE5DX49tGPMaRcZFg/DhRFgA8CFb65rDg3zD7Q2tZTM5hfRM9AVDYLSrjlOHpWTIHAYJ/6lHpD254HwcUecRGdWkxFQEGADgD8ITo3Af54B6RVMkFLVqQfDyjsFAulP+kbZtIgnfae4ZaxkNgiwAZANMHza+RCo3WpUQ4yyfg7jBSghUX188efb+W6jI2qM2/TkMJz414DssSImIviMIyrJOjECogjwD6QoYlzfKRCoH/hZUZPs0VEyQGezLLfHD3o+p1CclXQUBK5jEN8W2QyrDR7GlUjSk+goirEejIBeCLABoBeSLMdhEaCthX6yOdBgNj+NPoGnMW6gLirLn32HvWN2UYxS7e7Ez8ZGDOTbGBXuuQ8g2GwXTbhTRsBGCPCPoI2A5m4cB4E6LYKLyR6mdgbZ/DS6dduiZpykyHFuj600kXGyP4ydbTZI5o1m7weh0Ru+S7JV59wPI+AICLAB4Ah3gXWwKwL1WwaXSpNSWxoM0M4sG1phDEENVIi/G3a9K7p3bkJj7zhO9hFmM2zy8vDcGhkafE33XlggI+BECPCPnBPdLFbVNgikGwQgGZqhMdAUe22Ir7y26Z170QkBXLOXd8tg2A1m0y6fNK/tu3cH39ZJNothBFwCATYAXOI28iCsiQClMjb5Fa8nm+VmuCjcBL80tMOgGr48rNkvy1aNQAqm0Y1Bl/5+bLFbNsCuQ2FjjuF7PM2FEWAEskOADYDskOHzjEAOCDRvPtg72cOnNkhSfXQp18eUrvWwOtEV++fQjC9ZjsA1TCMdI0uGAxjDcVD2kA8UAq9jzLFvObAswf0QYAPA/e45j9iKCNRvMaK8ySDVAINcC8xSdYwkqIXdEUFRQSt263Ki8dH9siTLx8AAR0GWDkkGwzGDOfUQEu9cdbnB8oAYATshwAaAnYDnbt0LgepPfVY4zwNDJbNkqIxPrpUxIK0yIlARX7QDoSS+3G054T7GV5xHHOJw7KcxJP8U/hidNsmGU0afe6c4Ih9R4cIIWBkBNgCsDDCLZwRyQ6Bnz57G41drljSYTOUxxqAsSOYykiyVwvdFDbJcHHMelEAZRf99OXp6ZNpPn4Cv+H9fV3F55IryRG+W4zAU/7zs6XnhcGjwFbzOhRFgBOyIABsAdgSfu2YEBBGQGrYJLpwCUEBKTS2ATHUFMM6tIMYhFMAvcgFcbvDFv3nxadof/6JHwVAQjQgPdKX/F5cgy0asnx0rYoa0tSj/JuaxT0NinDsYTZ+CT+z3MKwuCdfgk8wg3TSAnAhGYyIeJ2KfiZ5eqTciN42/JTgmrs4IMAJ2QuD/csUbeuuprJoAAAAASUVORK5CYII=;fontSize=12;fontColor=#004C99;fontStyle=0;strokeWidth=4;" vertex="1" parent="1">
          <mxGeometry x="1670" y="680" width="110" height="110" as="geometry" />
        </mxCell>
        <mxCell id="gJV9Rar0UIvyar5j-PNI-32" style="edgeStyle=orthogonalEdgeStyle;rounded=0;orthogonalLoop=1;jettySize=auto;html=1;strokeWidth=3;" edge="1" parent="1">
          <mxGeometry relative="1" as="geometry">
            <mxPoint x="1348" y="402" as="sourcePoint" />
            <mxPoint x="1180" y="402" as="targetPoint" />
          </mxGeometry>
        </mxCell>
        <mxCell id="gJV9Rar0UIvyar5j-PNI-33" value="" style="rounded=0;whiteSpace=wrap;html=1;dashed=1;dashPattern=8 8;fillColor=#FFE6CC;" vertex="1" parent="1">
          <mxGeometry x="1348" y="270" width="742" height="330" as="geometry" />
        </mxCell>
        <mxCell id="gJV9Rar0UIvyar5j-PNI-34" value="&lt;b style=&quot;&quot;&gt;&lt;font style=&quot;font-size: 24px;&quot;&gt;Real Network&lt;/font&gt;&lt;/b&gt;" style="text;html=1;align=center;verticalAlign=middle;whiteSpace=wrap;rounded=0;" vertex="1" parent="1">
          <mxGeometry x="1620" y="270" width="210" height="30" as="geometry" />
        </mxCell>
        <mxCell id="gJV9Rar0UIvyar5j-PNI-35" value="" style="endArrow=classic;html=1;rounded=0;exitX=0.51;exitY=1.004;exitDx=0;exitDy=0;exitPerimeter=0;strokeWidth=3;" edge="1" parent="1" source="gJV9Rar0UIvyar5j-PNI-33" target="gJV9Rar0UIvyar5j-PNI-31">
          <mxGeometry width="50" height="50" relative="1" as="geometry">
            <mxPoint x="1810" y="760" as="sourcePoint" />
            <mxPoint x="1860" y="710" as="targetPoint" />
          </mxGeometry>
        </mxCell>
        <mxCell id="gJV9Rar0UIvyar5j-PNI-36" value="" style="group" vertex="1" connectable="0" parent="1">
          <mxGeometry x="1488" y="230" width="460" height="355.5" as="geometry" />
        </mxCell>
        <mxCell id="gJV9Rar0UIvyar5j-PNI-37" value="R13" style="shape=cylinder3;whiteSpace=wrap;html=1;boundedLbl=1;backgroundOutline=1;size=15;fontSize=13;fontStyle=0" vertex="1" parent="gJV9Rar0UIvyar5j-PNI-36">
          <mxGeometry x="407.92452830188677" y="245.22397476340697" width="52.075471698113205" height="44.85804416403787" as="geometry" />
        </mxCell>
        <mxCell id="gJV9Rar0UIvyar5j-PNI-38" value="R3" style="shape=cylinder3;whiteSpace=wrap;html=1;boundedLbl=1;backgroundOutline=1;size=15;fontSize=13;fontStyle=0" vertex="1" parent="gJV9Rar0UIvyar5j-PNI-36">
          <mxGeometry x="316.79245283018867" y="181.67507886435334" width="52.075471698113205" height="44.85804416403787" as="geometry" />
        </mxCell>
        <mxCell id="gJV9Rar0UIvyar5j-PNI-39" value="R7" style="shape=cylinder3;whiteSpace=wrap;html=1;boundedLbl=1;backgroundOutline=1;size=15;fontSize=13;fontStyle=0" vertex="1" parent="gJV9Rar0UIvyar5j-PNI-36">
          <mxGeometry x="316.79245283018867" y="310.6419558359622" width="52.075471698113205" height="44.85804416403787" as="geometry" />
        </mxCell>
        <mxCell id="gJV9Rar0UIvyar5j-PNI-40" value="R6" style="shape=cylinder3;whiteSpace=wrap;html=1;boundedLbl=1;backgroundOutline=1;size=15;fontSize=13;fontStyle=0" vertex="1" parent="gJV9Rar0UIvyar5j-PNI-36">
          <mxGeometry x="202.3132075471697" y="310.6419558359622" width="52.075471698113205" height="44.85804416403787" as="geometry" />
        </mxCell>
        <mxCell id="gJV9Rar0UIvyar5j-PNI-41" value="R5" style="shape=cylinder3;whiteSpace=wrap;html=1;boundedLbl=1;backgroundOutline=1;size=15;fontSize=13;fontStyle=0" vertex="1" parent="gJV9Rar0UIvyar5j-PNI-36">
          <mxGeometry x="202.3132075471697" y="245.22397476340697" width="52.075471698113205" height="44.85804416403787" as="geometry" />
        </mxCell>
        <mxCell id="gJV9Rar0UIvyar5j-PNI-42" value="R4" style="shape=cylinder3;whiteSpace=wrap;html=1;boundedLbl=1;backgroundOutline=1;size=15;fontSize=13;fontStyle=0" vertex="1" parent="gJV9Rar0UIvyar5j-PNI-36">
          <mxGeometry x="87.74716981132067" y="310.6419558359622" width="52.075471698113205" height="44.85804416403787" as="geometry" />
        </mxCell>
        <mxCell id="gJV9Rar0UIvyar5j-PNI-43" value="R11" style="shape=cylinder3;whiteSpace=wrap;html=1;boundedLbl=1;backgroundOutline=1;size=15;fontSize=13;fontStyle=0" vertex="1" parent="gJV9Rar0UIvyar5j-PNI-36">
          <mxGeometry y="244.85015772870668" width="52.075471698113205" height="44.85804416403787" as="geometry" />
        </mxCell>
        <mxCell id="gJV9Rar0UIvyar5j-PNI-44" value="R1" style="shape=cylinder3;whiteSpace=wrap;html=1;boundedLbl=1;backgroundOutline=1;size=15;fontSize=13;fontStyle=0" vertex="1" parent="gJV9Rar0UIvyar5j-PNI-36">
          <mxGeometry x="87.74716981132067" y="181.67507886435334" width="52.075471698113205" height="44.85804416403787" as="geometry" />
        </mxCell>
        <mxCell id="gJV9Rar0UIvyar5j-PNI-45" value="R12" style="shape=cylinder3;whiteSpace=wrap;html=1;boundedLbl=1;backgroundOutline=1;size=15;fontSize=13;fontStyle=0" vertex="1" parent="gJV9Rar0UIvyar5j-PNI-36">
          <mxGeometry x="260.37735849056605" y="106.91167192429025" width="52.075471698113205" height="44.85804416403787" as="geometry" />
        </mxCell>
        <mxCell id="gJV9Rar0UIvyar5j-PNI-46" value="" style="endArrow=none;html=1;rounded=0;exitX=0.5;exitY=0;exitDx=0;exitDy=0;exitPerimeter=0;strokeColor=default;strokeWidth=2;align=center;verticalAlign=middle;fontFamily=Helvetica;fontSize=13;fontColor=default;labelBackgroundColor=default;endFill=0;fontStyle=0;entryX=0.5;entryY=1;entryDx=0;entryDy=0;entryPerimeter=0;" edge="1" parent="gJV9Rar0UIvyar5j-PNI-36" source="gJV9Rar0UIvyar5j-PNI-42" target="gJV9Rar0UIvyar5j-PNI-44">
          <mxGeometry width="50" height="50" relative="1" as="geometry">
            <mxPoint x="125.84905660377356" y="244.85015772870668" as="sourcePoint" />
            <mxPoint x="125.84905660377356" y="196.2539432176656" as="targetPoint" />
          </mxGeometry>
        </mxCell>
        <mxCell id="gJV9Rar0UIvyar5j-PNI-47" value="" style="endArrow=none;html=1;rounded=0;exitX=1;exitY=0.5;exitDx=0;exitDy=0;exitPerimeter=0;strokeColor=default;strokeWidth=2;align=center;verticalAlign=middle;fontFamily=Helvetica;fontSize=13;fontColor=default;labelBackgroundColor=default;endFill=0;fontStyle=0;entryX=0;entryY=0.5;entryDx=0;entryDy=0;entryPerimeter=0;" edge="1" parent="gJV9Rar0UIvyar5j-PNI-36" source="gJV9Rar0UIvyar5j-PNI-43" target="gJV9Rar0UIvyar5j-PNI-44">
          <mxGeometry width="50" height="50" relative="1" as="geometry">
            <mxPoint x="87.63433962264172" y="265.78391167192433" as="sourcePoint" />
            <mxPoint x="87.63433962264172" y="220.9258675078865" as="targetPoint" />
          </mxGeometry>
        </mxCell>
        <mxCell id="gJV9Rar0UIvyar5j-PNI-48" value="" style="endArrow=none;html=1;rounded=0;exitX=1;exitY=0.5;exitDx=0;exitDy=0;exitPerimeter=0;strokeColor=default;strokeWidth=2;align=center;verticalAlign=middle;fontFamily=Helvetica;fontSize=13;fontColor=default;labelBackgroundColor=default;endFill=0;fontStyle=0;entryX=0;entryY=0.5;entryDx=0;entryDy=0;entryPerimeter=0;" edge="1" parent="gJV9Rar0UIvyar5j-PNI-36" source="gJV9Rar0UIvyar5j-PNI-43" target="gJV9Rar0UIvyar5j-PNI-42">
          <mxGeometry width="50" height="50" relative="1" as="geometry">
            <mxPoint x="59.71320754716997" y="277.7460567823344" as="sourcePoint" />
            <mxPoint x="95.29811320754735" y="232.88801261829653" as="targetPoint" />
          </mxGeometry>
        </mxCell>
        <mxCell id="gJV9Rar0UIvyar5j-PNI-49" value="R2" style="shape=cylinder3;whiteSpace=wrap;html=1;boundedLbl=1;backgroundOutline=1;size=15;fontSize=13;fontStyle=0" vertex="1" parent="gJV9Rar0UIvyar5j-PNI-36">
          <mxGeometry x="202.3132075471697" y="181.67507886435334" width="52.075471698113205" height="44.85804416403787" as="geometry" />
        </mxCell>
        <mxCell id="gJV9Rar0UIvyar5j-PNI-50" value="" style="endArrow=none;html=1;rounded=0;exitX=0.5;exitY=0;exitDx=0;exitDy=0;exitPerimeter=0;strokeColor=default;strokeWidth=2;align=center;verticalAlign=middle;fontFamily=Helvetica;fontSize=13;fontColor=default;labelBackgroundColor=default;endFill=0;fontStyle=0;entryX=0.5;entryY=1;entryDx=0;entryDy=0;entryPerimeter=0;" edge="1" parent="gJV9Rar0UIvyar5j-PNI-36" source="gJV9Rar0UIvyar5j-PNI-40" target="gJV9Rar0UIvyar5j-PNI-41">
          <mxGeometry width="50" height="50" relative="1" as="geometry">
            <mxPoint x="228.17735849056612" y="310.6419558359622" as="sourcePoint" />
            <mxPoint x="228.51584905660374" y="290.08201892744495" as="targetPoint" />
          </mxGeometry>
        </mxCell>
        <mxCell id="gJV9Rar0UIvyar5j-PNI-51" value="" style="endArrow=none;html=1;rounded=0;exitX=0.5;exitY=0;exitDx=0;exitDy=0;exitPerimeter=0;strokeColor=default;strokeWidth=2;align=center;verticalAlign=middle;fontFamily=Helvetica;fontSize=13;fontColor=default;labelBackgroundColor=default;endFill=0;fontStyle=0;entryX=0.5;entryY=1;entryDx=0;entryDy=0;entryPerimeter=0;" edge="1" parent="gJV9Rar0UIvyar5j-PNI-36" source="gJV9Rar0UIvyar5j-PNI-41">
          <mxGeometry width="50" height="50" relative="1" as="geometry">
            <mxPoint x="228.24679245283016" y="247.46687697160888" as="sourcePoint" />
            <mxPoint x="228.24679245283016" y="226.53312302839123" as="targetPoint" />
          </mxGeometry>
        </mxCell>
        <mxCell id="gJV9Rar0UIvyar5j-PNI-52" value="" style="endArrow=none;html=1;rounded=0;exitX=1;exitY=0.5;exitDx=0;exitDy=0;exitPerimeter=0;strokeColor=default;strokeWidth=2;align=center;verticalAlign=middle;fontFamily=Helvetica;fontSize=13;fontColor=default;labelBackgroundColor=default;endFill=0;fontStyle=0;entryX=0;entryY=0.5;entryDx=0;entryDy=0;entryPerimeter=0;" edge="1" parent="gJV9Rar0UIvyar5j-PNI-36" source="gJV9Rar0UIvyar5j-PNI-42" target="gJV9Rar0UIvyar5j-PNI-40">
          <mxGeometry width="50" height="50" relative="1" as="geometry">
            <mxPoint x="139.8226415094339" y="337.9305993690852" as="sourcePoint" />
            <mxPoint x="139.8226415094339" y="253.44794952681394" as="targetPoint" />
          </mxGeometry>
        </mxCell>
        <mxCell id="gJV9Rar0UIvyar5j-PNI-53" value="" style="endArrow=none;html=1;rounded=0;exitX=1;exitY=0.5;exitDx=0;exitDy=0;exitPerimeter=0;strokeColor=default;strokeWidth=2;align=center;verticalAlign=middle;fontFamily=Helvetica;fontSize=13;fontColor=default;labelBackgroundColor=default;endFill=0;fontStyle=0;entryX=0;entryY=0.5;entryDx=0;entryDy=0;entryPerimeter=0;" edge="1" parent="gJV9Rar0UIvyar5j-PNI-36">
          <mxGeometry width="50" height="50" relative="1" as="geometry">
            <mxPoint x="139.8226415094339" y="204.10410094637226" as="sourcePoint" />
            <mxPoint x="202.3132075471697" y="204.10410094637226" as="targetPoint" />
          </mxGeometry>
        </mxCell>
        <mxCell id="gJV9Rar0UIvyar5j-PNI-54" value="" style="endArrow=none;html=1;rounded=0;exitX=1;exitY=0.5;exitDx=0;exitDy=0;exitPerimeter=0;strokeColor=default;strokeWidth=2;align=center;verticalAlign=middle;fontFamily=Helvetica;fontSize=13;fontColor=default;labelBackgroundColor=default;endFill=0;fontStyle=0;entryX=0;entryY=0.5;entryDx=0;entryDy=0;entryPerimeter=0;" edge="1" parent="gJV9Rar0UIvyar5j-PNI-36">
          <mxGeometry width="50" height="50" relative="1" as="geometry">
            <mxPoint x="254.3886792452829" y="204.01438485804425" as="sourcePoint" />
            <mxPoint x="316.8792452830188" y="204.01438485804425" as="targetPoint" />
          </mxGeometry>
        </mxCell>
        <mxCell id="gJV9Rar0UIvyar5j-PNI-55" value="" style="endArrow=none;html=1;rounded=0;exitX=1;exitY=0.5;exitDx=0;exitDy=0;exitPerimeter=0;strokeColor=default;strokeWidth=2;align=center;verticalAlign=middle;fontFamily=Helvetica;fontSize=13;fontColor=default;labelBackgroundColor=default;endFill=0;fontStyle=0;entryX=0;entryY=0.5;entryDx=0;entryDy=0;entryPerimeter=0;" edge="1" parent="gJV9Rar0UIvyar5j-PNI-36">
          <mxGeometry width="50" height="50" relative="1" as="geometry">
            <mxPoint x="254.3886792452829" y="332.9812618296532" as="sourcePoint" />
            <mxPoint x="316.8792452830188" y="332.9812618296532" as="targetPoint" />
          </mxGeometry>
        </mxCell>
        <mxCell id="gJV9Rar0UIvyar5j-PNI-56" value="" style="endArrow=none;html=1;rounded=0;exitX=1;exitY=0.5;exitDx=0;exitDy=0;exitPerimeter=0;strokeColor=default;strokeWidth=2;align=center;verticalAlign=middle;fontFamily=Helvetica;fontSize=13;fontColor=default;labelBackgroundColor=default;endFill=0;fontStyle=0;entryX=0;entryY=0.5;entryDx=0;entryDy=0;entryPerimeter=0;" edge="1" parent="gJV9Rar0UIvyar5j-PNI-36" target="gJV9Rar0UIvyar5j-PNI-37">
          <mxGeometry width="50" height="50" relative="1" as="geometry">
            <mxPoint x="368.8679245283019" y="207.84227129337543" as="sourcePoint" />
            <mxPoint x="404.45283018867923" y="144.2933753943218" as="targetPoint" />
          </mxGeometry>
        </mxCell>
        <mxCell id="gJV9Rar0UIvyar5j-PNI-57" value="" style="endArrow=none;html=1;rounded=0;exitX=0.5;exitY=0;exitDx=0;exitDy=0;exitPerimeter=0;strokeColor=default;strokeWidth=2;align=center;verticalAlign=middle;fontFamily=Helvetica;fontSize=13;fontColor=default;labelBackgroundColor=default;endFill=0;fontStyle=0;entryX=0.5;entryY=1;entryDx=0;entryDy=0;entryPerimeter=0;" edge="1" parent="gJV9Rar0UIvyar5j-PNI-36">
          <mxGeometry width="50" height="50" relative="1" as="geometry">
            <mxPoint x="342.7260377358491" y="311.0157728706625" as="sourcePoint" />
            <mxPoint x="342.7260377358491" y="226.53312302839123" as="targetPoint" />
          </mxGeometry>
        </mxCell>
        <mxCell id="gJV9Rar0UIvyar5j-PNI-58" value="" style="endArrow=none;html=1;rounded=0;exitX=1;exitY=0.5;exitDx=0;exitDy=0;exitPerimeter=0;strokeColor=default;strokeWidth=2;align=center;verticalAlign=middle;fontFamily=Helvetica;fontSize=13;fontColor=default;labelBackgroundColor=default;endFill=0;fontStyle=0;entryX=0;entryY=0.5;entryDx=0;entryDy=0;entryPerimeter=0;" edge="1" parent="gJV9Rar0UIvyar5j-PNI-36" source="gJV9Rar0UIvyar5j-PNI-39" target="gJV9Rar0UIvyar5j-PNI-37">
          <mxGeometry width="50" height="50" relative="1" as="geometry">
            <mxPoint x="368.8679245283019" y="330.08044164037864" as="sourcePoint" />
            <mxPoint x="407.92452830188677" y="389.89116719242907" as="targetPoint" />
          </mxGeometry>
        </mxCell>
        <mxCell id="gJV9Rar0UIvyar5j-PNI-59" value="" style="endArrow=none;html=1;rounded=0;exitX=0.5;exitY=0;exitDx=0;exitDy=0;exitPerimeter=0;strokeColor=default;strokeWidth=2;align=center;verticalAlign=middle;fontFamily=Helvetica;fontSize=13;fontColor=default;labelBackgroundColor=default;endFill=0;fontStyle=0;entryX=0.5;entryY=1;entryDx=0;entryDy=0;entryPerimeter=0;" edge="1" parent="gJV9Rar0UIvyar5j-PNI-36" source="gJV9Rar0UIvyar5j-PNI-49" target="gJV9Rar0UIvyar5j-PNI-45">
          <mxGeometry width="50" height="50" relative="1" as="geometry">
            <mxPoint x="263.06792452830183" y="211.4907255520506" as="sourcePoint" />
            <mxPoint x="325.5584905660376" y="211.4907255520506" as="targetPoint" />
          </mxGeometry>
        </mxCell>
        <mxCell id="gJV9Rar0UIvyar5j-PNI-60" value="" style="endArrow=none;html=1;rounded=0;exitX=0.5;exitY=0;exitDx=0;exitDy=0;exitPerimeter=0;strokeColor=default;strokeWidth=2;align=center;verticalAlign=middle;fontFamily=Helvetica;fontSize=13;fontColor=default;labelBackgroundColor=default;endFill=0;fontStyle=0;" edge="1" parent="gJV9Rar0UIvyar5j-PNI-36" source="gJV9Rar0UIvyar5j-PNI-38">
          <mxGeometry width="50" height="50" relative="1" as="geometry">
            <mxPoint x="236.9433962264151" y="189.1514195583597" as="sourcePoint" />
            <mxPoint x="286.4150943396226" y="151.76971608832812" as="targetPoint" />
          </mxGeometry>
        </mxCell>
        <mxCell id="gJV9Rar0UIvyar5j-PNI-61" value="" style="endArrow=none;html=1;rounded=0;strokeColor=default;strokeWidth=2;align=center;verticalAlign=middle;fontFamily=Helvetica;fontSize=13;fontColor=default;labelBackgroundColor=default;endFill=0;fontStyle=0;entryX=0.5;entryY=1;entryDx=0;entryDy=0;entryPerimeter=0;exitX=0.5;exitY=0;exitDx=0;exitDy=0;exitPerimeter=0;" edge="1" parent="gJV9Rar0UIvyar5j-PNI-36" source="gJV9Rar0UIvyar5j-PNI-49" target="gJV9Rar0UIvyar5j-PNI-62">
          <mxGeometry width="50" height="50" relative="1" as="geometry">
            <mxPoint x="228.2641509433962" y="179.43217665615148" as="sourcePoint" />
            <mxPoint x="130.18867924528303" y="114.38801261829653" as="targetPoint" />
          </mxGeometry>
        </mxCell>
        <mxCell id="gJV9Rar0UIvyar5j-PNI-62" value="&lt;font style=&quot;font-size: 12px;&quot;&gt;gateway&lt;/font&gt;" style="shape=cylinder3;whiteSpace=wrap;html=1;boundedLbl=1;backgroundOutline=1;size=15;fontSize=13;fontStyle=0" vertex="1" parent="gJV9Rar0UIvyar5j-PNI-36">
          <mxGeometry x="202.3132075471697" y="82.23974763406942" width="52.075471698113205" height="44.85804416403787" as="geometry" />
        </mxCell>
        <mxCell id="gJV9Rar0UIvyar5j-PNI-63" value="" style="group" vertex="1" connectable="0" parent="1">
          <mxGeometry x="450" y="900" width="730" height="330" as="geometry" />
        </mxCell>
        <mxCell id="gJV9Rar0UIvyar5j-PNI-64" value="" style="rounded=0;whiteSpace=wrap;html=1;dashed=1;dashPattern=8 8;fillColor=#CCE5FF;" vertex="1" parent="gJV9Rar0UIvyar5j-PNI-63">
          <mxGeometry width="730" height="330" as="geometry" />
        </mxCell>
        <mxCell id="gJV9Rar0UIvyar5j-PNI-65" value="" style="group" vertex="1" connectable="0" parent="gJV9Rar0UIvyar5j-PNI-63">
          <mxGeometry x="30" y="50" width="670" height="240" as="geometry" />
        </mxCell>
        <mxCell id="gJV9Rar0UIvyar5j-PNI-66" value="" style="group" vertex="1" connectable="0" parent="gJV9Rar0UIvyar5j-PNI-65">
          <mxGeometry width="180" height="240" as="geometry" />
        </mxCell>
        <mxCell id="gJV9Rar0UIvyar5j-PNI-67" value="" style="rounded=1;whiteSpace=wrap;html=1;" vertex="1" parent="gJV9Rar0UIvyar5j-PNI-66">
          <mxGeometry width="180" height="240" as="geometry" />
        </mxCell>
        <mxCell id="gJV9Rar0UIvyar5j-PNI-68" value="Storage" style="swimlane;fontStyle=0;childLayout=stackLayout;horizontal=1;startSize=30;horizontalStack=0;resizeParent=1;resizeParentMax=0;resizeLast=0;collapsible=1;marginBottom=0;whiteSpace=wrap;html=1;" vertex="1" parent="gJV9Rar0UIvyar5j-PNI-66">
          <mxGeometry x="23" y="86" width="140" height="120" as="geometry">
            <mxRectangle x="660" y="870" width="50" height="40" as="alternateBounds" />
          </mxGeometry>
        </mxCell>
        <mxCell id="gJV9Rar0UIvyar5j-PNI-69" value="Topology Data" style="text;strokeColor=none;fillColor=none;align=left;verticalAlign=middle;spacingLeft=4;spacingRight=4;overflow=hidden;points=[[0,0.5],[1,0.5]];portConstraint=eastwest;rotatable=0;whiteSpace=wrap;html=1;" vertex="1" parent="gJV9Rar0UIvyar5j-PNI-68">
          <mxGeometry y="30" width="140" height="30" as="geometry" />
        </mxCell>
        <mxCell id="gJV9Rar0UIvyar5j-PNI-70" value="Configuration Data" style="text;strokeColor=none;fillColor=none;align=left;verticalAlign=middle;spacingLeft=4;spacingRight=4;overflow=hidden;points=[[0,0.5],[1,0.5]];portConstraint=eastwest;rotatable=0;whiteSpace=wrap;html=1;" vertex="1" parent="gJV9Rar0UIvyar5j-PNI-68">
          <mxGeometry y="60" width="140" height="30" as="geometry" />
        </mxCell>
        <mxCell id="gJV9Rar0UIvyar5j-PNI-71" value="Process Data" style="text;strokeColor=none;fillColor=none;align=left;verticalAlign=middle;spacingLeft=4;spacingRight=4;overflow=hidden;points=[[0,0.5],[1,0.5]];portConstraint=eastwest;rotatable=0;whiteSpace=wrap;html=1;" vertex="1" parent="gJV9Rar0UIvyar5j-PNI-68">
          <mxGeometry y="90" width="140" height="30" as="geometry" />
        </mxCell>
        <mxCell id="gJV9Rar0UIvyar5j-PNI-72" value="&lt;b&gt;Data Repository&lt;/b&gt;" style="rounded=1;whiteSpace=wrap;html=1;fillColor=#dae8fc;strokeColor=#6c8ebf;" vertex="1" parent="gJV9Rar0UIvyar5j-PNI-66">
          <mxGeometry x="30" y="13" width="120" height="60" as="geometry" />
        </mxCell>
        <mxCell id="gJV9Rar0UIvyar5j-PNI-73" value="" style="group" vertex="1" connectable="0" parent="gJV9Rar0UIvyar5j-PNI-65">
          <mxGeometry x="250" width="180" height="240" as="geometry" />
        </mxCell>
        <mxCell id="gJV9Rar0UIvyar5j-PNI-74" value="" style="rounded=1;whiteSpace=wrap;html=1;" vertex="1" parent="gJV9Rar0UIvyar5j-PNI-73">
          <mxGeometry width="180" height="240" as="geometry" />
        </mxCell>
        <mxCell id="gJV9Rar0UIvyar5j-PNI-75" value="VNFs/CNFs" style="swimlane;fontStyle=0;childLayout=stackLayout;horizontal=1;startSize=30;horizontalStack=0;resizeParent=1;resizeParentMax=0;resizeLast=0;collapsible=1;marginBottom=0;whiteSpace=wrap;html=1;" vertex="1" parent="gJV9Rar0UIvyar5j-PNI-73">
          <mxGeometry x="21" y="85" width="140" height="120" as="geometry">
            <mxRectangle x="660" y="870" width="50" height="40" as="alternateBounds" />
          </mxGeometry>
        </mxCell>
        <mxCell id="gJV9Rar0UIvyar5j-PNI-76" value="Virtual Clients" style="text;strokeColor=none;fillColor=none;align=left;verticalAlign=middle;spacingLeft=4;spacingRight=4;overflow=hidden;points=[[0,0.5],[1,0.5]];portConstraint=eastwest;rotatable=0;whiteSpace=wrap;html=1;" vertex="1" parent="gJV9Rar0UIvyar5j-PNI-75">
          <mxGeometry y="30" width="140" height="30" as="geometry" />
        </mxCell>
        <mxCell id="gJV9Rar0UIvyar5j-PNI-77" value="Virtual Services" style="text;strokeColor=none;fillColor=none;align=left;verticalAlign=middle;spacingLeft=4;spacingRight=4;overflow=hidden;points=[[0,0.5],[1,0.5]];portConstraint=eastwest;rotatable=0;whiteSpace=wrap;html=1;" vertex="1" parent="gJV9Rar0UIvyar5j-PNI-75">
          <mxGeometry y="60" width="140" height="30" as="geometry" />
        </mxCell>
        <mxCell id="gJV9Rar0UIvyar5j-PNI-78" value="Virtual Networl devices" style="text;strokeColor=none;fillColor=none;align=left;verticalAlign=middle;spacingLeft=4;spacingRight=4;overflow=hidden;points=[[0,0.5],[1,0.5]];portConstraint=eastwest;rotatable=0;whiteSpace=wrap;html=1;" vertex="1" parent="gJV9Rar0UIvyar5j-PNI-75">
          <mxGeometry y="90" width="140" height="30" as="geometry" />
        </mxCell>
        <mxCell id="gJV9Rar0UIvyar5j-PNI-79" value="&lt;b&gt;Service Mapping Models&amp;nbsp;&lt;/b&gt;" style="rounded=1;whiteSpace=wrap;html=1;fillColor=#dae8fc;strokeColor=#6c8ebf;" vertex="1" parent="gJV9Rar0UIvyar5j-PNI-73">
          <mxGeometry x="30" y="13" width="120" height="60" as="geometry" />
        </mxCell>
        <mxCell id="gJV9Rar0UIvyar5j-PNI-80" value="" style="group" vertex="1" connectable="0" parent="gJV9Rar0UIvyar5j-PNI-65">
          <mxGeometry x="490" width="180" height="240" as="geometry" />
        </mxCell>
        <mxCell id="gJV9Rar0UIvyar5j-PNI-81" style="edgeStyle=orthogonalEdgeStyle;rounded=0;orthogonalLoop=1;jettySize=auto;html=1;" edge="1" parent="gJV9Rar0UIvyar5j-PNI-80">
          <mxGeometry relative="1" as="geometry">
            <mxPoint x="-60" y="100" as="targetPoint" />
            <mxPoint y="100.02564102564111" as="sourcePoint" />
          </mxGeometry>
        </mxCell>
        <mxCell id="gJV9Rar0UIvyar5j-PNI-82" value="" style="rounded=1;whiteSpace=wrap;html=1;" vertex="1" parent="gJV9Rar0UIvyar5j-PNI-80">
          <mxGeometry width="180" height="240" as="geometry" />
        </mxCell>
        <mxCell id="gJV9Rar0UIvyar5j-PNI-83" value="Orchestrator" style="swimlane;fontStyle=0;childLayout=stackLayout;horizontal=1;startSize=30;horizontalStack=0;resizeParent=1;resizeParentMax=0;resizeLast=0;collapsible=1;marginBottom=0;whiteSpace=wrap;html=1;" vertex="1" parent="gJV9Rar0UIvyar5j-PNI-80">
          <mxGeometry x="23" y="90" width="140" height="90" as="geometry">
            <mxRectangle x="660" y="870" width="50" height="40" as="alternateBounds" />
          </mxGeometry>
        </mxCell>
        <mxCell id="gJV9Rar0UIvyar5j-PNI-84" value="Infrastructure as Code (IaC)" style="text;strokeColor=none;fillColor=none;align=left;verticalAlign=middle;spacingLeft=4;spacingRight=4;overflow=hidden;points=[[0,0.5],[1,0.5]];portConstraint=eastwest;rotatable=0;whiteSpace=wrap;html=1;" vertex="1" parent="gJV9Rar0UIvyar5j-PNI-83">
          <mxGeometry y="30" width="140" height="30" as="geometry" />
        </mxCell>
        <mxCell id="gJV9Rar0UIvyar5j-PNI-85" value="Topology Generator" style="text;strokeColor=none;fillColor=none;align=left;verticalAlign=middle;spacingLeft=4;spacingRight=4;overflow=hidden;points=[[0,0.5],[1,0.5]];portConstraint=eastwest;rotatable=0;whiteSpace=wrap;html=1;" vertex="1" parent="gJV9Rar0UIvyar5j-PNI-83">
          <mxGeometry y="60" width="140" height="30" as="geometry" />
        </mxCell>
        <mxCell id="gJV9Rar0UIvyar5j-PNI-86" value="&lt;b&gt;Digital Twin Network Management&lt;/b&gt;" style="rounded=1;whiteSpace=wrap;html=1;fillColor=#dae8fc;strokeColor=#6c8ebf;" vertex="1" parent="gJV9Rar0UIvyar5j-PNI-80">
          <mxGeometry x="30" y="15" width="120" height="60" as="geometry" />
        </mxCell>
        <mxCell id="gJV9Rar0UIvyar5j-PNI-87" style="edgeStyle=orthogonalEdgeStyle;rounded=0;orthogonalLoop=1;jettySize=auto;html=1;entryX=0;entryY=0.5;entryDx=0;entryDy=0;" edge="1" parent="gJV9Rar0UIvyar5j-PNI-65" source="gJV9Rar0UIvyar5j-PNI-67" target="gJV9Rar0UIvyar5j-PNI-74">
          <mxGeometry relative="1" as="geometry" />
        </mxCell>
        <mxCell id="gJV9Rar0UIvyar5j-PNI-88" style="edgeStyle=orthogonalEdgeStyle;rounded=0;orthogonalLoop=1;jettySize=auto;html=1;entryX=0.992;entryY=0.442;entryDx=0;entryDy=0;entryPerimeter=0;exitX=0.001;exitY=0.44;exitDx=0;exitDy=0;exitPerimeter=0;" edge="1" parent="gJV9Rar0UIvyar5j-PNI-65">
          <mxGeometry relative="1" as="geometry">
            <mxPoint x="250.18000000000006" y="98.59999999999991" as="sourcePoint" />
            <mxPoint x="178.56000000000017" y="99.08000000000015" as="targetPoint" />
          </mxGeometry>
        </mxCell>
        <mxCell id="gJV9Rar0UIvyar5j-PNI-89" style="edgeStyle=orthogonalEdgeStyle;rounded=0;orthogonalLoop=1;jettySize=auto;html=1;" edge="1" parent="gJV9Rar0UIvyar5j-PNI-65" source="gJV9Rar0UIvyar5j-PNI-74" target="gJV9Rar0UIvyar5j-PNI-82">
          <mxGeometry relative="1" as="geometry" />
        </mxCell>
        <mxCell id="gJV9Rar0UIvyar5j-PNI-90" value="&lt;b style=&quot;&quot;&gt;&lt;font style=&quot;font-size: 24px;&quot;&gt;Edge&lt;/font&gt;&lt;/b&gt;" style="text;html=1;align=center;verticalAlign=middle;whiteSpace=wrap;rounded=0;" vertex="1" parent="gJV9Rar0UIvyar5j-PNI-63">
          <mxGeometry x="243" y="10" width="240" height="30" as="geometry" />
        </mxCell>
        <mxCell id="gJV9Rar0UIvyar5j-PNI-91" value="" style="group" vertex="1" connectable="0" parent="1">
          <mxGeometry x="450" y="270" width="730" height="330" as="geometry" />
        </mxCell>
        <mxCell id="gJV9Rar0UIvyar5j-PNI-92" value="" style="rounded=0;whiteSpace=wrap;html=1;dashed=1;dashPattern=8 8;fillColor=#CCE5FF;" vertex="1" parent="gJV9Rar0UIvyar5j-PNI-91">
          <mxGeometry width="730" height="330" as="geometry" />
        </mxCell>
        <mxCell id="gJV9Rar0UIvyar5j-PNI-93" value="" style="group" vertex="1" connectable="0" parent="gJV9Rar0UIvyar5j-PNI-91">
          <mxGeometry x="30" y="50" width="670" height="240" as="geometry" />
        </mxCell>
        <mxCell id="gJV9Rar0UIvyar5j-PNI-94" value="" style="group" vertex="1" connectable="0" parent="gJV9Rar0UIvyar5j-PNI-93">
          <mxGeometry width="180" height="240" as="geometry" />
        </mxCell>
        <mxCell id="gJV9Rar0UIvyar5j-PNI-95" value="" style="rounded=1;whiteSpace=wrap;html=1;" vertex="1" parent="gJV9Rar0UIvyar5j-PNI-94">
          <mxGeometry width="180" height="240" as="geometry" />
        </mxCell>
        <mxCell id="gJV9Rar0UIvyar5j-PNI-96" value="Storage" style="swimlane;fontStyle=0;childLayout=stackLayout;horizontal=1;startSize=30;horizontalStack=0;resizeParent=1;resizeParentMax=0;resizeLast=0;collapsible=1;marginBottom=0;whiteSpace=wrap;html=1;" vertex="1" parent="gJV9Rar0UIvyar5j-PNI-94">
          <mxGeometry x="23" y="86" width="140" height="120" as="geometry">
            <mxRectangle x="660" y="870" width="50" height="40" as="alternateBounds" />
          </mxGeometry>
        </mxCell>
        <mxCell id="gJV9Rar0UIvyar5j-PNI-97" value="Topology Data" style="text;strokeColor=none;fillColor=none;align=left;verticalAlign=middle;spacingLeft=4;spacingRight=4;overflow=hidden;points=[[0,0.5],[1,0.5]];portConstraint=eastwest;rotatable=0;whiteSpace=wrap;html=1;" vertex="1" parent="gJV9Rar0UIvyar5j-PNI-96">
          <mxGeometry y="30" width="140" height="30" as="geometry" />
        </mxCell>
        <mxCell id="gJV9Rar0UIvyar5j-PNI-98" value="Configuration Data" style="text;strokeColor=none;fillColor=none;align=left;verticalAlign=middle;spacingLeft=4;spacingRight=4;overflow=hidden;points=[[0,0.5],[1,0.5]];portConstraint=eastwest;rotatable=0;whiteSpace=wrap;html=1;" vertex="1" parent="gJV9Rar0UIvyar5j-PNI-96">
          <mxGeometry y="60" width="140" height="30" as="geometry" />
        </mxCell>
        <mxCell id="gJV9Rar0UIvyar5j-PNI-99" value="Process Data" style="text;strokeColor=none;fillColor=none;align=left;verticalAlign=middle;spacingLeft=4;spacingRight=4;overflow=hidden;points=[[0,0.5],[1,0.5]];portConstraint=eastwest;rotatable=0;whiteSpace=wrap;html=1;" vertex="1" parent="gJV9Rar0UIvyar5j-PNI-96">
          <mxGeometry y="90" width="140" height="30" as="geometry" />
        </mxCell>
        <mxCell id="gJV9Rar0UIvyar5j-PNI-100" value="&lt;b&gt;Data Repository&lt;/b&gt;" style="rounded=1;whiteSpace=wrap;html=1;fillColor=#dae8fc;strokeColor=#6c8ebf;" vertex="1" parent="gJV9Rar0UIvyar5j-PNI-94">
          <mxGeometry x="30" y="13" width="120" height="60" as="geometry" />
        </mxCell>
        <mxCell id="gJV9Rar0UIvyar5j-PNI-101" value="" style="group" vertex="1" connectable="0" parent="gJV9Rar0UIvyar5j-PNI-93">
          <mxGeometry x="250" width="180" height="240" as="geometry" />
        </mxCell>
        <mxCell id="gJV9Rar0UIvyar5j-PNI-102" value="" style="rounded=1;whiteSpace=wrap;html=1;" vertex="1" parent="gJV9Rar0UIvyar5j-PNI-101">
          <mxGeometry width="180" height="240" as="geometry" />
        </mxCell>
        <mxCell id="gJV9Rar0UIvyar5j-PNI-103" value="VNFs/CNFs" style="swimlane;fontStyle=0;childLayout=stackLayout;horizontal=1;startSize=30;horizontalStack=0;resizeParent=1;resizeParentMax=0;resizeLast=0;collapsible=1;marginBottom=0;whiteSpace=wrap;html=1;" vertex="1" parent="gJV9Rar0UIvyar5j-PNI-101">
          <mxGeometry x="21" y="85" width="140" height="120" as="geometry">
            <mxRectangle x="660" y="870" width="50" height="40" as="alternateBounds" />
          </mxGeometry>
        </mxCell>
        <mxCell id="gJV9Rar0UIvyar5j-PNI-104" value="Virtual Clients" style="text;strokeColor=none;fillColor=none;align=left;verticalAlign=middle;spacingLeft=4;spacingRight=4;overflow=hidden;points=[[0,0.5],[1,0.5]];portConstraint=eastwest;rotatable=0;whiteSpace=wrap;html=1;" vertex="1" parent="gJV9Rar0UIvyar5j-PNI-103">
          <mxGeometry y="30" width="140" height="30" as="geometry" />
        </mxCell>
        <mxCell id="gJV9Rar0UIvyar5j-PNI-105" value="Virtual Services" style="text;strokeColor=none;fillColor=none;align=left;verticalAlign=middle;spacingLeft=4;spacingRight=4;overflow=hidden;points=[[0,0.5],[1,0.5]];portConstraint=eastwest;rotatable=0;whiteSpace=wrap;html=1;" vertex="1" parent="gJV9Rar0UIvyar5j-PNI-103">
          <mxGeometry y="60" width="140" height="30" as="geometry" />
        </mxCell>
        <mxCell id="gJV9Rar0UIvyar5j-PNI-106" value="Virtual Networl devices" style="text;strokeColor=none;fillColor=none;align=left;verticalAlign=middle;spacingLeft=4;spacingRight=4;overflow=hidden;points=[[0,0.5],[1,0.5]];portConstraint=eastwest;rotatable=0;whiteSpace=wrap;html=1;" vertex="1" parent="gJV9Rar0UIvyar5j-PNI-103">
          <mxGeometry y="90" width="140" height="30" as="geometry" />
        </mxCell>
        <mxCell id="gJV9Rar0UIvyar5j-PNI-107" value="&lt;b&gt;Service Mapping Models&amp;nbsp;&lt;/b&gt;" style="rounded=1;whiteSpace=wrap;html=1;fillColor=#dae8fc;strokeColor=#6c8ebf;" vertex="1" parent="gJV9Rar0UIvyar5j-PNI-101">
          <mxGeometry x="30" y="13" width="120" height="60" as="geometry" />
        </mxCell>
        <mxCell id="gJV9Rar0UIvyar5j-PNI-108" value="" style="group" vertex="1" connectable="0" parent="gJV9Rar0UIvyar5j-PNI-93">
          <mxGeometry x="490" width="180" height="240" as="geometry" />
        </mxCell>
        <mxCell id="gJV9Rar0UIvyar5j-PNI-109" style="edgeStyle=orthogonalEdgeStyle;rounded=0;orthogonalLoop=1;jettySize=auto;html=1;" edge="1" parent="gJV9Rar0UIvyar5j-PNI-108">
          <mxGeometry relative="1" as="geometry">
            <mxPoint x="-60" y="100" as="targetPoint" />
            <mxPoint y="100.02564102564111" as="sourcePoint" />
          </mxGeometry>
        </mxCell>
        <mxCell id="gJV9Rar0UIvyar5j-PNI-110" value="" style="rounded=1;whiteSpace=wrap;html=1;" vertex="1" parent="gJV9Rar0UIvyar5j-PNI-108">
          <mxGeometry width="180" height="240" as="geometry" />
        </mxCell>
        <mxCell id="gJV9Rar0UIvyar5j-PNI-111" value="Orchestrator" style="swimlane;fontStyle=0;childLayout=stackLayout;horizontal=1;startSize=30;horizontalStack=0;resizeParent=1;resizeParentMax=0;resizeLast=0;collapsible=1;marginBottom=0;whiteSpace=wrap;html=1;" vertex="1" parent="gJV9Rar0UIvyar5j-PNI-108">
          <mxGeometry x="23" y="90" width="140" height="90" as="geometry">
            <mxRectangle x="660" y="870" width="50" height="40" as="alternateBounds" />
          </mxGeometry>
        </mxCell>
        <mxCell id="gJV9Rar0UIvyar5j-PNI-112" value="Infrastructure as Code (IaC)" style="text;strokeColor=none;fillColor=none;align=left;verticalAlign=middle;spacingLeft=4;spacingRight=4;overflow=hidden;points=[[0,0.5],[1,0.5]];portConstraint=eastwest;rotatable=0;whiteSpace=wrap;html=1;" vertex="1" parent="gJV9Rar0UIvyar5j-PNI-111">
          <mxGeometry y="30" width="140" height="30" as="geometry" />
        </mxCell>
        <mxCell id="gJV9Rar0UIvyar5j-PNI-113" value="Topology Generator" style="text;strokeColor=none;fillColor=none;align=left;verticalAlign=middle;spacingLeft=4;spacingRight=4;overflow=hidden;points=[[0,0.5],[1,0.5]];portConstraint=eastwest;rotatable=0;whiteSpace=wrap;html=1;" vertex="1" parent="gJV9Rar0UIvyar5j-PNI-111">
          <mxGeometry y="60" width="140" height="30" as="geometry" />
        </mxCell>
        <mxCell id="gJV9Rar0UIvyar5j-PNI-114" value="&lt;b&gt;Digital Twin Network Management&lt;/b&gt;" style="rounded=1;whiteSpace=wrap;html=1;fillColor=#dae8fc;strokeColor=#6c8ebf;" vertex="1" parent="gJV9Rar0UIvyar5j-PNI-108">
          <mxGeometry x="30" y="15" width="120" height="60" as="geometry" />
        </mxCell>
        <mxCell id="gJV9Rar0UIvyar5j-PNI-115" style="edgeStyle=orthogonalEdgeStyle;rounded=0;orthogonalLoop=1;jettySize=auto;html=1;entryX=0;entryY=0.5;entryDx=0;entryDy=0;" edge="1" parent="gJV9Rar0UIvyar5j-PNI-93" source="gJV9Rar0UIvyar5j-PNI-95" target="gJV9Rar0UIvyar5j-PNI-102">
          <mxGeometry relative="1" as="geometry" />
        </mxCell>
        <mxCell id="gJV9Rar0UIvyar5j-PNI-116" style="edgeStyle=orthogonalEdgeStyle;rounded=0;orthogonalLoop=1;jettySize=auto;html=1;entryX=0.992;entryY=0.442;entryDx=0;entryDy=0;entryPerimeter=0;exitX=0.001;exitY=0.44;exitDx=0;exitDy=0;exitPerimeter=0;" edge="1" parent="gJV9Rar0UIvyar5j-PNI-93">
          <mxGeometry relative="1" as="geometry">
            <mxPoint x="250.18000000000006" y="98.59999999999991" as="sourcePoint" />
            <mxPoint x="178.56000000000017" y="99.08000000000015" as="targetPoint" />
          </mxGeometry>
        </mxCell>
        <mxCell id="gJV9Rar0UIvyar5j-PNI-117" style="edgeStyle=orthogonalEdgeStyle;rounded=0;orthogonalLoop=1;jettySize=auto;html=1;" edge="1" parent="gJV9Rar0UIvyar5j-PNI-93" source="gJV9Rar0UIvyar5j-PNI-102" target="gJV9Rar0UIvyar5j-PNI-110">
          <mxGeometry relative="1" as="geometry" />
        </mxCell>
        <mxCell id="gJV9Rar0UIvyar5j-PNI-118" value="&lt;b style=&quot;&quot;&gt;&lt;font style=&quot;font-size: 24px;&quot;&gt;Edge&lt;/font&gt;&lt;/b&gt;" style="text;html=1;align=center;verticalAlign=middle;whiteSpace=wrap;rounded=0;" vertex="1" parent="gJV9Rar0UIvyar5j-PNI-91">
          <mxGeometry x="250" y="10" width="240" height="30" as="geometry" />
        </mxCell>
        <mxCell id="gJV9Rar0UIvyar5j-PNI-119" style="edgeStyle=orthogonalEdgeStyle;rounded=0;orthogonalLoop=1;jettySize=auto;html=1;entryX=0;entryY=0.5;entryDx=0;entryDy=0;strokeWidth=3;" edge="1" parent="1" source="gJV9Rar0UIvyar5j-PNI-92" target="gJV9Rar0UIvyar5j-PNI-33">
          <mxGeometry relative="1" as="geometry" />
        </mxCell>
        <mxCell id="gJV9Rar0UIvyar5j-PNI-120" style="edgeStyle=orthogonalEdgeStyle;rounded=0;orthogonalLoop=1;jettySize=auto;html=1;entryX=0;entryY=0.5;entryDx=0;entryDy=0;strokeWidth=3;" edge="1" parent="1" source="gJV9Rar0UIvyar5j-PNI-64" target="gJV9Rar0UIvyar5j-PNI-2">
          <mxGeometry relative="1" as="geometry" />
        </mxCell>
        <mxCell id="gJV9Rar0UIvyar5j-PNI-122" value="&lt;font style=&quot;font-size: 48px; color: rgb(102, 102, 102);&quot;&gt;&lt;b&gt;Architecture&lt;/b&gt;&lt;/font&gt;" style="text;html=1;align=center;verticalAlign=middle;whiteSpace=wrap;rounded=0;" vertex="1" parent="1">
          <mxGeometry x="1270" y="160" width="55" height="30" as="geometry" />
        </mxCell>
      </root>
    </mxGraphModel>
  </diagram>
</mxfile>
